<svg width="20" height="20" fill="none" xmlns="http://www.w3.org/2000/svg"><path d="M9.998 0C4.519 0 .036 4.458 0 9.938a9.931 9.931 0 002.884 7.089A9.928 9.928 0 009.936 20h.066c5.479 0 9.962-4.458 9.998-9.938C20.03 4.552 15.574.036 9.998 0zm7.856 13.609L13.886 10l3.972-3.609c.516 1.116.8 2.356.791 3.662a8.588 8.588 0 01-.795 3.556zM10.05 1.347a8.65 8.65 0 017.163 3.884l-7.216 6.56L7.5 9.52 2.79 5.24a8.691 8.691 0 017.26-3.893zM2.141 6.39L6.11 10l-3.977 3.613a8.58 8.58 0 01-.786-3.666 8.587 8.587 0 01.795-3.556zm7.857 12.262H9.94a8.593 8.593 0 01-6.1-2.573 8.816 8.816 0 01-1.067-1.311l4.292-3.898 2.497 2.267c.125.11.28.169.436.169a.655.655 0 00.435-.17l2.497-2.266 4.284 3.893c-1.555 2.338-4.212 3.89-7.216 3.89z" fill="#fff"/></svg>