<svg width="96" height="96" fill="none" xmlns="http://www.w3.org/2000/svg"><path d="M78 96H18C8.058 96 0 87.942 0 78V18C0 8.058 8.058 0 18 0h60c9.942 0 18 8.058 18 18v60c0 9.942-8.058 18-18 18z" fill="#FFF9DD"/><path d="M54.75 36.75H51V27a3.001 3.001 0 00-6 0v9.75h-3.75c-1.998 0-3.003 2.427-1.59 3.84l6.75 6.75c.438.441 1.014.66 1.59.66.576 0 1.152-.219 1.59-.66l6.75-6.75c1.413-1.413.408-3.84-1.59-3.84z" fill="#FFE777"/><path d="M57 60H39c-3.309 0-6-2.691-6-6v-3a3.001 3.001 0 016 0v3h18v-3a3.001 3.001 0 016 0v3c0 3.309-2.691 6-6 6z" fill="#FFE777"/><path d="M63 12H33c-4.962 0-9 4.038-9 9v54c0 4.962 4.038 9 9 9h30c4.962 0 9-4.038 9-9V21c0-4.962-4.038-9-9-9zm-30 6h30c1.653 0 3 1.344 3 3v51H30V21c0-1.656 1.347-3 3-3z" fill="#FFD200"/></svg>