<svg width="96" height="96" fill="none" xmlns="http://www.w3.org/2000/svg"><path d="M78 96H18C8.058 96 0 87.942 0 78V18C0 8.058 8.058 0 18 0h60c9.942 0 18 8.058 18 18v60c0 9.942-8.058 18-18 18z" fill="#FFF9DD"/><path d="M78 96H18C8.058 96 0 87.942 0 78V18C0 8.058 8.058 0 18 0h60c9.942 0 18 8.058 18 18v60c0 9.942-8.058 18-18 18z" fill="#FFF9DD"/><path d="M41.4 43.5c5.523 0 10-4.477 10-10 0-5.521-4.477-9.998-10-9.998-5.522 0-9.999 4.477-9.999 9.999s4.477 9.999 10 9.999zM46.467 65.1a5.018 5.018 0 01.405-5.6 5.012 5.012 0 01-.405-5.602l1.617-2.802a5.015 5.015 0 015.055-2.448c.066-.165.15-.318.231-.474a9.396 9.396 0 00-3.468-.678h-17C27.662 47.5 23.4 51.762 23.4 57v7a1.5 1.5 0 001.5 1.5h21.798l-.23-.4z" fill="#FFD200"/><path d="M66.806 60.438c.04-.312.097-.618.097-.94 0-.32-.055-.626-.097-.938l1.8-1.362a.995.995 0 00.262-1.296L67.254 53.1a.995.995 0 00-1.255-.42l-2.072.876a7.505 7.505 0 00-1.639-.975l-.275-2.202a1 1 0 00-.993-.876h-3.235a1 1 0 00-.992.876l-.276 2.202a7.389 7.389 0 00-1.639.975l-2.072-.876a1.001 1.001 0 00-1.255.42l-1.617 2.802a.998.998 0 00.262 1.296l1.8 1.362c-.04.312-.096.618-.096.939 0 .32.053.627.096.939l-1.8 1.362a.995.995 0 00-.261 1.296l1.616 2.802a.995.995 0 001.255.42l2.073-.876a7.505 7.505 0 001.638.975l.275 2.202a1 1 0 00.993.876h3.235a1 1 0 00.992-.876l.276-2.202a7.389 7.389 0 001.639-.975l2.072.876a1.001 1.001 0 001.255-.42l1.617-2.802a.998.998 0 00-.261-1.296l-1.803-1.362zM59.4 63.5a4 4 0 11.001-8 4 4 0 01-.002 8z" fill="#FFE777"/></svg>