<svg width="96" height="96" fill="none" xmlns="http://www.w3.org/2000/svg"><path d="M78 96H18C8.058 96 0 87.942 0 78V18C0 8.058 8.058 0 18 0h60c9.942 0 18 8.058 18 18v60c0 9.942-8.058 18-18 18z" fill="#FFF9DD"/><path d="M45.501 67.002c-4.686 0-8.499-3.813-8.499-8.5v-28.46l-9.66 2.21c-2.387.628-3.819 3.091-3.189 5.5l8.283 30.93a4.548 4.548 0 004.359 3.324c.369 0 .744-.048 1.116-.144l20.163-4.857H45.5v-.003z" fill="#FFD200"/><path d="M50.001 42A4.003 4.003 0 0054 38.001a4.003 4.003 0 00-3.999-3.999 4.003 4.003 0 00-3.999 3.999A4.001 4.001 0 0050.001 42z" fill="#FFE777"/><path d="M72 30c0-3.315-2.685-6-6-6H45.999c-3.315 0-6 2.685-6 6v27.999c0 3.315 2.685 6 6 6H66c3.315 0 6-2.685 6-6V30zm-26.001-1.998H66a2 2 0 012.001 2v12.88l-1.521-1.52a3.506 3.506 0 00-4.962 0L52 50.88l-2.52-2.52a3.506 3.506 0 00-4.962 0l-.519.519V30a2.002 2.002 0 012.001-1.998z" fill="#FFD200"/></svg>