<svg width="96" height="96" fill="none" xmlns="http://www.w3.org/2000/svg"><path d="M78 96H18C8.058 96 0 87.942 0 78V18C0 8.058 8.058 0 18 0h60c9.942 0 18 8.058 18 18v60c0 9.942-8.058 18-18 18z" fill="#FFF9DD"/><path d="M72 29.499A5.504 5.504 0 0066.501 24H29.499A5.504 5.504 0 0024 29.499v36.999A5.505 5.505 0 0029.499 72h36.999A5.505 5.505 0 0072 66.501V29.499zM60.165 40.086c.78.78.78 2.046 0 2.829L47.166 55.914c-.39.39-.903.585-1.413.585a1.99 1.99 0 01-1.413-.585l-6.501-6.501a2 2 0 112.829-2.829l5.085 5.085 11.586-11.586a2.002 2.002 0 012.826.003z" fill="#FFD200"/></svg>