<svg width="96" height="96" fill="none" xmlns="http://www.w3.org/2000/svg"><path d="M78 96H18C8.058 96 0 87.942 0 78V18C0 8.058 8.058 0 18 0h60c9.942 0 18 8.058 18 18v60c0 9.942-8.058 18-18 18z" fill="#FFF9DD"/><path d="M51.999 33.999v27c0 .819-.681 1.5-1.5 1.5h-9.66c.099-.48.159-.981.159-1.5 0-4.14-3.36-7.5-7.5-7.5-4.14 0-7.5 3.36-7.5 7.5 0 .519.06 1.02.159 1.5H25.5c-.819 0-1.5-.681-1.5-1.5v-27c0-.819.681-1.5 1.5-1.5h24.999c.822 0 1.5.681 1.5 1.5zM72 48v12.999c0 .819-.681 1.5-1.5 1.5h-1.161c.099-.48.159-.981.159-1.5 0-4.14-3.36-7.5-7.5-7.5-4.14 0-7.5 3.36-7.5 7.5 0 .42.039.819.12 1.2a1.44 1.44 0 01-.618-1.2v-21c0-.819.681-1.5 1.5-1.5h6.999C67.74 38.499 72 42.759 72 48z" fill="#FFD200"/><path d="M62.001 66.5a5.504 5.504 0 01-5.499-5.498 5.504 5.504 0 015.5-5.5 5.504 5.504 0 015.498 5.5 5.506 5.506 0 01-5.499 5.499zM33.501 66.5a5.504 5.504 0 01-5.499-5.498 5.504 5.504 0 015.5-5.5A5.502 5.502 0 0139 61a5.507 5.507 0 01-5.499 5.502z" fill="#FFE777"/></svg>