<svg width="44" height="44" fill="none" xmlns="http://www.w3.org/2000/svg"><path d="M32.095 1.375c-3.17 0-6.162 1.246-8.435 3.442L19.233 9.21c-2.094-1.603-4.606-2.434-7.298-2.434-3.17 0-6.162 1.246-8.435 3.443a11.756 11.756 0 000 16.737l10.409 10.327 5.384 5.342 5.384-5.342L40.53 21.555c2.273-2.256 3.47-5.223 3.47-8.369s-1.256-6.113-3.47-8.369c-2.273-2.196-5.264-3.442-8.435-3.442zm3.051 14.898L19.293 31.942 8.883 21.614a4.275 4.275 0 010-6.054c1.676-1.662 4.428-1.662 6.103 0l4.307 4.274 9.691-9.615c1.675-1.662 4.427-1.662 6.102 0a4.223 4.223 0 01.06 6.054z" fill="#32A573"/></svg>