<svg width="40" height="40" viewBox="0 0 40 40" fill="none" xmlns="http://www.w3.org/2000/svg">
<g clip-path="url(#clip0)">
<path d="M33.1161 17.5C29.3255 17.5039 26.2442 20.6094 26.2481 24.4234C26.2497 26.507 27.288 28.882 29.3341 31.4836C30.7942 33.3406 32.2411 34.6313 32.302 34.6852C32.7768 35.1066 33.4914 35.1038 33.963 34.6836C34.0239 34.6297 35.4684 33.3359 36.9255 31.4766C38.4886 29.481 39.9981 26.9355 39.9981 24.4102C39.9948 20.6034 36.9369 17.5 33.1161 17.5ZM33.1302 32.0187C31.4223 30.2844 28.7505 27.0203 28.7481 24.4211C28.7458 21.9852 30.7067 20.0023 33.1184 20C35.5436 20 37.4949 21.9748 37.4981 24.4125C37.5005 27.0117 34.8341 30.282 33.1302 32.0187Z" fill="#6D3DF8"/>
<path d="M33.1231 22.5C31.4684 22.5 30.6115 24.5157 31.7981 25.7023C32.7391 26.6412 34.3432 26.33 34.8567 25.0914C35.3651 23.8651 34.4587 22.5 33.1231 22.5Z" fill="#6D3DF8"/>
<path d="M6.04656 17.1844C6.52023 17.6048 7.23312 17.6055 7.7075 17.1844C7.76844 17.1305 9.21453 15.8383 10.6731 13.9805C12.7161 11.3766 13.752 9.00078 13.752 6.91641C13.752 3.10312 10.6677 0 6.87703 0C3.0864 0 0.00202942 3.10312 0.00202942 6.91641C0.00202942 9.00078 1.03797 11.3766 3.08094 13.9805C4.53953 15.8383 5.98562 17.1305 6.04656 17.1844ZM6.87703 2.5C9.28953 2.5 11.252 4.48125 11.252 6.91641C11.252 9.51641 8.58172 12.7844 6.87625 14.5195C5.17 12.7875 2.50203 9.52422 2.50203 6.91641C2.50203 4.48125 4.46453 2.5 6.87703 2.5Z" fill="#6D3DF8"/>
<path d="M6.87703 8.75C7.91256 8.75 8.75203 7.91053 8.75203 6.875C8.75203 5.83947 7.91256 5 6.87703 5C5.8415 5 5.00203 5.83947 5.00203 6.875C5.00203 7.91053 5.8415 8.75 6.87703 8.75Z" fill="#6D3DF8"/>
<path d="M35.0106 38.1235C35.012 39.8322 32.8884 40.6571 31.7395 39.375H5.62703C2.52547 39.375 0.00202942 36.8516 0.00202942 33.75C0.00202942 30.6485 2.52547 28.125 5.62703 28.125H18.1661C19.8677 28.125 21.252 26.7407 21.252 25.0391C21.252 23.3375 19.8677 21.9531 18.1661 21.9531H8.27469C7.11609 23.2317 5.00336 22.4163 5.00203 20.7047C4.99937 18.991 7.10961 18.1749 8.27469 19.4531H18.1661C21.2466 19.4531 23.752 21.9586 23.752 25.0391C23.752 28.1196 21.2466 30.625 18.1661 30.625H5.62703C3.90359 30.625 2.50203 32.0266 2.50203 33.75C2.50203 35.4735 3.90359 36.875 5.62703 36.875H31.7388C32.9016 35.5918 35.008 36.4211 35.0106 38.1235Z" fill="#6D3DF8"/>
</g>
<defs>
<clipPath id="clip0">
<rect width="40" height="40" fill="white"/>
</clipPath>
</defs>
</svg>
