<svg width="40" height="40" viewBox="0 0 40 40" fill="none" xmlns="http://www.w3.org/2000/svg">
<g clip-path="url(#clip0)">
<g clip-path="url(#clip1)">
<path d="M24 9C19.1674 9 15.25 12.9174 15.25 17.75C15.25 21.6569 20.9688 28.7778 23.1597 31.3625C23.6035 31.8861 24.3972 31.8861 24.8403 31.3625C27.0313 28.7778 32.75 21.6569 32.75 17.75C32.75 12.9174 28.8326 9 24 9ZM5.39722 23.9965C4.98485 24.1615 4.63134 24.4462 4.3823 24.8139C4.13326 25.1817 4.0001 25.6156 4 26.0597V43.4431C4 44.2292 4.79375 44.7667 5.52361 44.475L15.1111 40.1111V23.925C14.4972 22.8153 13.9951 21.7347 13.6354 20.7014L5.39722 23.9965ZM24 33.9771C23.0229 33.9771 22.0986 33.5479 21.4646 32.7993C20.0993 31.1882 18.6472 29.3535 17.3333 27.4715V40.1104L30.6667 44.5549V27.4722C29.3528 29.3535 27.9014 31.1889 26.5354 32.8C25.9014 33.5479 24.9771 33.9771 24 33.9771ZM42.4764 20.1917L32.8889 24.5556V44.5556L42.6028 40.6701C43.0152 40.5053 43.3688 40.2206 43.6178 39.8528C43.8669 39.4851 44 39.0511 44 38.6069V21.2236C44 20.4375 43.2063 19.9 42.4764 20.1917Z" fill="#6D3DF8"/>
</g>
</g>
<defs>
<clipPath id="clip0">
<rect width="40" height="40" fill="white"/>
</clipPath>
<clipPath id="clip1">
<rect width="40" height="35.5556" fill="white" transform="translate(4 9)"/>
</clipPath>
</defs>
</svg>
