<svg width="40" height="40" viewBox="0 0 40 40" fill="none" xmlns="http://www.w3.org/2000/svg">
<g clip-path="url(#clip0)">
<path d="M28.7821 36.1777C28.5465 35.8161 28.0625 35.7138 27.701 35.9494C25.2021 37.5771 22.2973 38.4375 19.301 38.4375C10.8031 38.4375 3.8895 31.524 3.8895 23.0261C3.8895 19.9402 4.79801 16.963 6.517 14.416C6.7584 14.0584 6.6641 13.5728 6.30645 13.3314C5.94887 13.09 5.46317 13.1843 5.22176 13.542C3.32809 16.348 2.327 19.6277 2.327 23.0262C2.327 27.5601 4.09262 31.8226 7.29856 35.0286C10.5045 38.2346 14.7671 40.0002 19.301 40.0002C22.6009 40.0002 25.8004 39.0522 28.5539 37.2587C28.9155 37.0233 29.0177 36.5392 28.7821 36.1777Z" fill="#6D3DF8"/>
<path d="M31.4068 33.8081C31.0987 33.506 30.6041 33.5109 30.3019 33.819L30.276 33.8453C29.972 34.1516 29.974 34.6463 30.2802 34.9502C30.4327 35.1014 30.6316 35.1769 30.8306 35.1769C31.0314 35.1769 31.2324 35.0998 31.3852 34.9459L31.4175 34.913C31.7197 34.6049 31.7149 34.1103 31.4068 33.8081Z" fill="#6D3DF8"/>
<path d="M34.5713 12.8038C34.7238 12.9564 34.9238 13.0327 35.1237 13.0327C35.3236 13.0327 35.5235 12.9563 35.6761 12.8038L36.9775 11.5024C37.9048 10.575 37.9048 9.06602 36.9775 8.13859L34.1884 5.34953C33.7392 4.90031 33.1418 4.65289 32.5066 4.65289C31.8712 4.65289 31.2739 4.90031 30.8247 5.34953L29.5233 6.65086C29.3768 6.79734 29.2945 6.99609 29.2945 7.20328C29.2945 7.41047 29.3768 7.60922 29.5233 7.7557L29.8927 8.12516L28.9567 9.06125C26.9716 7.6825 24.7267 6.75266 22.3482 6.32398V5.00023H24.067C24.4985 5.00023 24.8483 4.65047 24.8483 4.21898V0.78125C24.8483 0.349766 24.4985 0 24.067 0H14.5354C14.104 0 13.7542 0.349766 13.7542 0.78125V4.21891C13.7542 4.65039 14.104 5.00016 14.5354 5.00016H16.2542V6.32555C14.0181 6.73102 11.8843 7.58258 9.96829 8.84601C9.60806 9.08359 9.50861 9.56812 9.74611 9.92844C9.98376 10.2887 10.4684 10.3881 10.8285 10.1505C13.3443 8.49156 16.2742 7.61469 19.3013 7.61469C27.7992 7.61469 34.7127 14.5282 34.7127 23.0262C34.7127 25.908 33.9126 28.7181 32.3988 31.1525C32.1709 31.5189 32.2832 32.0006 32.6497 32.2286C32.7781 32.3084 32.9206 32.3465 33.0615 32.3465C33.3226 32.3465 33.5777 32.2157 33.7257 31.9777C35.3938 29.2953 36.2753 26.1999 36.2753 23.0262C36.2753 19.5252 35.2217 16.1866 33.2659 13.3707L34.202 12.4346L34.5713 12.8038ZM20.7856 6.11695C20.2946 6.07469 19.7997 6.05211 19.3011 6.05211C18.8035 6.05203 18.3084 6.07406 17.8167 6.1168V5.00023H20.7855V6.11695H20.7856ZM17.0355 3.43766H15.3167V1.56258H23.2857V3.43766H21.5669H17.0355ZM32.3073 12.1191C31.99 11.7422 31.656 11.3762 31.3034 11.0236C30.9509 10.6711 30.5849 10.3371 30.2079 10.0198L30.9975 9.23016L33.0968 11.3295L32.3073 12.1191ZM31.5501 7.57289C31.5499 7.57273 31.5498 7.57266 31.5496 7.5725L31.1806 7.20352L31.9296 6.45461C32.0838 6.30047 32.2886 6.21562 32.5066 6.21562C32.7245 6.21562 32.9294 6.30047 33.0835 6.45469L35.8726 9.24367C36.1907 9.5618 36.1907 10.0795 35.8726 10.3977L35.1237 11.1466L34.7554 10.7783C34.755 10.7779 34.7547 10.7775 34.7543 10.7771L31.5501 7.57289Z" fill="#6D3DF8"/>
<path d="M19.3015 11.9523C18.8701 11.9523 18.5203 12.302 18.5203 12.7335V14.4523C18.5203 14.8838 18.87 15.2336 19.3015 15.2336C19.7329 15.2336 20.0828 14.8838 20.0828 14.4523V12.7335C20.0828 12.302 19.7329 11.9523 19.3015 11.9523Z" fill="#6D3DF8"/>
<path d="M27.1313 15.1957C26.986 15.0504 26.7845 14.9668 26.5789 14.9668C26.3735 14.9668 26.1719 15.0504 26.0267 15.1957C25.8814 15.341 25.7977 15.5426 25.7977 15.748C25.7977 15.9543 25.8813 16.1551 26.0267 16.3004C26.1719 16.4457 26.3735 16.5293 26.5789 16.5293C26.7845 16.5293 26.986 16.4457 27.1313 16.3004C27.2766 16.1551 27.3602 15.9535 27.3602 15.748C27.3602 15.5426 27.2767 15.341 27.1313 15.1957Z" fill="#6D3DF8"/>
<path d="M29.5936 22.2446H27.8747C27.4433 22.2446 27.0935 22.5944 27.0935 23.0259C27.0935 23.4574 27.4433 23.8071 27.8747 23.8071H29.5936C30.025 23.8071 30.3748 23.4574 30.3748 23.0259C30.3748 22.5944 30.025 22.2446 29.5936 22.2446Z" fill="#6D3DF8"/>
<path d="M27.1313 29.7514C26.986 29.6061 26.7845 29.5225 26.5789 29.5225C26.3735 29.5225 26.1719 29.6061 26.0267 29.7514C25.8814 29.8967 25.7977 30.0982 25.7977 30.3037C25.7977 30.51 25.8813 30.7115 26.0267 30.8561C26.1719 31.0021 26.3735 31.085 26.5789 31.085C26.7845 31.085 26.986 31.0021 27.1313 30.8561C27.2766 30.7107 27.3602 30.51 27.3602 30.3037C27.3602 30.0982 27.2767 29.8975 27.1313 29.7514Z" fill="#6D3DF8"/>
<path d="M19.3015 30.8184C18.8701 30.8184 18.5203 31.1681 18.5203 31.5996V33.3184C18.5203 33.7499 18.8701 34.0997 19.3015 34.0997C19.7329 34.0997 20.0828 33.7499 20.0828 33.3184V31.5996C20.0828 31.1682 19.7329 30.8184 19.3015 30.8184Z" fill="#6D3DF8"/>
<path d="M12.5759 29.7514C12.4305 29.6061 12.229 29.5225 12.0235 29.5225C11.8181 29.5225 11.6165 29.6061 11.4713 29.7514C11.326 29.8967 11.2423 30.0982 11.2423 30.3037C11.2423 30.51 11.3259 30.7107 11.4713 30.8561C11.6165 31.0021 11.8181 31.085 12.0235 31.085C12.229 31.085 12.4306 31.0021 12.5759 30.8561C12.7212 30.7107 12.8048 30.51 12.8048 30.3037C12.8049 30.0982 12.7213 29.8967 12.5759 29.7514Z" fill="#6D3DF8"/>
<path d="M10.7274 22.2446H9.00862C8.57721 22.2446 8.22737 22.5944 8.22737 23.0259C8.22737 23.4574 8.57721 23.8071 9.00862 23.8071H10.7274C11.1589 23.8071 11.5087 23.4574 11.5087 23.0259C11.5088 22.5944 11.1589 22.2446 10.7274 22.2446Z" fill="#6D3DF8"/>
<path d="M12.5759 15.1957C12.4306 15.0504 12.229 14.9668 12.0235 14.9668C11.8181 14.9668 11.6165 15.0504 11.4713 15.1957C11.326 15.341 11.2423 15.5426 11.2423 15.748C11.2423 15.9535 11.3259 16.1551 11.4713 16.3004C11.6165 16.4457 11.8181 16.5293 12.0235 16.5293C12.229 16.5293 12.4306 16.4457 12.5759 16.3004C12.7212 16.1551 12.8048 15.9535 12.8048 15.748C12.8048 15.5426 12.7213 15.341 12.5759 15.1957Z" fill="#6D3DF8"/>
<path d="M25.4013 16.9258C25.1469 16.6715 24.7519 16.6237 24.4443 16.81L17.9952 20.7142C17.9254 20.7538 17.8278 20.8112 17.7617 20.8633C17.0866 21.3454 16.6451 22.1347 16.6451 23.0257C16.6451 24.4905 17.8368 25.6821 19.3014 25.6821C20.1889 25.6821 20.9757 25.2441 21.4583 24.5733C21.5161 24.5018 21.5699 24.408 21.6137 24.3308L25.5171 17.8829C25.7034 17.5753 25.6555 17.1802 25.4013 16.9258ZM20.2676 23.537L20.2031 23.6436C20.0057 23.9307 19.6753 24.1196 19.3014 24.1196C18.6983 24.1196 18.2076 23.629 18.2076 23.0258C18.2076 22.6518 18.3966 22.3212 18.6839 22.1239L18.7898 22.0597C18.9425 21.9785 19.1165 21.9321 19.3013 21.9321C19.9044 21.9321 20.3951 22.4227 20.3951 23.0259C20.3951 23.2104 20.3487 23.3843 20.2676 23.537ZM21.4885 21.5205C21.3045 21.254 21.0732 21.0228 20.8067 20.8388L22.5344 19.7929L21.4885 21.5205Z" fill="#6D3DF8"/>
<path d="M19.3011 9.49207C11.8383 9.49207 5.76694 15.5633 5.76694 23.0261C5.76694 30.4888 11.8383 36.5601 19.3011 36.5601C26.7639 36.5601 32.8351 30.4888 32.8351 23.0261C32.8351 15.5633 26.7638 9.49207 19.3011 9.49207ZM19.3011 34.9975C12.7 34.9975 7.32952 29.6272 7.32952 23.0261C7.32952 16.425 12.6999 11.0546 19.3011 11.0546C25.9022 11.0546 31.2726 16.425 31.2726 23.0261C31.2726 29.6272 25.9022 34.9975 19.3011 34.9975Z" fill="#6D3DF8"/>
<path d="M8.45112 10.9762C8.30573 10.8309 8.10424 10.7473 7.89877 10.7473C7.6933 10.7473 7.49174 10.8309 7.34651 10.9762C7.2012 11.1215 7.11752 11.3231 7.11752 11.5286C7.11752 11.7348 7.20112 11.9356 7.34651 12.0809C7.49174 12.2262 7.6933 12.3098 7.89877 12.3098C8.10424 12.3098 8.3058 12.2262 8.45112 12.0809C8.59643 11.9356 8.68002 11.734 8.68002 11.5286C8.68002 11.3232 8.59651 11.1216 8.45112 10.9762Z" fill="#6D3DF8"/>
</g>
<defs>
<clipPath id="clip0">
<rect width="40" height="40" fill="white"/>
</clipPath>
</defs>
</svg>
