<svg width="40" height="40" viewBox="0 0 40 40" fill="none" xmlns="http://www.w3.org/2000/svg">
<path d="M34.5944 18.4765C35.7657 17.6533 36.5414 16.2841 36.5414 14.7408C36.5414 12.2161 34.4994 10.1741 31.9747 10.1741C29.4499 10.1741 27.408 12.2161 27.408 14.7408C27.408 16.2841 28.1757 17.6533 29.355 18.4765C28.3498 18.8247 27.4317 19.3629 26.6561 20.0594C25.5877 19.1492 24.3292 18.4527 22.9521 18.0412C24.6221 17.0281 25.7459 15.184 25.7459 13.0867C25.7459 9.8892 23.1579 7.30115 19.9604 7.30115C16.763 7.30115 14.1749 9.89711 14.1749 13.0867C14.1749 15.184 15.2909 17.0281 16.9687 18.0412C15.6074 18.4527 14.3649 19.1413 13.3043 20.0356C12.5287 19.355 11.6264 18.8247 10.6371 18.4844C11.8085 17.6613 12.5841 16.292 12.5841 14.7487C12.5841 12.224 10.5421 10.182 8.01741 10.182C5.49268 10.182 3.45073 12.224 3.45073 14.7487C3.45073 16.292 4.21844 17.6613 5.3977 18.4844C2.25564 19.5687 0 22.5524 0 26.0586V26.5809C0 26.5968 0.015829 26.6126 0.0316581 26.6126H9.71112C9.65572 27.0479 9.62406 27.499 9.62406 27.9501V28.4883C9.62406 30.8152 11.5077 32.6989 13.8346 32.6989H26.1021C28.429 32.6989 30.3126 30.8152 30.3126 28.4883V27.9501C30.3126 27.499 30.281 27.0479 30.2256 26.6126H39.9683C39.9842 26.6126 40 26.5968 40 26.5809V26.0586C39.9842 22.5445 37.7364 19.5607 34.5944 18.4765ZM28.6743 14.7329C28.6743 12.9125 30.1543 11.4325 31.9747 11.4325C33.795 11.4325 35.275 12.9125 35.275 14.7329C35.275 16.5295 33.8267 17.9937 32.038 18.0332C32.0142 18.0332 31.9984 18.0332 31.9747 18.0332C31.9509 18.0332 31.9351 18.0332 31.9114 18.0332C30.1148 18.0016 28.6743 16.5374 28.6743 14.7329ZM15.4254 13.0867C15.4254 10.5936 17.4515 8.56747 19.9446 8.56747C22.4377 8.56747 24.4638 10.5936 24.4638 13.0867C24.4638 15.4927 22.5722 17.4634 20.2058 17.5979C20.1187 17.5979 20.0317 17.5979 19.9446 17.5979C19.8575 17.5979 19.7705 17.5979 19.6834 17.5979C17.317 17.4634 15.4254 15.4927 15.4254 13.0867ZM4.69331 14.7329C4.69331 12.9125 6.17333 11.4325 7.99367 11.4325C9.81401 11.4325 11.294 12.9125 11.294 14.7329C11.294 16.5295 9.84567 17.9937 8.05698 18.0332C8.03324 18.0332 8.01741 18.0332 7.99367 18.0332C7.96992 18.0332 7.9541 18.0332 7.93035 18.0332C6.14167 18.0016 4.69331 16.5374 4.69331 14.7329ZM9.93273 25.3383H1.28215C1.63831 21.9668 4.48753 19.3233 7.94618 19.2996C7.96201 19.2996 7.97784 19.2996 7.99367 19.2996C8.0095 19.2996 8.02533 19.2996 8.04115 19.2996C9.68738 19.3075 11.1911 19.9169 12.3546 20.9062C11.2149 22.1409 10.368 23.6605 9.93273 25.3383ZM29.0305 28.4883C29.0305 30.1108 27.7087 31.4325 26.0863 31.4325H13.8188C12.1963 31.4325 10.8746 30.1108 10.8746 28.4883V27.9501C10.8746 23.0352 14.8002 19.0146 19.6834 18.8722C19.7705 18.8801 19.8655 18.8801 19.9525 18.8801C20.0396 18.8801 20.1345 18.8801 20.2216 18.8722C25.1049 19.0146 29.0305 23.0352 29.0305 27.9501V28.4883ZM29.9723 25.3383C29.537 23.6684 28.706 22.1725 27.5742 20.9379C28.7455 19.9248 30.2651 19.3154 31.9272 19.2996C31.943 19.2996 31.9588 19.2996 31.9747 19.2996C31.9905 19.2996 32.0063 19.2996 32.0222 19.2996C35.4808 19.3233 38.33 21.9668 38.6862 25.3383H29.9723Z" fill="#6D3DF8"/>
</svg>
