<svg width="44" height="45" fill="none" xmlns="http://www.w3.org/2000/svg"><path d="M22.156 0h-.159a22.164 22.164 0 00-3.257.244l-.066.008C9.63 1.63 2.383 8.535.488 17.401c-.004.018-.01.036-.013.054-.06.29-.113.582-.163.875-.013.074-.028.148-.04.223-.039.246-.07.496-.1.745-.015.123-.034.244-.047.368-.023.214-.038.432-.054.648-.012.158-.027.316-.036.474-.012.197-.014.397-.02.594-.003.155-.013.308-.015.463l.002.076-.002.08c0 .07.007.137.008.206.003.39.016.778.04 1.163.01.131.017.262.028.393.034.426.078.85.136 1.27l.013.112c.067.463.152.92.246 1.374.021.101.045.2.068.301.085.381.18.759.286 1.133l.064.234c.135.455.28.903.441 1.343l.023.062c.155.418.324.83.502 1.235.03.067.059.135.09.202.388.859.828 1.69 1.32 2.487l.027.048c0 .024.006.049.005.074.027.041.055.08.078.124l.071.04a22.138 22.138 0 002.49 3.207l.018.02c.918.98 1.926 1.88 3.01 2.68l.049.035c.333.244.674.48 1.022.706l.118.077c.744.477 1.516.914 2.318 1.3l.045.021c.365.175.734.338 1.11.493l.252.102c.327.13.66.253.993.369.08.028.16.057.243.084.816.27 1.652.492 2.506.665a22.825 22.825 0 001.29.22c.13.017.26.036.39.052.345.042.691.075 1.04.102.09.007.18.017.272.022.408.026.82.042 1.233.045l.159.001c12.043 0 21.91-9.799 21.995-21.844C44.084 10.025 34.286.087 22.156 0zm-2.09 42.5a20.594 20.594 0 01-.907-.107l-.119-.016a21.153 21.153 0 01-.895-.15 19.848 19.848 0 01-.997-.216l-.107-.025a19.75 19.75 0 01-.874-.238l-.096-.028a20.79 20.79 0 01-.863-.282l-.089-.03c-.286-.103-.57-.21-.85-.325l-.08-.032c-.283-.116-.562-.24-.838-.368-.023-.01-.047-.02-.07-.032-.279-.13-.553-.267-.823-.41l-.06-.03a21.419 21.419 0 01-.808-.452l-.053-.031a19.776 19.776 0 01-.788-.491l-.048-.03a21.624 21.624 0 01-.766-.531l-.04-.029a21.12 21.12 0 01-.743-.568l-.036-.029a21.608 21.608 0 01-.716-.603l-.035-.03a20.446 20.446 0 01-.685-.636l-.036-.033c-.221-.216-.44-.438-.652-.664-.013-.013-.023-.026-.036-.038-.21-.225-.416-.456-.616-.69l-.02-.024a36.08 36.08 0 009.201 2.947 28.99 28.99 0 004.582 4.224.749.749 0 01-.038-.003zM4.41 32.695a20.4 20.4 0 01-1.098-2.05c-.02-.042-.037-.083-.055-.125a19.555 19.555 0 01-.404-.949l-.074-.19c-.122-.318-.238-.639-.344-.965l-.045-.136a20.477 20.477 0 01-.928-4.835c0-.006 0-.013-.002-.02a34.36 34.36 0 008.571 4.541c.787 3.075 2.177 5.979 4.114 8.603a34.536 34.536 0 01-9.697-3.813 1.108 1.108 0 00-.038-.06zm-2.6-14.74c.049-.237.102-.47.157-.704.02-.083.038-.167.058-.248.051-.202.107-.402.163-.6.033-.115.065-.23.1-.345a19.23 19.23 0 01.472-1.38c.017-.05.039-.096.057-.144a32.091 32.091 0 006.757 3.745c-.19 1.222-.3 2.463-.3 3.722 0 1.467.142 2.912.4 4.328a32.843 32.843 0 01-8.26-4.701c.022-1.23.154-2.433.383-3.602.005-.024.008-.048.014-.072zm1.643-4.884c.198-.41.414-.811.638-1.205a20.924 20.924 0 01.966-1.54c.117-.172.24-.34.362-.505.243-.33.492-.654.754-.967.137-.166.28-.324.421-.484.21-.236.423-.466.643-.691.1-.104.2-.21.302-.31 1.555 1 3.231 1.842 5.002 2.506a24.421 24.421 0 00-2.706 6.995 30.658 30.658 0 01-6.448-3.656c.023-.048.043-.096.066-.143zm5.381-6.879c.266-.22.535-.437.813-.645.16-.12.323-.236.486-.351.237-.169.477-.332.722-.491.143-.092.286-.186.43-.274.348-.213.7-.416 1.06-.608.125-.066.252-.129.377-.193.326-.165.656-.322.99-.47.087-.04.173-.08.26-.117a20.909 20.909 0 014.436-1.317l.137-.024a20.373 20.373 0 011.56-.206c-2.77 2.056-5.06 4.475-6.81 7.15A24.867 24.867 0 018.62 6.378l.214-.185zM22.73 16.37c2.79.36 4.953 2.745 4.953 5.63 0 2.886-2.163 5.271-4.953 5.632V16.369zm-6.477 20.607c-2.136-2.548-3.69-5.414-4.608-8.47a35.304 35.304 0 009.654 1.525v7.404a35.432 35.432 0 01-5.046-.459zm5.046 1.863v2.785a28.37 28.37 0 01-3.55-3.02c1.166.134 2.35.213 3.55.235zM11.223 26.89A22.569 22.569 0 0110.679 22c0-1.084.083-2.155.235-3.211a32.999 32.999 0 0010.384 1.888v7.95a33.862 33.862 0 01-10.075-1.737zm-.065-9.504a23.049 23.049 0 012.746-7.039 27.007 27.007 0 007.394 1.222v7.705a31.587 31.587 0 01-10.14-1.888zm3.527-8.274c1.706-2.527 3.93-4.806 6.612-6.737v7.776a25.62 25.62 0 01-6.613-1.039zm8.044 19.938c3.566-.366 6.358-3.388 6.358-7.05 0-3.66-2.792-6.682-6.358-7.048V8.888C29.642 9.27 35.153 14.994 35.153 22s-5.511 12.73-12.424 13.112v-6.063zm0 13.528v-6.064C30.416 36.129 36.557 29.78 36.557 22c0-7.781-6.141-14.132-13.828-14.515V1.423c11.085.39 19.944 9.562 19.866 20.723-.078 11.032-8.923 20.046-19.866 20.43z" fill="#fff"/></svg>