<svg width="24" height="24" viewBox="0 0 24 24" fill="none" xmlns="http://www.w3.org/2000/svg">
<path d="M12 0C5.3736 0 0 5.3736 0 12C0 18.6264 5.3736 24 12 24C18.6264 24 24 18.6264 24 12C24 5.3736 18.6264 0 12 0ZM18.8491 14.8409C18.8157 15.5744 18.6991 16.0752 18.5288 16.5135C18.1708 17.4391 17.4391 18.1708 16.5135 18.5288C16.0754 18.6991 15.5744 18.8156 14.8411 18.8491C14.1063 18.8826 13.8715 18.8906 12.0002 18.8906C10.1287 18.8906 9.8941 18.8826 9.15912 18.8491C8.42578 18.8156 7.9248 18.6991 7.48663 18.5288C7.02667 18.3558 6.61029 18.0846 6.26605 17.7339C5.91559 17.3899 5.64441 16.9733 5.47137 16.5135C5.30109 16.0754 5.18445 15.5744 5.15112 14.8411C5.11725 14.1061 5.10938 13.8713 5.10938 12C5.10938 10.1287 5.11725 9.89392 5.15094 9.15912C5.18427 8.4256 5.30072 7.9248 5.47101 7.48645C5.64404 7.02667 5.91541 6.61011 6.26605 6.26605C6.61011 5.91541 7.02667 5.64423 7.48645 5.47119C7.9248 5.3009 8.4256 5.18445 9.15912 5.15094C9.89392 5.11743 10.1287 5.10938 12 5.10938C13.8713 5.10938 14.1061 5.11743 14.8409 5.15112C15.5744 5.18445 16.0752 5.3009 16.5135 5.47101C16.9733 5.64404 17.3899 5.91541 17.7341 6.26605C18.0846 6.61029 18.356 7.02667 18.5288 7.48645C18.6993 7.9248 18.8157 8.4256 18.8492 9.15912C18.8828 9.89392 18.8906 10.1287 18.8906 12C18.8906 13.8713 18.8828 14.1061 18.8491 14.8409Z" fill="#757575"/>
<path fill-rule="evenodd" clip-rule="evenodd" d="M12 15.5383C10.0457 15.5383 8.46149 13.9543 8.46149 12C8.46149 10.0457 10.0457 8.46167 12 8.46167C13.9541 8.46167 15.5383 10.0457 15.5383 12C15.5383 13.9543 13.9541 15.5383 12 15.5383ZM12 14.2969C13.2686 14.2969 14.2969 13.2686 14.2969 12C14.2969 10.7314 13.2686 9.70312 12 9.70312C10.7314 9.70312 9.70312 10.7314 9.70312 12C9.70312 13.2686 10.7314 14.2969 12 14.2969Z" fill="#757575"/>
<path d="M15.6782 9.14868C15.2216 9.14868 14.8513 8.77844 14.8513 8.32178C14.8513 7.86511 15.2216 7.49487 15.6782 7.49487C16.1349 7.49487 16.5051 7.86511 16.5051 8.32178C16.5049 8.77844 16.1349 9.14868 15.6782 9.14868Z" fill="#757575"/>
</svg>
