<svg width="166" height="44" viewBox="0 0 166 44" fill="none" xmlns="http://www.w3.org/2000/svg">
<g clip-path="url(#clip0)" filter="url(#filter0_d)">
<path d="M29.4766 6.30066C27.1552 6.30066 24.9652 7.20267 23.3008 8.79193L20.0597 11.9705C18.5267 10.8107 16.6871 10.2094 14.7161 10.2094C12.3947 10.2094 10.2047 11.1114 8.54031 12.7007C5.12393 16.051 5.12393 21.4631 8.54031 24.8134L16.1615 32.2872L20.1035 36.153L24.0454 32.2872L35.6524 20.9047C37.3168 19.2725 38.1928 17.1248 38.1928 14.8483C38.1928 12.5718 37.273 10.4241 35.6524 8.79193C33.988 7.20267 31.798 6.30066 29.4766 6.30066ZM31.7104 17.0819L20.1035 28.4215L12.4823 20.9476C11.2559 19.745 11.2559 17.7691 12.4823 16.5664C13.7087 15.3637 15.7235 15.3637 16.9499 16.5664L20.1035 19.659L27.199 12.7007C28.4254 11.498 30.4402 11.498 31.6666 12.7007C32.9368 13.9033 32.9368 15.8792 31.7104 17.0819Z" fill="white"/>
<path d="M98.7678 20.0886C97.0158 20.0886 95.6143 21.4631 95.6143 23.1812C95.6143 24.8994 97.0158 26.2739 98.7678 26.2739C100.52 26.2739 101.921 24.8994 101.921 23.1812C101.921 21.5061 100.52 20.0886 98.7678 20.0886Z" fill="white"/>
<path d="M76.9116 20.0886C75.1596 20.0886 73.7581 21.4631 73.7581 23.1812C73.7581 24.8994 75.1596 26.2739 76.9116 26.2739C78.6636 26.2739 80.0652 24.8994 80.0652 23.1812C80.0652 21.5061 78.6636 20.0886 76.9116 20.0886Z" fill="white"/>
<path d="M120.624 20.0886C118.872 20.0886 117.47 21.4631 117.47 23.1812C117.47 24.8994 118.872 26.2739 120.624 26.2739C122.376 26.2739 123.777 24.8994 123.777 23.1812C123.777 21.5061 122.376 20.0886 120.624 20.0886Z" fill="white"/>
<path d="M157.547 23.4389C157.547 23.353 157.547 23.3101 157.547 23.2242C157.547 15.0631 150.802 8.44832 142.48 8.44832C138.188 8.44832 134.289 10.2094 131.574 13.0443C128.814 10.2094 124.96 8.44832 120.668 8.44832C120.58 8.44832 120.536 8.44832 120.449 8.44832C118.872 6.94497 116.726 6 114.36 6C111.032 6 108.097 7.84698 106.652 10.553C104.374 9.17852 101.702 8.40537 98.8554 8.40537C94.563 8.40537 90.6648 10.1664 87.9492 13.0013C85.1898 10.1664 81.3354 8.40537 77.0431 8.40537C75.0283 8.40537 73.1011 8.79195 71.3053 9.52215C69.7285 7.3745 67.1443 6 64.2535 6H51.5954C46.7774 6 42.8354 9.86577 42.8354 14.5906C42.8354 18.4993 45.5072 21.8067 49.1426 22.8376V29.4523C49.1426 34.1772 53.0846 38.043 57.9026 38.043C61.4066 38.043 64.4287 36.0242 65.8303 33.1034C68.5897 36.1101 72.5755 38 77.0431 38C81.3354 38 85.2336 36.2389 87.9492 33.404C90.7086 36.2389 94.563 38 98.8554 38C103.148 38 107.046 36.2389 109.761 33.404C112.521 36.2389 116.375 38 120.668 38C124.96 38 128.858 36.2389 131.574 33.404C134.333 36.2389 138.188 38 142.48 38C142.48 38 142.48 38 142.524 38C142.524 38 142.524 38 142.568 38H151.327C156.145 38 160.087 34.1342 160.087 29.4094C160 27.0899 159.08 24.9852 157.547 23.4389ZM64.1221 17.6832H60.9248C60.9248 17.8121 60.9248 17.898 60.9248 18.0268V29.4523C60.9248 31.1705 59.5232 32.545 57.7712 32.545C56.0192 32.545 54.6176 31.1705 54.6176 29.4523V17.9839C54.6176 17.855 54.6176 17.7691 54.6176 17.6403H51.4202C49.6682 17.6403 48.2666 16.2658 48.2666 14.5477C48.2666 12.8295 49.6682 11.455 51.4202 11.455H64.0783C65.8303 11.455 67.2319 12.8295 67.2319 14.5477C67.2319 16.2658 65.8741 17.6832 64.1221 17.6832ZM76.9117 32.502C71.6557 32.502 67.4071 28.3356 67.4071 23.1812C67.4071 18.0268 71.6557 13.8604 76.9117 13.8604C82.1676 13.8604 86.4162 18.0268 86.4162 23.1812C86.4162 28.3356 82.1676 32.502 76.9117 32.502ZM98.7678 32.502C93.5118 32.502 89.2632 28.3356 89.2632 23.1812C89.2632 18.0268 93.5118 13.8604 98.7678 13.8604C104.024 13.8604 108.272 18.0268 108.272 23.1812C108.272 28.3356 104.024 32.502 98.7678 32.502ZM120.624 32.502C115.368 32.502 111.119 28.3356 111.119 23.1812V23.1383V14.5906C111.119 12.8725 112.521 11.498 114.273 11.498C115.981 11.498 117.339 12.8295 117.426 14.4617C118.434 14.1181 119.485 13.9463 120.58 13.9463C125.836 13.9463 130.085 18.1128 130.085 23.2671C130.085 28.3356 125.836 32.502 120.624 32.502ZM151.284 32.502H142.524H142.48C137.224 32.502 132.975 28.3356 132.975 23.1812C132.975 18.0268 137.224 13.8604 142.48 13.8604C147.736 13.8604 151.984 18.0268 151.984 23.1812C151.984 24.255 151.809 25.3289 151.459 26.2738C153.123 26.3597 154.481 27.6913 154.481 29.3664C154.437 31.1275 153.036 32.502 151.284 32.502Z" fill="white"/>
<path d="M142.48 20.0886C140.728 20.0886 139.326 21.4631 139.326 23.1812C139.326 24.8994 140.728 26.2739 142.48 26.2739C144.232 26.2739 145.634 24.8994 145.634 23.1812C145.634 21.5061 144.232 20.0886 142.48 20.0886Z" fill="white"/>
</g>
<defs>
<filter id="filter0_d" x="0" y="0" width="166" height="44" filterUnits="userSpaceOnUse" color-interpolation-filters="sRGB">
<feFlood flood-opacity="0" result="BackgroundImageFix"/>
<feColorMatrix in="SourceAlpha" type="matrix" values="0 0 0 0 0 0 0 0 0 0 0 0 0 0 0 0 0 0 127 0"/>
<feOffset/>
<feGaussianBlur stdDeviation="3"/>
<feColorMatrix type="matrix" values="0 0 0 0 0 0 0 0 0 0 0 0 0 0 0 0 0 0 0.48 0"/>
<feBlend mode="normal" in2="BackgroundImageFix" result="effect1_dropShadow"/>
<feBlend mode="normal" in="SourceGraphic" in2="effect1_dropShadow" result="shape"/>
</filter>
<clipPath id="clip0">
<rect width="154" height="32" fill="white" transform="translate(6 6)"/>
</clipPath>
</defs>
</svg>
