<svg width="168" height="56" fill="none" xmlns="http://www.w3.org/2000/svg"><g clip-path="url(#clip0)"><path d="M154.622 0H13.386c-.515 0-1.023 0-1.537.003-.43.003-.856.01-1.29.018-.943.01-1.883.093-2.813.247a9.376 9.376 0 00-2.67.878 9.037 9.037 0 00-3.926 3.92A9.224 9.224 0 00.273 7.73a18.14 18.14 0 00-.252 2.803c-.013.43-.014.86-.021 1.29v32.36c.007.434.008.855.021 1.29.011.94.096 1.876.252 2.802.154.928.45 1.828.877 2.666.426.838.984 1.601 1.654 2.26a8.808 8.808 0 002.273 1.65c.84.427 1.74.724 2.669.884.93.152 1.87.235 2.813.247.434.01.86.015 1.29.015.514.003 1.022.003 1.537.003h141.236c.504 0 1.017 0 1.521-.003.428 0 .867-.005 1.295-.015a18.705 18.705 0 002.808-.247 9.575 9.575 0 002.678-.883 8.813 8.813 0 002.271-1.65 8.974 8.974 0 001.659-2.26 9.22 9.22 0 00.869-2.667 18.81 18.81 0 00.261-2.802c.005-.435.005-.856.005-1.29.011-.51.011-1.015.011-1.532v-29.3c0-.513 0-1.022-.011-1.529 0-.43 0-.86-.005-1.29a18.813 18.813 0 00-.261-2.802 9.275 9.275 0 00-.869-2.665 9.066 9.066 0 00-3.93-3.92 9.52 9.52 0 00-2.678-.877 18.373 18.373 0 00-2.808-.248c-.428-.006-.867-.015-1.295-.017C155.639 0 155.126 0 154.622 0z" fill="#A6A6A6"/><path d="M11.856 54.775c-.428 0-.845-.005-1.27-.015a17.87 17.87 0 01-2.624-.228 8.279 8.279 0 01-2.326-.767 7.589 7.589 0 01-1.961-1.424 7.452 7.452 0 01-1.433-1.955 7.996 7.996 0 01-.762-2.32 17.333 17.333 0 01-.234-2.625c-.009-.295-.02-1.278-.02-1.278v-32.34s.012-.969.02-1.253c.01-.879.089-1.755.233-2.621.134-.81.39-1.595.763-2.327a7.524 7.524 0 011.425-1.957 7.813 7.813 0 011.969-1.432 8.191 8.191 0 012.32-.761c.871-.142 1.752-.219 2.634-.23l1.267-.017h144.279l1.282.018c.875.01 1.747.086 2.609.227a8.348 8.348 0 012.346.767 7.844 7.844 0 013.391 3.388c.366.728.619 1.506.751 2.309.146.873.227 1.756.244 2.642.004.396.004.822.004 1.246.011.525.011 1.025.011 1.529v29.3c0 .508 0 1.005-.011 1.505 0 .455 0 .872-.005 1.302-.017.87-.097 1.736-.24 2.595a8.032 8.032 0 01-.758 2.338 7.689 7.689 0 01-1.426 1.94 7.603 7.603 0 01-1.965 1.43 8.244 8.244 0 01-2.342.77c-.867.142-1.745.218-2.624.229-.411.01-.842.015-1.26.015l-1.522.003-142.765-.003z" fill="#000"/><path d="M34.774 28.421a6.913 6.913 0 01.904-3.33 6.938 6.938 0 012.404-2.483 7.106 7.106 0 00-5.603-3.02c-2.358-.247-4.643 1.406-5.845 1.406-1.224 0-3.074-1.382-5.066-1.341a7.477 7.477 0 00-3.644 1.084 7.45 7.45 0 00-2.635 2.735c-2.716 4.688-.69 11.577 1.91 15.366 1.302 1.856 2.823 3.928 4.813 3.855 1.947-.08 2.674-1.238 5.025-1.238 2.329 0 3.011 1.238 5.042 1.191 2.09-.034 3.406-1.864 4.661-3.737a15.329 15.329 0 002.132-4.33 6.709 6.709 0 01-2.979-2.463 6.682 6.682 0 01-1.12-3.695zM30.939 17.095a6.809 6.809 0 001.564-4.887A6.967 6.967 0 0028 14.532a6.49 6.49 0 00-1.606 4.706 5.769 5.769 0 004.545-2.143zM59.39 37.995h-6.646l-1.596 4.7h-2.815l6.295-17.386h2.924l6.294 17.385h-2.862l-1.595-4.699zm-5.958-2.168H58.7l-2.597-7.626h-.073l-2.598 7.626zM77.44 36.358c0 3.938-2.114 6.47-5.304 6.47a4.32 4.32 0 01-4-2.219h-.06v6.279h-2.609V30.019h2.526v2.108h.047a4.504 4.504 0 014.048-2.24c3.226 0 5.352 2.543 5.352 6.47zm-2.681 0c0-2.567-1.33-4.254-3.36-4.254-1.993 0-3.334 1.723-3.334 4.254 0 2.553 1.341 4.264 3.335 4.264 2.029 0 3.358-1.675 3.358-4.264zM91.43 36.358c0 3.939-2.114 6.47-5.305 6.47a4.32 4.32 0 01-3.999-2.218h-.06v6.278h-2.61V30.019h2.526v2.108h.048a4.52 4.52 0 014.047-2.24c3.227 0 5.353 2.543 5.353 6.47zm-2.682 0c0-2.567-1.33-4.254-3.359-4.254-1.993 0-3.334 1.723-3.334 4.254 0 2.553 1.34 4.264 3.334 4.264 2.03 0 3.36-1.675 3.36-4.264zM100.676 37.85c.193 1.725 1.873 2.856 4.168 2.856 2.199 0 3.781-1.132 3.781-2.686 0-1.35-.954-2.157-3.213-2.711l-2.26-.543c-3.201-.771-4.687-2.264-4.687-4.687 0-3 2.621-5.06 6.343-5.06 3.684 0 6.21 2.06 6.295 5.06h-2.634c-.158-1.735-1.596-2.782-3.698-2.782-2.101 0-3.54 1.06-3.54 2.602 0 1.229.919 1.952 3.166 2.506l1.921.47c3.577.844 5.063 2.277 5.063 4.82 0 3.252-2.598 5.29-6.73 5.29-3.867 0-6.477-1.99-6.646-5.135h2.671zM117.012 27.02v3h2.417v2.06h-2.417v6.987c0 1.086.484 1.592 1.547 1.592a8.2 8.2 0 00.858-.06v2.048c-.478.089-.963.129-1.449.12-2.574 0-3.577-.964-3.577-3.422V32.08h-1.849v-2.06h1.849v-3h2.621zM120.829 36.358c0-3.988 2.356-6.495 6.029-6.495 3.685 0 6.029 2.506 6.029 6.495 0 3.999-2.332 6.494-6.029 6.494s-6.029-2.495-6.029-6.494zm9.4 0c0-2.736-1.257-4.35-3.372-4.35-2.114 0-3.369 1.626-3.369 4.35 0 2.746 1.255 4.349 3.369 4.349 2.115 0 3.372-1.603 3.372-4.35zM135.038 30.02h2.489v2.157h.06a3.02 3.02 0 011.121-1.687 3.038 3.038 0 011.936-.603c.301-.001.601.031.894.097v2.433a3.65 3.65 0 00-1.172-.157 2.637 2.637 0 00-2.032.834 2.631 2.631 0 00-.687 2.082v7.518h-2.609V30.02zM153.568 38.972c-.351 2.3-2.598 3.88-5.473 3.88-3.698 0-5.993-2.47-5.993-6.434 0-3.976 2.307-6.555 5.883-6.555 3.517 0 5.728 2.41 5.728 6.252v.892h-8.977v.157a3.294 3.294 0 002.047 3.348c.435.177.903.26 1.372.242a2.883 2.883 0 001.764-.406c.529-.32.94-.804 1.171-1.376h2.478zm-8.82-3.783h6.355a3.048 3.048 0 00-1.889-2.989 3.063 3.063 0 00-1.229-.228 3.225 3.225 0 00-2.993 1.982 3.21 3.21 0 00-.244 1.235zM53.105 12.223a3.716 3.716 0 012.957 1.145 3.692 3.692 0 01.985 3.006c0 2.669-1.446 4.203-3.942 4.203H50.08v-8.354h3.025zm-1.724 7.172h1.58a2.641 2.641 0 002.097-.846 2.623 2.623 0 00.665-2.158 2.625 2.625 0 00-.675-2.143 2.64 2.64 0 00-2.088-.844h-1.58v5.991zM58.517 17.422a2.979 2.979 0 01.765-2.293 2.995 2.995 0 012.216-.978 3.002 3.002 0 012.216.978 2.986 2.986 0 01.765 2.293 2.98 2.98 0 01-.763 2.297 2.995 2.995 0 01-2.218.98 3.001 3.001 0 01-2.843-2.048 2.98 2.98 0 01-.138-1.229zm4.68 0c0-1.366-.617-2.166-1.697-2.166-1.084 0-1.694.8-1.694 2.166 0 1.377.61 2.17 1.694 2.17 1.08 0 1.696-.798 1.696-2.17zM72.405 20.577h-1.294l-1.307-4.643h-.098l-1.301 4.643h-1.282l-1.743-6.304h1.266l1.132 4.81h.093l1.3-4.81h1.197l1.3 4.81h.098l1.127-4.81h1.248l-1.736 6.304zM75.607 14.273h1.2v1.001h.094a1.89 1.89 0 011.886-1.123 2.061 2.061 0 011.66.648 2.049 2.049 0 01.529 1.697v4.08h-1.248v-3.768c0-1.013-.441-1.517-1.364-1.517a1.455 1.455 0 00-1.442.983c-.067.198-.09.407-.068.615v3.688h-1.247v-6.304zM82.964 11.812h1.247v8.765h-1.247v-8.765zM85.946 17.422a2.98 2.98 0 011.77-3.016 3.003 3.003 0 013.428.723 2.986 2.986 0 01.765 2.293 2.981 2.981 0 01-1.769 3.02 3.002 3.002 0 01-4.056-1.791 2.981 2.981 0 01-.138-1.229zm4.679 0c0-1.367-.616-2.166-1.696-2.166-1.084 0-1.695.8-1.695 2.166 0 1.377.61 2.17 1.695 2.17 1.08 0 1.696-.798 1.696-2.17zM93.222 18.794c0-1.135.848-1.789 2.352-1.882l1.712-.098v-.544c0-.666-.441-1.042-1.294-1.042-.697 0-1.18.255-1.318.7h-1.208c.128-1.083 1.15-1.777 2.584-1.777 1.584 0 2.478.787 2.478 2.119v4.307h-1.2v-.886h-.1a2.124 2.124 0 01-1.898.99 1.915 1.915 0 01-1.94-1.115 1.9 1.9 0 01-.168-.772zm4.064-.539v-.527l-1.544.099c-.87.058-1.265.353-1.265.909 0 .567.493.897 1.172.897a1.492 1.492 0 001.637-1.378zM100.168 17.422c0-1.992 1.027-3.254 2.624-3.254a2.092 2.092 0 011.939 1.106h.093v-3.462h1.248v8.765h-1.196v-.996h-.099a2.19 2.19 0 01-1.985 1.1c-1.608 0-2.624-1.262-2.624-3.259zm1.289 0c0 1.337.632 2.142 1.689 2.142 1.051 0 1.701-.817 1.701-2.137 0-1.313-.656-2.141-1.701-2.141-1.05 0-1.689.81-1.689 2.136zM111.234 17.422a2.97 2.97 0 01.765-2.293 3.005 3.005 0 014.432 0 2.986 2.986 0 01.765 2.293 2.975 2.975 0 01-.763 2.297 2.996 2.996 0 01-3.431.724 2.986 2.986 0 01-1.768-3.02zm4.679 0c0-1.366-.616-2.166-1.696-2.166-1.085 0-1.695.8-1.695 2.166 0 1.377.61 2.17 1.695 2.17 1.08 0 1.696-.798 1.696-2.17zM118.87 14.273h1.201v1.001h.093a1.894 1.894 0 011.887-1.123 2.063 2.063 0 011.659.648c.21.225.367.494.459.788.091.294.115.604.07.909v4.08h-1.248v-3.768c0-1.013-.441-1.517-1.364-1.517a1.454 1.454 0 00-1.442.983 1.456 1.456 0 00-.067.615v3.688h-1.248v-6.304zM131.289 12.703v1.599h1.37v1.047h-1.37v3.242c0 .66.273.95.894.95.159-.001.318-.01.476-.03v1.037c-.224.04-.451.061-.679.064-1.388 0-1.94-.487-1.94-1.702v-3.56h-1.004V14.3h1.004v-1.598h1.249zM134.363 11.812h1.236v3.474h.099a1.942 1.942 0 011.928-1.13 2.088 2.088 0 012.099 1.448c.092.292.119.6.078.903v4.07h-1.249v-3.763c0-1.007-.47-1.517-1.352-1.517a1.482 1.482 0 00-1.168.43 1.466 1.466 0 00-.424 1.168v3.682h-1.247v-8.765zM147.078 18.875a2.562 2.562 0 01-2.74 1.823 2.881 2.881 0 01-2.215-.952 2.865 2.865 0 01-.705-2.301 2.913 2.913 0 01.704-2.31 2.915 2.915 0 012.211-.984c1.759 0 2.82 1.198 2.82 3.178v.434h-4.464v.07a1.654 1.654 0 00.441 1.274 1.677 1.677 0 001.243.532 1.517 1.517 0 001.504-.764h1.201zm-4.389-2.032h3.193a1.519 1.519 0 00-1.556-1.633 1.622 1.622 0 00-1.518 1.005 1.61 1.61 0 00-.119.628z" fill="#fff"/></g><defs><clipPath id="clip0"><path fill="#fff" d="M0 0h168v56H0z"/></clipPath></defs></svg>