<svg width="190" height="56" fill="none" xmlns="http://www.w3.org/2000/svg"><g clip-path="url(#clip0)"><path d="M183.047 56H7.04C3.168 56 0 52.85 0 49V7c0-3.85 3.168-7 7.04-7h176.007c3.872 0 7.04 3.15 7.04 7v42c0 3.85-3.168 7-7.04 7z" fill="#000"/><path d="M66.747 14.336c0 1.173-.349 2.107-1.048 2.803-.795.828-1.83 1.243-3.103 1.243-1.22 0-2.256-.42-3.108-1.26-.854-.841-1.28-1.883-1.28-3.126 0-1.244.426-2.286 1.28-3.126.852-.84 1.889-1.26 3.108-1.26.605 0 1.184.117 1.733.351.55.235.992.547 1.322.938l-.743.74c-.56-.665-1.33-.997-2.312-.997-.89 0-1.658.31-2.307.932-.649.622-.973 1.429-.973 2.422 0 .993.324 1.8.973 2.422a3.22 3.22 0 002.307.932c.943 0 1.73-.312 2.359-.938.408-.407.645-.974.707-1.7h-3.066v-1.01h4.092c.04.22.06.43.06.634z" fill="#fff"/><path clip-rule="evenodd" d="M66.747 14.336c0 1.173-.349 2.107-1.048 2.803-.795.828-1.83 1.243-3.103 1.243-1.22 0-2.256-.42-3.108-1.26-.854-.841-1.28-1.883-1.28-3.126 0-1.244.426-2.286 1.28-3.126.852-.84 1.889-1.26 3.108-1.26.605 0 1.184.117 1.733.351.55.235.992.547 1.322.938l-.743.74c-.56-.665-1.33-.997-2.312-.997-.89 0-1.658.31-2.307.932-.649.622-.973 1.429-.973 2.422 0 .993.324 1.8.973 2.422a3.22 3.22 0 002.307.932c.943 0 1.73-.312 2.359-.938.408-.407.645-.974.707-1.7h-3.066v-1.01h4.092c.04.22.06.43.06.634z" stroke="#fff" stroke-width=".575"/><path d="M73.236 10.83h-3.847v2.662h3.469V14.5h-3.469v2.663h3.847v1.032h-4.931V9.797h4.93v1.032z" fill="#fff"/><path clip-rule="evenodd" d="M73.236 10.83h-3.847v2.662h3.469V14.5h-3.469v2.663h3.847v1.032h-4.931V9.797h4.93v1.032z" stroke="#fff" stroke-width=".575"/><path d="M77.812 18.195h-1.086v-7.366h-2.36V9.797h5.805v1.032h-2.36v7.366z" fill="#fff"/><path clip-rule="evenodd" d="M77.812 18.195h-1.086v-7.366h-2.36V9.797h5.805v1.032h-2.36v7.366z" stroke="#fff" stroke-width=".575"/><path d="M84.37 9.797h1.084v8.398H84.37V9.797z" fill="#fff" stroke="#fff" stroke-width=".575"/><path d="M90.269 18.195h-1.086v-7.366h-2.359V9.797h5.804v1.032h-2.36v7.366z" fill="#fff"/><path clip-rule="evenodd" d="M90.269 18.195h-1.086v-7.366h-2.359V9.797h5.804v1.032h-2.36v7.366z" stroke="#fff" stroke-width=".575"/><path d="M98.223 16.406c.625.63 1.39.944 2.295.944.904 0 1.67-.314 2.293-.944.626-.629.94-1.433.94-2.41 0-.977-.314-1.78-.94-2.41-.623-.63-1.389-.944-2.293-.944-.905 0-1.67.314-2.295.944-.624.63-.938 1.433-.938 2.41 0 .977.314 1.781.938 2.41zm5.391.704c-.83.849-1.862 1.272-3.096 1.272-1.235 0-2.267-.424-3.096-1.272-.83-.848-1.245-1.886-1.245-3.114 0-1.227.414-2.265 1.245-3.113.829-.85 1.861-1.274 3.096-1.274 1.227 0 2.256.427 3.091 1.279.833.852 1.25 1.888 1.25 3.108 0 1.228-.416 2.266-1.245 3.114z" fill="#fff"/><path clip-rule="evenodd" d="M98.223 16.406c.625.63 1.39.944 2.295.944.904 0 1.67-.314 2.293-.944.626-.629.94-1.433.94-2.41 0-.977-.314-1.78-.94-2.41-.623-.63-1.389-.944-2.293-.944-.905 0-1.67.314-2.295.944-.624.63-.938 1.433-.938 2.41 0 .977.314 1.781.938 2.41zm5.391.704c-.83.849-1.862 1.272-3.096 1.272-1.235 0-2.267-.424-3.096-1.272-.83-.848-1.245-1.886-1.245-3.114 0-1.227.414-2.265 1.245-3.113.829-.85 1.861-1.274 3.096-1.274 1.227 0 2.256.427 3.091 1.279.833.852 1.25 1.888 1.25 3.108 0 1.228-.416 2.266-1.245 3.114z" stroke="#fff" stroke-width=".575"/><path d="M106.382 18.195V9.797h1.321l4.105 6.532h.046l-.046-1.618V9.797h1.085v8.398h-1.133l-4.294-6.85h-.047l.047 1.619v5.23h-1.084z" fill="#fff"/><path clip-rule="evenodd" d="M106.382 18.195V9.797h1.321l4.105 6.532h.046l-.046-1.618V9.797h1.085v8.398h-1.133l-4.294-6.85h-.047l.047 1.619v5.23h-1.084z" stroke="#fff" stroke-width=".575"/><path d="M150.526 41.988h2.626V24.49h-2.626v17.497zm23.659-11.194l-3.012 7.585h-.09l-3.124-7.585h-2.83l4.686 10.602-2.671 5.897h2.739l7.222-16.5h-2.92zM159.288 40c-.86 0-2.06-.428-2.06-1.486 0-1.35 1.494-1.868 2.785-1.868 1.154 0 1.697.248 2.399.585a3.177 3.177 0 01-3.124 2.77zm.317-9.59c-1.902 0-3.871.834-4.686 2.68l2.332.968c.498-.968 1.426-1.284 2.399-1.284 1.358 0 2.74.81 2.762 2.251v.18c-.475-.27-1.494-.675-2.739-.675-2.513 0-5.071 1.373-5.071 3.94 0 2.34 2.06 3.849 4.369 3.849 1.766 0 2.739-.788 3.351-1.711h.09v1.35h2.536v-6.707c0-3.107-2.332-4.84-5.343-4.84zm-16.232 2.514h-3.735v-5.998h3.735c1.963 0 3.079 1.617 3.079 2.999 0 1.356-1.116 2.999-3.079 2.999zm-.068-8.433h-6.294v17.497h2.627v-6.63h3.667c2.911 0 5.773-2.095 5.773-5.433 0-3.338-2.862-5.434-5.773-5.434zm-34.32 15.513c-1.814 0-3.333-1.511-3.333-3.586 0-2.096 1.519-3.63 3.333-3.63 1.792 0 3.198 1.534 3.198 3.63 0 2.075-1.406 3.586-3.198 3.586zm3.017-8.23h-.091c-.59-.7-1.724-1.33-3.153-1.33-2.993 0-5.737 2.615-5.737 5.974 0 3.338 2.744 5.93 5.737 5.93 1.429 0 2.563-.631 3.153-1.352h.091v.856c0 2.278-1.225 3.495-3.198 3.495-1.61 0-2.608-1.15-3.016-2.12l-2.291.948c.658 1.578 2.404 3.517 5.307 3.517 3.084 0 5.692-1.804 5.692-6.2V30.803h-2.494v.97zm4.308 10.214h2.631V24.49h-2.631v17.497zm6.509-5.773c-.068-2.3 1.791-3.472 3.129-3.472 1.043 0 1.928.519 2.223 1.263l-5.352 2.21zm8.163-1.984c-.498-1.33-2.018-3.788-5.125-3.788-3.084 0-5.646 2.413-5.646 5.953 0 3.337 2.54 5.953 5.941 5.953 2.744 0 4.332-1.669 4.989-2.639l-2.04-1.353c-.681.992-1.611 1.647-2.949 1.647-1.338 0-2.29-.61-2.902-1.804l8.005-3.292-.273-.677zM67.205 32.27v2.525h6.078c-.182 1.42-.658 2.457-1.383 3.18-.885.879-2.268 1.848-4.695 1.848-3.741 0-6.667-2.999-6.667-6.72 0-3.72 2.926-6.719 6.667-6.719 2.019 0 3.493.79 4.581 1.804l1.792-1.78c-1.52-1.444-3.538-2.549-6.373-2.549-5.125 0-9.434 4.15-9.434 9.245 0 5.096 4.31 9.245 9.434 9.245 2.767 0 4.853-.902 6.486-2.593 1.678-1.67 2.2-4.014 2.2-5.908 0-.586-.045-1.127-.136-1.578h-8.55zM82.8 40.004c-1.814 0-3.379-1.489-3.379-3.608 0-2.142 1.565-3.608 3.38-3.608 1.814 0 3.378 1.466 3.378 3.608 0 2.12-1.564 3.608-3.379 3.608zm0-9.56c-3.311 0-6.01 2.502-6.01 5.952 0 3.427 2.699 5.953 6.01 5.953s6.01-2.526 6.01-5.953c0-3.45-2.699-5.953-6.01-5.953zm13.11 9.56c-1.814 0-3.379-1.489-3.379-3.608 0-2.142 1.565-3.608 3.379-3.608s3.379 1.466 3.379 3.608c0 2.12-1.565 3.608-3.379 3.608zm0-9.56c-3.311 0-6.01 2.502-6.01 5.952 0 3.427 2.699 5.953 6.01 5.953 3.31 0 6.01-2.526 6.01-5.953 0-3.45-2.7-5.953-6.01-5.953z" fill="#fff"/><mask id="a" maskUnits="userSpaceOnUse" x="14" y="10" width="19" height="36"><path d="M14.689 10.55c-.41.431-.651 1.1-.651 1.967V43.47c0 .867.242 1.535.65 1.966l.105.1 17.439-17.339v-.408l-17.439-17.34-.104.102z" fill="#fff"/></mask><g mask="url(#a)"><path d="M14.689 10.55c-.41.431-.651 1.1-.651 1.967V43.47c0 .867.242 1.535.65 1.966l.105.1 17.439-17.339v-.408l-17.439-17.34-.104.102z" fill="url(#paint0_linear)"/></g><mask id="b" maskUnits="userSpaceOnUse" x="32" y="22" width="15" height="12"><path d="M32.232 27.789v.408l5.813 5.783.133-.075 6.886-3.89c1.968-1.112 1.968-2.93 0-4.042l-6.886-3.89-.132-.076-5.814 5.782z" fill="#fff"/></mask><g mask="url(#b)"><path d="M32.232 27.789v.408l5.813 5.783.133-.075 6.886-3.89c1.968-1.112 1.968-2.93 0-4.042l-6.886-3.89-.132-.076-5.814 5.782z" fill="url(#paint1_linear)"/></g><mask id="c" maskUnits="userSpaceOnUse" x="14" y="27" width="25" height="19"><path d="M14.689 45.436c.649.682 1.719.767 2.925.086l20.564-11.617-5.946-5.912-17.543 17.443z" fill="#fff"/></mask><g mask="url(#c)"><path d="M14.689 45.436c.649.682 1.719.767 2.925.086l20.564-11.617-5.946-5.912-17.543 17.443z" fill="url(#paint2_linear)"/></g><mask id="d" maskUnits="userSpaceOnUse" x="14" y="9" width="25" height="19"><path d="M14.689 10.55l17.543 17.443 5.946-5.912-20.564-11.617c-.566-.32-1.101-.47-1.577-.47-.54 0-1.004.193-1.348.556z" fill="#fff"/></mask><g mask="url(#d)"><path d="M14.689 10.55l17.543 17.443 5.946-5.912-20.564-11.617c-.566-.32-1.101-.47-1.577-.47-.54 0-1.004.193-1.348.556z" fill="url(#paint3_linear)"/></g><mask id="e" maskUnits="userSpaceOnUse" x="14" y="33" width="25" height="13"><path d="M14.689 33.774h23.488v12.218H14.69V33.774z" fill="#fff"/></mask><g mask="url(#e)"><path opacity=".2" d="M38.046 33.775L17.614 45.318c-1.143.645-2.165.602-2.82.014l-.105.105.104.1h.001c.655.587 1.677.631 2.82-.015l20.564-11.617-.132-.13z" fill="#000"/></g><mask id="f" maskUnits="userSpaceOnUse" x="14" y="43" width="1" height="3"><path d="M14.038 43.266h.756v2.17h-.756v-2.17z" fill="#fff"/></mask><g mask="url(#f)"><path opacity=".12" d="M14.69 45.232c-.41-.431-.652-1.1-.652-1.966v.204c0 .867.242 1.535.651 1.966l.105-.104-.105-.1z" fill="#000"/></g><mask id="g" maskUnits="userSpaceOnUse" x="38" y="27" width="9" height="7"><path d="M38.046 27.993h8.494v5.912h-8.494v-5.912z" fill="#fff"/></mask><g mask="url(#g)"><path opacity=".12" d="M45.065 29.81l-7.019 3.964.131.13 6.888-3.89c.983-.556 1.475-1.288 1.475-2.02-.083.662-.583 1.311-1.475 1.815z" fill="#000"/></g><mask id="h" maskUnits="userSpaceOnUse" x="14" y="9" width="33" height="19"><path d="M14.038 9.994H46.54v17.999H14.038v-18z" fill="#fff"/></mask><g mask="url(#h)"><path opacity=".25" d="M17.614 10.67l27.45 15.506c.893.504 1.393 1.153 1.476 1.817 0-.732-.491-1.465-1.475-2.021l-27.45-15.508c-1.968-1.111-3.577-.188-3.577 2.053v.205c0-2.241 1.609-3.164 3.576-2.053z" fill="#fff"/></g></g><defs><linearGradient id="paint0_linear" x1="25.142" y1="12.19" x2="10.276" y2="27.141" gradientUnits="userSpaceOnUse"><stop stop-color="#00A0FF"/><stop offset=".007" stop-color="#00A1FF"/><stop offset=".26" stop-color="#00BEFF"/><stop offset=".512" stop-color="#00D2FF"/><stop offset=".76" stop-color="#00DFFF"/><stop offset="1" stop-color="#00E3FF"/></linearGradient><linearGradient id="paint1_linear" x1="47.626" y1="27.994" x2="13.566" y2="27.994" gradientUnits="userSpaceOnUse"><stop stop-color="#FFE000"/><stop offset=".409" stop-color="#FFBD00"/><stop offset=".775" stop-color="orange"/><stop offset="1" stop-color="#FF9C00"/></linearGradient><linearGradient id="paint2_linear" x1="34.947" y1="33.555" x2="9.562" y2="59.086" gradientUnits="userSpaceOnUse"><stop stop-color="#FF3A44"/><stop offset="1" stop-color="#C31162"/></linearGradient><linearGradient id="paint3_linear" x1="10.272" y1="7.858" x2="21.607" y2="19.259" gradientUnits="userSpaceOnUse"><stop stop-color="#32A071"/><stop offset=".069" stop-color="#2DA771"/><stop offset=".476" stop-color="#15CF74"/><stop offset=".801" stop-color="#06E775"/><stop offset="1" stop-color="#00F076"/></linearGradient><clipPath id="clip0"><path fill="#fff" d="M0 0h190v56H0z"/></clipPath></defs></svg>