<svg width="134" height="44" fill="none" xmlns="http://www.w3.org/2000/svg"><g clip-path="url(#clip0)"><path d="M123.329 0H10.677c-.41 0-.816 0-1.226.002-.343.002-.683.009-1.029.014C7.67.025 6.92.09 6.178.211A7.558 7.558 0 004.05.9c-.669.336-1.28.773-1.812 1.296A6.89 6.89 0 00.917 3.98a7.172 7.172 0 00-.7 2.094 14.047 14.047 0 00-.2 2.202C.007 8.613.005 8.95 0 9.289v25.426c.005.341.007.672.017 1.014.009.738.076 1.474.2 2.202.124.729.36 1.435.7 2.094.34.658.785 1.258 1.32 1.776.53.525 1.141.963 1.812 1.297a7.6 7.6 0 002.13.694c.741.12 1.491.184 2.243.194.346.008.686.012 1.03.012.409.002.814.002 1.225.002h112.652c.403 0 .811 0 1.214-.002.341 0 .691-.005 1.032-.012.751-.01 1.499-.074 2.24-.194a7.73 7.73 0 002.137-.694 7.047 7.047 0 001.811-1.297c.533-.52.979-1.12 1.323-1.776.338-.66.572-1.365.693-2.094.125-.728.194-1.464.208-2.202.004-.342.004-.673.004-1.014.009-.4.009-.798.009-1.204V10.49c0-.403 0-.803-.009-1.201 0-.338 0-.676-.004-1.013a14.653 14.653 0 00-.208-2.202 7.192 7.192 0 00-.693-2.094A7.18 7.18 0 00129.952.9a7.684 7.684 0 00-2.137-.69 14.859 14.859 0 00-2.24-.194c-.341-.005-.691-.012-1.032-.014C124.14 0 123.732 0 123.329 0z" fill="#A6A6A6"/><path d="M9.457 43.038c-.342 0-.675-.005-1.013-.012-.701-.01-1.4-.07-2.093-.18a6.67 6.67 0 01-1.855-.602 6.05 6.05 0 01-1.565-1.119A5.859 5.859 0 011.79 39.59a6.216 6.216 0 01-.608-1.823 13.42 13.42 0 01-.187-2.062c-.007-.232-.016-1.005-.016-1.005V9.29s.01-.76.016-.984c.009-.69.07-1.379.185-2.06a6.253 6.253 0 01.609-1.828A5.916 5.916 0 012.925 2.88c.46-.453.99-.832 1.57-1.124a6.603 6.603 0 011.852-.599 14.34 14.34 0 012.1-.18l1.01-.013h115.081l1.022.013c.697.009 1.393.068 2.081.18a6.732 6.732 0 011.871.602 6.206 6.206 0 012.704 2.662c.292.571.494 1.183.6 1.814.116.686.181 1.38.194 2.076.004.311.004.646.004.979.008.412.008.805.008 1.2v23.022c0 .4 0 .79-.008 1.183 0 .358 0 .685-.005 1.023a13.8 13.8 0 01-.191 2.038 6.256 6.256 0 01-.605 1.837 6.037 6.037 0 01-1.137 1.525 6.073 6.073 0 01-1.567 1.125 6.646 6.646 0 01-1.868.604c-.692.111-1.392.171-2.093.18-.328.007-.672.011-1.005.011l-1.214.003-113.872-.002z" fill="#000"/><path d="M27.736 22.33a5.37 5.37 0 01.722-2.616 5.488 5.488 0 011.917-1.95 5.64 5.64 0 00-1.949-1.706 5.752 5.752 0 00-2.52-.668c-1.88-.194-3.704 1.105-4.662 1.105-.977 0-2.452-1.086-4.04-1.054a6.03 6.03 0 00-2.908.852 5.894 5.894 0 00-2.101 2.15c-2.166 3.682-.55 9.095 1.524 12.073 1.038 1.458 2.25 3.086 3.838 3.028 1.553-.063 2.133-.973 4.008-.973 1.858 0 2.402.973 4.021.937 1.667-.027 2.717-1.465 3.719-2.936a11.971 11.971 0 001.7-3.402 5.334 5.334 0 01-2.376-1.936 5.194 5.194 0 01-.893-2.903zM24.677 13.432a5.297 5.297 0 001.248-3.84 5.585 5.585 0 00-3.592 1.826 5.078 5.078 0 00-1.014 1.723 5.016 5.016 0 00-.266 1.974 4.66 4.66 0 002.009-.432 4.579 4.579 0 001.615-1.251zM47.37 29.854h-5.3l-1.273 3.692h-2.245l5.02-13.66h2.333l5.02 13.66h-2.283l-1.272-3.692zM42.62 28.15h4.201l-2.071-5.992h-.058l-2.072 5.992zM61.768 28.567c0 3.095-1.686 5.083-4.231 5.083a3.487 3.487 0 01-1.85-.421 3.407 3.407 0 01-1.34-1.322h-.048v4.933h-2.081V23.587h2.014v1.656h.038a3.568 3.568 0 011.367-1.318 3.649 3.649 0 011.862-.443c2.573 0 4.269 1.998 4.269 5.085zm-2.14 0c0-2.017-1.06-3.342-2.678-3.342-1.59 0-2.66 1.353-2.66 3.342 0 2.006 1.07 3.35 2.66 3.35 1.618 0 2.679-1.316 2.679-3.35zM72.927 28.567c0 3.095-1.687 5.083-4.231 5.083a3.487 3.487 0 01-1.85-.421 3.406 3.406 0 01-1.34-1.322h-.049v4.933h-2.08V23.587h2.014v1.656h.038a3.567 3.567 0 011.367-1.318 3.648 3.648 0 011.861-.443c2.573 0 4.27 1.998 4.27 5.085zm-2.14 0c0-2.017-1.06-3.342-2.679-3.342-1.59 0-2.66 1.353-2.66 3.342 0 2.006 1.07 3.35 2.66 3.35 1.619 0 2.68-1.316 2.68-3.35zM80.301 29.74c.155 1.354 1.494 2.244 3.325 2.244 1.754 0 3.016-.89 3.016-2.111 0-1.06-.761-1.695-2.563-2.13l-1.803-.427c-2.553-.606-3.739-1.779-3.739-3.682 0-2.357 2.091-3.976 5.06-3.976 2.939 0 4.953 1.619 5.02 3.976h-2.1c-.126-1.363-1.273-2.186-2.95-2.186-1.676 0-2.823.832-2.823 2.044 0 .966.733 1.534 2.525 1.969l1.532.37c2.853.662 4.039 1.788 4.039 3.786 0 2.556-2.072 4.156-5.368 4.156-3.084 0-5.166-1.563-5.3-4.033h2.13zM93.331 21.23v2.357h1.928v1.619h-1.928v5.49c0 .853.386 1.25 1.234 1.25a6.61 6.61 0 00.684-.047v1.61c-.38.069-.768.1-1.156.094-2.052 0-2.853-.758-2.853-2.69v-5.707h-1.474v-1.62h1.474V21.23h2.091zM96.376 28.567c0-3.134 1.878-5.103 4.808-5.103 2.939 0 4.809 1.97 4.809 5.103 0 3.142-1.86 5.102-4.809 5.102-2.948 0-4.808-1.96-4.808-5.102zm7.497 0c0-2.15-1.003-3.419-2.689-3.419-1.686 0-2.688 1.279-2.688 3.419 0 2.158 1.002 3.417 2.688 3.417 1.686 0 2.689-1.26 2.689-3.417zM107.709 23.587h1.985v1.695h.048c.134-.53.45-.998.894-1.325a2.45 2.45 0 011.545-.475c.24 0 .479.025.713.077v1.912a2.96 2.96 0 00-.935-.124 2.102 2.102 0 00-1.621.656 2.045 2.045 0 00-.548 1.636v5.907h-2.081v-9.96zM122.489 30.62c-.28 1.808-2.073 3.05-4.366 3.05-2.949 0-4.78-1.942-4.78-5.056 0-3.124 1.841-5.15 4.693-5.15 2.805 0 4.569 1.893 4.569 4.913v.7h-7.161v.123a2.558 2.558 0 00.716 2.016c.258.266.57.476.917.615.347.14.72.204 1.094.19.492.046.986-.066 1.407-.319.422-.252.75-.631.935-1.081h1.976zm-7.035-2.972h5.068a2.354 2.354 0 00-.681-1.797 2.434 2.434 0 00-.825-.55 2.476 2.476 0 00-.98-.18 2.573 2.573 0 00-1.827.735 2.51 2.51 0 00-.755 1.792zM42.358 9.604c.436-.03.874.034 1.282.19.407.155.775.398 1.076.71.3.312.527.685.663 1.094.136.408.178.841.123 1.267 0 2.097-1.154 3.303-3.144 3.303h-2.414V9.604h2.414zm-1.376 5.635h1.26c.312.019.624-.032.913-.147.29-.115.55-.292.76-.518a2.029 2.029 0 00.53-1.695 2.034 2.034 0 00-.538-1.684c-.21-.225-.47-.4-.757-.515a2.14 2.14 0 00-.908-.148h-1.26v4.707zM46.674 13.689a2.307 2.307 0 01.61-1.802c.224-.242.497-.435.802-.568a2.425 2.425 0 012.734.568c.224.242.394.527.499.838.105.31.143.638.111.964a2.308 2.308 0 01-.609 1.804 2.388 2.388 0 01-.801.57 2.426 2.426 0 01-2.737-.57 2.308 2.308 0 01-.608-1.804zm3.732 0c0-1.074-.49-1.702-1.352-1.702-.865 0-1.352.628-1.352 1.702 0 1.082.487 1.705 1.352 1.705.861 0 1.352-.627 1.352-1.705zM57.752 16.168h-1.033l-1.042-3.648H55.6l-1.038 3.648h-1.023l-1.39-4.954h1.01l.903 3.78h.074l1.037-3.78h.955l1.036 3.78h.08l.898-3.78h.995l-1.384 4.954zM60.305 11.214h.958v.787h.075c.126-.282.338-.52.608-.678.27-.158.583-.23.896-.204a1.667 1.667 0 011.324.509 1.584 1.584 0 01.422 1.333v3.207h-.995v-2.962c0-.795-.353-1.191-1.089-1.191a1.176 1.176 0 00-.895.355 1.133 1.133 0 00-.309.9v2.898h-.995v-4.954zM66.173 9.28h.995v6.888h-.995V9.28zM68.552 13.689a2.31 2.31 0 01.61-1.802c.224-.242.497-.435.801-.568a2.426 2.426 0 012.735.568c.224.242.394.527.499.838.105.31.143.638.111.964a2.31 2.31 0 01-.609 1.804 2.388 2.388 0 01-.801.57 2.426 2.426 0 01-2.737-.57 2.31 2.31 0 01-.609-1.804zm3.732 0c0-1.074-.491-1.702-1.353-1.702-.865 0-1.351.628-1.351 1.702 0 1.082.486 1.705 1.351 1.705.862 0 1.353-.627 1.353-1.705zM74.356 14.767c0-.892.676-1.406 1.875-1.479l1.366-.077v-.428c0-.523-.352-.818-1.032-.818-.556 0-.94.2-1.051.55h-.963c.101-.85.916-1.396 2.06-1.396 1.264 0 1.977.618 1.977 1.664v3.385h-.958v-.697h-.079c-.16.25-.384.454-.65.59a1.72 1.72 0 01-.864.188 1.547 1.547 0 01-1.176-.375 1.499 1.499 0 01-.505-1.107zm3.241-.423v-.415l-1.231.078c-.695.045-1.01.277-1.01.714 0 .446.394.705.936.705a1.208 1.208 0 00.886-.27 1.171 1.171 0 00.42-.813zM79.896 13.689c0-1.565.819-2.557 2.093-2.557.315-.014.628.06.901.214.274.154.498.381.645.655h.075v-2.72h.995v6.886h-.954v-.782h-.079c-.158.272-.39.497-.669.649-.279.152-.595.227-.914.215-1.283 0-2.093-.991-2.093-2.56zm1.028 0c0 1.05.504 1.682 1.347 1.682.839 0 1.357-.64 1.357-1.678 0-1.032-.524-1.683-1.357-1.683-.838 0-1.347.637-1.347 1.679zM88.722 13.689a2.307 2.307 0 01.61-1.802c.224-.242.497-.435.801-.568a2.426 2.426 0 012.735.568c.223.242.393.527.498.838.106.31.143.638.112.964a2.308 2.308 0 01-.609 1.804 2.387 2.387 0 01-.802.57 2.426 2.426 0 01-2.737-.57 2.308 2.308 0 01-.609-1.804zm3.732 0c0-1.074-.49-1.702-1.353-1.702-.865 0-1.351.628-1.351 1.702 0 1.082.486 1.705 1.351 1.705.862 0 1.353-.627 1.353-1.705zM94.813 11.214h.958v.787h.074c.127-.282.34-.52.609-.678.27-.158.583-.23.896-.204a1.667 1.667 0 011.324.509 1.584 1.584 0 01.422 1.333v3.207H98.1v-2.962c0-.795-.352-1.191-1.088-1.191a1.176 1.176 0 00-.895.355 1.131 1.131 0 00-.309.9v2.898h-.995v-4.954zM104.718 9.981v1.256h1.093v.823h-1.093v2.547c0 .52.218.746.713.746.127 0 .254-.008.38-.022v.814c-.179.031-.36.048-.542.05-1.106 0-1.547-.383-1.547-1.338V12.06h-.8v-.823h.8V9.98h.996zM107.17 9.28h.987v2.73h.078c.133-.285.351-.523.626-.682.275-.159.594-.23.912-.205a1.684 1.684 0 011.31.522c.166.176.29.387.364.616.074.229.095.47.062.709v3.197h-.996v-2.956c0-.791-.375-1.192-1.078-1.192a1.196 1.196 0 00-.932.338 1.15 1.15 0 00-.338.918v2.893h-.995V9.28zM117.312 14.83a2.011 2.011 0 01-.828 1.106c-.399.262-.88.378-1.357.327a2.333 2.333 0 01-.968-.183 2.284 2.284 0 01-.799-.565 2.235 2.235 0 01-.484-.844 2.204 2.204 0 01-.078-.964 2.247 2.247 0 01.561-1.816 2.32 2.32 0 01.796-.574c.305-.133.634-.201.968-.198 1.403 0 2.249.941 2.249 2.497v.34h-3.561v.056a1.29 1.29 0 00.352 1 1.338 1.338 0 00.991.419c.238.028.479-.014.693-.121.214-.107.39-.274.507-.48h.958zm-3.501-1.596h2.547a1.169 1.169 0 00-.331-.912 1.215 1.215 0 00-.91-.371 1.308 1.308 0 00-.928.37 1.265 1.265 0 00-.378.913z" fill="#fff"/></g><defs><clipPath id="clip0"><path fill="#fff" d="M0 0h134v44H0z"/></clipPath></defs></svg>