<svg width="32" height="32" viewBox="0 0 32 32" fill="none" xmlns="http://www.w3.org/2000/svg">
<path d="M23.3419 1C21.036 1 18.8606 1.90647 17.2073 3.5036L13.9878 6.69784C12.465 5.53237 10.6377 4.92806 8.67981 4.92806C6.37389 4.92806 4.1985 5.83453 2.54521 7.43165C-0.848403 10.7986 -0.848403 16.2374 2.54521 19.6043L10.1156 27.1151L14.0313 31L17.947 27.1151L29.4765 15.6763C31.1298 14.036 32 11.8777 32 9.58993C32 7.30216 31.0863 5.14388 29.4765 3.5036C27.8232 1.90647 25.6479 1 23.3419 1ZM25.5608 11.8345L14.0313 23.2302L6.46091 15.7194C5.24269 14.5108 5.24269 12.5252 6.46091 11.3165C7.67913 10.1079 9.68049 10.1079 10.8987 11.3165L14.0313 14.4245L21.0795 7.43165C22.2978 6.22302 24.2991 6.22302 25.5173 7.43165C26.7791 8.64029 26.7791 10.6259 25.5608 11.8345Z" fill="white"/>
<path d="M25.5608 11.8345L14.0313 23.2302L6.46091 15.7194C5.24269 14.5108 5.24269 12.5252 6.46091 11.3165C7.67913 10.1079 9.68049 10.1079 10.8987 11.3165L14.0313 14.4245L21.0795 7.43165C22.2978 6.22302 24.2991 6.22302 25.5173 7.43165C26.7791 8.64029 26.7791 10.6259 25.5608 11.8345Z" fill="white"/>
</svg>
