<svg width="80" height="80" fill="none" xmlns="http://www.w3.org/2000/svg"><path opacity=".24" d="M69.306 18.404a3.764 3.764 0 00-3.392-2.154H31.586a3.764 3.764 0 00-3.392 2.154L19.206 37.5h59.088l-8.988-19.096zM56.25 28.125h-15a1.25 1.25 0 010-2.5h15a1.25 1.25 0 110 2.5zM47.21 50.028a3.436 3.436 0 00-2.306 2.706 2.696 2.696 0 00.766 2.663c.53.4 1.096.747 1.692 1.037V50c-.052.01-.098.013-.152.028zM50.545 60.43c-.24-.085-.458-.165-.683-.25v8.383a4.686 4.686 0 003.363-3.75 3.785 3.785 0 00-2.68-4.383z" fill="#32A573"/><path opacity=".24" d="M18.75 40v35a3.75 3.75 0 003.75 3.75H75A3.75 3.75 0 0078.75 75V40h-60zm36.94 25.235a7.145 7.145 0 01-5.828 5.903v1.987a1.25 1.25 0 01-2.5 0v-1.894a8.908 8.908 0 01-5.087-1.707 1.25 1.25 0 011.369-2.093 6.403 6.403 0 003.718 1.304v-9.54a14.74 14.74 0 01-3.237-1.829 5.173 5.173 0 01-1.681-5.097 5.906 5.906 0 014.042-4.634c.288-.086.58-.157.875-.214v-1.796a1.25 1.25 0 112.5 0v1.697a7.578 7.578 0 013.989 1.7 1.25 1.25 0 01-1.688 1.844 5.097 5.097 0 00-2.3-1.007v7.655c.468.18.963.363 1.514.558a6.262 6.262 0 014.314 7.163z" fill="#32A573"/><path d="M15 30a6.25 6.25 0 10-6.25-6.25A6.257 6.257 0 0015 30zm0-10a3.75 3.75 0 110 7.5 3.75 3.75 0 010-7.5z" fill="#343434"/><path d="M63.75 32.5A31.238 31.238 0 009.818 11.023 13.763 13.763 0 001.25 23.75c0 1.302.132 2.6.396 3.875A31.244 31.244 0 1063.75 32.5zm-2.531-1.25H48.734a56.585 56.585 0 00-1.585-12.5h10.593a28.572 28.572 0 013.477 12.5zm-14.985 0H33.75v-12.5h10.763a53.085 53.085 0 011.72 12.5zm-12.484-15V3.875c4.093.814 7.729 5.565 10.01 12.375H33.75zm-2.5-12.368V16.25h-4.74a13.874 13.874 0 00-3.76-3.849c2.309-4.875 5.328-7.887 8.5-8.519zM27.795 18.75h3.455v12.5h-4.049a18.387 18.387 0 001.549-7.5 13.66 13.66 0 00-.955-5zm-1.936 15h5.391v12.5H20.464a49.28 49.28 0 01-1.173-5.936 22.863 22.863 0 006.568-6.564zm5.391 15v12.366c-4.044-.809-7.724-5.491-10.027-12.366H31.25zm2.5 12.375V48.75h10.01c-2.281 6.805-5.917 11.556-10.01 12.375zm0-14.875v-12.5h12.484a53.085 53.085 0 01-1.721 12.5H33.75zm14.984-12.5h12.485a28.572 28.572 0 01-3.477 12.5H47.15a56.585 56.585 0 001.585-12.5zm7.466-17.5h-9.75a27.922 27.922 0 00-6.336-11.469A28.84 28.84 0 0156.2 16.25zM24.934 4.777a23.206 23.206 0 00-4.375 6.408 13.375 13.375 0 00-5.963-1.165 28.91 28.91 0 0110.338-5.243zM15 12.5a11.262 11.262 0 0111.25 11.25c0 7.5-5.108 13.292-11.25 16.133-2.162-1.026-11.25-5.936-11.25-16.133A11.263 11.263 0 0115 12.5zm-.465 29.911c.299.119.631.119.93 0 .104-.042.668-.275 1.5-.714.25 1.584.558 3.101.925 4.553H7.257a28.559 28.559 0 01-3.49-13.111 24 24 0 0010.768 9.272zM8.8 48.75h9.797A28.017 28.017 0 0025 60.25a28.845 28.845 0 01-16.2-11.5zm31.314 11.469A27.922 27.922 0 0046.45 48.75h9.75a28.84 28.84 0 01-16.086 11.469z" fill="#343434"/></svg>