<svg width="80" height="80" fill="none" xmlns="http://www.w3.org/2000/svg"><path opacity=".24" d="M47.5 41.25c6.904 0 12.5-5.596 12.5-12.5s-5.596-12.5-12.5-12.5S35 21.846 35 28.75s5.596 12.5 12.5 12.5z" fill="#32A573"/><path opacity=".24" d="M77.5 23.75h-10A1.25 1.25 0 0066.25 25a18.75 18.75 0 01-37.5 0 1.25 1.25 0 00-1.25-1.25h-10A1.25 1.25 0 0016.25 25a31.065 31.065 0 0014.974 26.68l.026.015V75A3.75 3.75 0 0035 78.75h25A3.75 3.75 0 0063.75 75V51.695l.026-.015A31.064 31.064 0 0078.75 25a1.25 1.25 0 00-1.25-1.25z" fill="#32A573"/><path d="M52.611 37.091a8.75 8.75 0 10-10.222 0 16.321 16.321 0 00-9.889 9.174 16.322 16.322 0 00-9.889-9.174 8.75 8.75 0 10-10.222 0A16.269 16.269 0 001.25 52.5v5a1.25 1.25 0 001.25 1.25h60a1.25 1.25 0 001.25-1.25v-5a16.269 16.269 0 00-11.139-15.409zM11.25 30a6.25 6.25 0 116.25 6.25A6.257 6.257 0 0111.25 30zm20 26.25H3.75V52.5a13.75 13.75 0 0127.5 0v3.75zm10-26.25a6.25 6.25 0 116.25 6.25A6.257 6.257 0 0141.25 30zm20 26.25h-27.5V52.5a13.75 13.75 0 0127.5 0v3.75z" fill="#343434"/><path d="M32.091 25.352c.265.092.553.092.818 0C47.218 20.396 46.196 9.55 46.25 9.424A8.232 8.232 0 0042 2.096c-3.286-1.76-6.866-.721-9.5 2.611-2.634-3.332-6.219-4.37-9.492-2.612a8.235 8.235 0 00-4.258 7.329c.054.125-.953 10.979 13.341 15.928zM21.25 9.424a5.741 5.741 0 012.939-5.125c2.91-1.559 5.558.4 7.232 3.258a1.302 1.302 0 002.158 0C35.57 4.16 38.27 2.94 40.812 4.3a5.74 5.74 0 012.938 5.124c-.049.125.843 8.963-11.25 13.42-11.899-4.385-11.2-13.29-11.25-13.42z" fill="#343434"/></svg>