<svg width="80" height="80" fill="none" xmlns="http://www.w3.org/2000/svg"><path opacity=".24" d="M48.692 48.589l-.04-.015v5.136a3.108 3.108 0 001.768-2.306 2.43 2.43 0 00-1.728-2.815zM45.039 42.733a1.652 1.652 0 00.432 1.606c.217.161.444.309.68.441v-3.589a2.228 2.228 0 00-1.112 1.541z" fill="#32A573"/><path opacity=".24" d="M47.5 25A22.5 22.5 0 1070 47.5 22.526 22.526 0 0047.5 25zm5.385 26.819a5.617 5.617 0 01-4.234 4.5V57.5a1.25 1.25 0 01-2.5 0v-1.055a6.75 6.75 0 01-3.546-1.279 1.25 1.25 0 011.369-2.092 4.415 4.415 0 002.177.864v-6.35a10.62 10.62 0 01-2.222-1.282 4.099 4.099 0 01-1.348-4.036 4.637 4.637 0 013.176-3.635c.138-.041.26-.049.394-.081V37.5a1.25 1.25 0 012.5 0v.956a6 6 0 012.791 1.264 1.25 1.25 0 01-1.685 1.846 3.293 3.293 0 00-1.106-.557v4.902c.293.11.588.219.875.32a4.882 4.882 0 013.359 5.588z" fill="#32A573"/><path opacity=".24" d="M47.5 16.25A31.25 31.25 0 1078.75 47.5 31.285 31.285 0 0047.5 16.25zm0 56.25a25 25 0 1125-25 25.029 25.029 0 01-25 25z" fill="#32A573"/><path d="M56.25 31.25h-17.5A1.25 1.25 0 0137.5 30v-2.5h13.125a13.125 13.125 0 100-26.25h-36.25a13.125 13.125 0 100 26.25H25v16.983l-2.856-2.858A7.88 7.88 0 1011 52.769l9.883 9.882a3.722 3.722 0 002.653 1.099H56.25a6.257 6.257 0 006.25-6.25v-20a6.257 6.257 0 00-6.25-6.25zM14.375 25a10.625 10.625 0 110-21.25h36.25a10.625 10.625 0 010 21.25H37.5V12.5a6.25 6.25 0 00-12.5 0V25H14.375zM60 57.5a3.75 3.75 0 01-3.75 3.75H23.536a1.251 1.251 0 01-.885-.366L12.77 51a5.378 5.378 0 117.606-7.606l4.99 4.99A1.25 1.25 0 0027.5 47.5v-35a3.75 3.75 0 017.5 0V30a3.75 3.75 0 003.75 3.75h17.5A3.75 3.75 0 0160 37.5v20z" fill="#343434"/></svg>