<svg width="80" height="80" fill="none" xmlns="http://www.w3.org/2000/svg"><path opacity=".24" d="M71.181 62.375a8.75 8.75 0 10-9.787 0 12.552 12.552 0 00-5.438 4.475 16.295 16.295 0 00-10.45-12.007 10.625 10.625 0 10-10.937 0 16.261 16.261 0 00-10.782 15.282v5a3.75 3.75 0 003.75 3.75h47.5a3.75 3.75 0 003.75-3.75v-1.25a12.516 12.516 0 00-7.606-11.5zM32 46.9a10.638 10.638 0 008.032-5.541 10.639 10.639 0 008.033 5.541C46.75 56.149 33.33 56.144 32 46.9zm10.385 13.625a1.267 1.267 0 00-1.102 1.24v5.297a1.25 1.25 0 01-2.5 0v-5.29a1.267 1.267 0 00-1.103-1.24 14.682 14.682 0 01-5.25-1.863 13.698 13.698 0 0115.195 0 14.695 14.695 0 01-5.235 1.862l-.005-.006zm17.779-4.15h3.625a1.25 1.25 0 001.04-.557l1.459-2.193 1.462 2.188a1.251 1.251 0 001.04.557h3.625a6.25 6.25 0 01-12.251.005zm8.336 9.772a1.25 1.25 0 00-.968 1.234v2.744a1.25 1.25 0 01-2.5 0v-2.744a1.25 1.25 0 00-.967-1.234 11.127 11.127 0 01-2.758-.94 9.916 9.916 0 019.95 0c-.873.434-1.8.75-2.757.94z" fill="#32A573"/><path d="M5 63.75h32.5A3.75 3.75 0 0041.25 60V48.939a48.96 48.96 0 005.676 3.421 1.25 1.25 0 001.148 0c13.64-7.057 15.676-14.689 15.676-18.61 0-5.608-3.844-10-8.75-10a10.384 10.384 0 00-7.5 3.233A10.385 10.385 0 0040 23.75a8.35 8.35 0 00-6.954 3.875 19.587 19.587 0 00-5.781-2.926 12.5 12.5 0 10-12.054-.014A20.031 20.031 0 001.25 43.75V60A3.75 3.75 0 005 63.75zm35-37.5a8.023 8.023 0 016.45 3.365 1.298 1.298 0 002.102 0A8.064 8.064 0 0155 26.25c6.968 0 12.166 13.131-7.5 23.589C27.797 39.36 33.078 26.25 40 26.25zm-10.571 2.059c.868.46 1.695.993 2.474 1.592-2.278 6.408 1.577 12.735 6.847 17.146V60a1.25 1.25 0 01-1.25 1.25h-15V36.699l6.929-8.39zM21.28 34.25l-5.5-7.11a17.268 17.268 0 0111.279.125l-5.779 6.985zm9.867-21.852a10.008 10.008 0 01-8.546-8.546 10.008 10.008 0 018.546 8.546zm-11.25-8.546a10.008 10.008 0 01-8.546 8.546 10.008 10.008 0 018.546-8.546zm-8.572 11.075a12.514 12.514 0 009.924-7.015 12.514 12.514 0 009.924 7.016 9.992 9.992 0 01-19.848 0zM3.75 43.75a17.5 17.5 0 019.637-15.613L20 36.677V61.25H5A1.25 1.25 0 013.75 60V43.75zm51.25-15c2.436 0 3.75 2.576 3.75 5a1.25 1.25 0 01-2.5 0c0-1.309-.596-2.5-1.25-2.5a1.25 1.25 0 010-2.5z" fill="#343434"/></svg>