<svg width="32" height="32" fill="none" xmlns="http://www.w3.org/2000/svg"><path fill-rule="evenodd" clip-rule="evenodd" d="M16 32c8.837 0 16-7.163 16-16S24.837 0 16 0 0 7.163 0 16s7.163 16 16 16zm2.805-18.805l.31.31 2.474-2.475-.31-.31A7.418 7.418 0 0016 8.533c-1.994 0-3.87.777-5.28 2.187A7.41 7.41 0 008.533 16a7.41 7.41 0 002.187 5.28A7.418 7.418 0 0016 23.467a7.41 7.41 0 005.28-2.187A7.418 7.418 0 0023.467 16c0-.454-.041-.91-.123-1.353l-.065-.358H16v3.5h3.542a3.948 3.948 0 01-1.513 1.622 3.968 3.968 0 01-5.438-5.438 3.968 3.968 0 016.214-.778z" fill="#fff"/></svg>