<svg width="32" height="32" fill="none" xmlns="http://www.w3.org/2000/svg"><path d="M20.881 12.014a.895.895 0 11-1.79 0 .895.895 0 011.79 0z" fill="#fff"/><path fill-rule="evenodd" clip-rule="evenodd" d="M12.171 15.997a3.831 3.831 0 117.662 0 3.831 3.831 0 01-7.662 0zm1.345 0a2.486 2.486 0 104.972.001 2.486 2.486 0 00-4.972-.001z" fill="#fff"/><path fill-rule="evenodd" clip-rule="evenodd" d="M16 32c8.837 0 16-7.163 16-16S24.837 0 16 0 0 7.163 0 16s7.163 16 16 16zm3.079-23.42c-1.374-.064-4.777-.06-6.152 0-1.208.057-2.274.349-3.134 1.208-1.285 1.285-1.273 2.97-1.256 5.343a144.146 144.146 0 01.001 1.676c-.014 2.453-.023 4.12 1.255 5.399 1.288 1.287 2.991 1.274 5.338 1.257.281-.002.572-.004.872-.004h.04c2.846 0 3.835 0 4.847-.392 1.383-.537 2.427-1.774 2.53-3.994.064-1.375.06-4.777 0-6.152-.124-2.622-1.53-4.211-4.341-4.34z" fill="#fff"/></svg>