<svg width="100" height="32" fill="none" xmlns="http://www.w3.org/2000/svg"><path d="M25.597 0v26.274h-8.19V7.747H13.31c-3.016 0-5.461 2.413-5.461 5.39 0 2.976 2.445 5.39 5.46 5.39h2.731v7.747h-2.73C5.959 26.274 0 20.392 0 13.137 0 5.882 5.96 0 13.31 0h12.287zM29.01 0v26.274h5.832a3.983 3.983 0 00-.371 1.684c0 2.232 1.834 4.042 4.096 4.042 2.261 0 4.095-1.81 4.095-4.042 0-.601-.133-1.172-.371-1.684h21.22a3.983 3.983 0 00-.371 1.684c0 2.232 1.834 4.042 4.096 4.042 2.261 0 4.095-1.81 4.095-4.042 0-.601-.133-1.172-.371-1.684h20.849v-8.085H37.2V8.084H76.11V0H29.01z" fill="#F8E92D"/><path d="M84.3 4.379c0 1.488-1.222 2.695-2.73 2.695s-2.73-1.207-2.73-2.695c0-1.488 1.222-2.695 2.73-2.695S84.3 2.891 84.3 4.38zM100 22.568c0 1.489-1.222 2.695-2.73 2.695s-2.73-1.206-2.73-2.695c0-1.488 1.222-2.694 2.73-2.694S100 21.08 100 22.568z" fill="#F8E92D"/></svg>