<svg width="32" height="32" fill="none" xmlns="http://www.w3.org/2000/svg"><path fill-rule="evenodd" clip-rule="evenodd" d="M32 16c0 8.837-7.163 16-16 16S0 24.837 0 16 7.163 0 16 0s16 7.163 16 16zm-9.89-4.443a6.839 6.839 0 001.89-.518 6.544 6.544 0 01-1.644 1.703c.007.139.012.279.012.424 0 4.334-3.3 9.334-9.336 9.334A9.234 9.234 0 018 21.028c.258.033.516.045.785.045a6.59 6.59 0 004.067-1.399 3.311 3.311 0 01-3.065-2.285 2.9 2.9 0 00.621.056c.302 0 .593-.035.86-.108a3.295 3.295 0 01-2.628-3.223v-.036a3.24 3.24 0 001.482.404 3.285 3.285 0 01-1.008-4.384 9.284 9.284 0 006.761 3.431 3.378 3.378 0 01-.076-.748 3.28 3.28 0 015.674-2.243 6.555 6.555 0 002.08-.794 3.262 3.262 0 01-1.443 1.813z" fill="#fff"/></svg>