<svg width="40" height="41" viewBox="0 0 40 41" fill="none" xmlns="http://www.w3.org/2000/svg">
<path d="M39.4333 28.6929L26.3733 26.732L25.66 25.7383C27.5653 24.8102 29.1707 23.3638 30.292 21.5649C31.4134 19.7659 32.0053 17.6873 32 15.5672V10.0115C31.9973 7.53584 31.0132 5.16238 29.2634 3.41185C27.5136 1.66133 25.1412 0.67672 22.6667 0.674072H17.3333C14.8588 0.67672 12.4864 1.66133 10.7366 3.41185C8.98684 5.16238 8.00266 7.53584 8.00001 10.0115V15.5672C7.99467 17.6873 8.58661 19.7659 9.70796 21.5649C10.8293 23.3638 12.4347 24.8102 14.34 25.7383L13.6267 26.732L0.566684 28.6929C0.408449 28.7159 0.263894 28.7955 0.15973 28.9168C0.0555668 29.0382 -0.00116487 29.1932 1.8135e-05 29.3532V36.0227C-1.32323e-05 36.1765 0.0530558 36.3255 0.150244 36.4446C0.247432 36.5637 0.382769 36.6456 0.533351 36.6763L19.8667 40.6781C19.9547 40.6959 20.0453 40.6959 20.1333 40.6781L39.4667 36.6763C39.6172 36.6456 39.7526 36.5637 39.8498 36.4446C39.9469 36.3255 40 36.1765 40 36.0227V29.3532C40.0012 29.1932 39.9444 29.0382 39.8403 28.9168C39.7361 28.7955 39.5916 28.7159 39.4333 28.6929ZM30.6667 28.7262L34.6667 29.3265V33.3549H30.6667V28.7262ZM26.5667 23.644L23.6667 20.7428C25.2872 20.1994 26.8613 19.5258 28.3733 18.7286C29.0933 18.3684 29.78 18.0283 30.42 17.7548C29.898 20.123 28.5272 22.2179 26.5667 23.644ZM20 29.3532C18.6568 29.3655 17.3194 29.1743 16.0333 28.7863L14.84 27.3256L15.6067 26.2652C15.9785 26.3974 16.3568 26.511 16.74 26.6053L19.8467 27.3323C19.9472 27.3589 20.0528 27.3589 20.1533 27.3323L23.26 26.6053C23.6432 26.511 24.0215 26.3974 24.3933 26.2652L25.16 27.3256L23.9667 28.7863C22.6806 29.1743 21.3432 29.3655 20 29.3532ZM22.58 30.4803L20 33.635L17.42 30.4803C19.129 30.756 20.871 30.756 22.58 30.4803ZM22.96 25.3047L20 25.9984L17.04 25.3047C16.1844 25.104 15.3593 24.79 14.5867 24.371L17.8333 21.1229C19.262 21.4253 20.738 21.4253 22.1667 21.1229L25.4133 24.371C24.6407 24.79 23.8156 25.104 22.96 25.3047ZM22.6333 2.00798H22.6667C24.5902 2.01247 26.4479 2.70888 27.9007 3.97008C29.3535 5.23128 30.3045 6.97313 30.58 8.87763C27.8411 9.51855 25.0449 9.88275 22.2333 9.96476L22.6333 2.00798ZM21.3 2.00798L20.9 9.99811C20.6 10.0048 20.3 10.0115 20 10.0115C19.7 10.0115 19.4 10.0048 19.1 9.99811L18.7 2.00798H21.3ZM17.3333 2.00798H17.3667L17.7667 9.96476C14.9551 9.88275 12.1589 9.51855 9.42001 8.87763C9.69552 6.97313 10.6465 5.23128 12.0993 3.97008C13.5521 2.70888 15.4098 2.01247 17.3333 2.00798ZM9.33334 15.5672V10.2315C12.8348 11.0087 16.4136 11.3824 20 11.3454C23.5864 11.3824 27.1652 11.0087 30.6667 10.2315V15.5672C30.6667 15.794 30.6533 16.0141 30.64 16.2408C29.6602 16.6163 28.7031 17.0483 27.7733 17.5347C25.4467 18.6952 22.8067 20.0158 20 20.0158C17.1933 20.0158 14.5533 18.6952 12.2267 17.5347C11.2969 17.0483 10.3398 16.6163 9.36001 16.2408C9.34668 16.0141 9.33334 15.794 9.33334 15.5672ZM13.4333 23.644C11.4728 22.2179 10.102 20.123 9.58001 17.7548C10.22 18.0283 10.9067 18.3684 11.6267 18.7286C13.1387 19.5258 14.7128 20.1994 16.3333 20.7428L13.4333 23.644ZM5.33335 29.3265L9.33334 28.7262V33.3549H5.33335V29.3265ZM38.6667 35.4825L20 39.3442L1.33335 35.4825V29.9267L4.00001 29.5266V34.0219C4.00001 34.1987 4.07025 34.3684 4.19528 34.4935C4.3203 34.6185 4.48987 34.6888 4.66668 34.6888H10C10.1768 34.6888 10.3464 34.6185 10.4714 34.4935C10.5964 34.3684 10.6667 34.1987 10.6667 34.0219V28.5261L13.7267 28.0659L19.4867 35.109C19.5482 35.186 19.6264 35.2482 19.7152 35.2909C19.8041 35.3337 19.9014 35.3559 20 35.3559C20.0986 35.3559 20.1959 35.3337 20.2848 35.2909C20.3736 35.2482 20.4518 35.186 20.5133 35.109L26.2733 28.0659L29.3333 28.5261V34.0219C29.3333 34.1987 29.4036 34.3684 29.5286 34.4935C29.6536 34.6185 29.8232 34.6888 30 34.6888H35.3333C35.5101 34.6888 35.6797 34.6185 35.8047 34.4935C35.9297 34.3684 36 34.1987 36 34.0219V29.5266L38.6667 29.9267V35.4825Z" fill="#6D3DF8"/>
<path d="M26.1958 4.86896L23.5291 7.53564L24.4719 8.47844L27.1387 5.81175L26.1958 4.86896Z" fill="#6D3DF8"/>
<path d="M13.8049 4.8692L12.8621 5.81201L15.5288 8.47874L16.4716 7.53594L13.8049 4.8692Z" fill="#6D3DF8"/>
</svg>
