<svg width="40" height="41" viewBox="0 0 40 41" fill="none" xmlns="http://www.w3.org/2000/svg">
<path d="M39.3333 19.3297H35.3333C35.1565 19.3297 34.987 19.4 34.8619 19.5251C34.7369 19.6501 34.6667 19.8198 34.6667 19.9967V23.9984H31.94C32.9791 21.6184 33.4493 19.0287 33.3133 16.4351C33.0561 12.3781 31.3426 8.55059 28.4885 5.65716C25.6343 2.76372 21.8315 0.999103 17.78 0.688124C15.5023 0.535564 13.2175 0.852751 11.0674 1.62002C8.91727 2.38728 6.94761 3.58826 5.28056 5.14849C3.6135 6.70873 2.2846 8.59494 1.37625 10.6902C0.4679 12.7854 -0.000532847 15.045 4.54854e-07 17.3288C0.0179519 20.8801 1.16166 24.3342 3.26653 27.1938C5.3714 30.0535 8.32888 32.1713 11.7133 33.2425L11.52 33.636L8.85333 32.8557C8.7693 32.8302 8.68103 32.8218 8.59371 32.8309C8.50638 32.84 8.42175 32.8665 8.34476 32.9087C8.26778 32.951 8.19999 33.0081 8.14537 33.0769C8.09075 33.1457 8.0504 33.2247 8.02667 33.3092L7.28 35.8704C7.23384 36.0401 7.25286 36.2209 7.33333 36.3773C7.41997 36.532 7.56345 36.6468 7.73333 36.6974L21.8133 40.8059C21.8738 40.8246 21.9368 40.8336 22 40.8326C22.1442 40.8326 22.2846 40.7858 22.4 40.6992C22.5154 40.6126 22.5996 40.4909 22.64 40.3524L23.3867 37.7912C23.4328 37.6215 23.4138 37.4407 23.3333 37.2843C23.2467 37.1296 23.1032 37.0148 22.9333 36.9642L22.1667 36.7374L23.2067 34.7565C27 35.1434 31.42 35.6036 34.6667 35.9371V37.3377C34.6667 37.5146 34.7369 37.6842 34.8619 37.8093C34.987 37.9344 35.1565 38.0046 35.3333 38.0046H39.3333C39.5101 38.0046 39.6797 37.9344 39.8047 37.8093C39.9298 37.6842 40 37.5146 40 37.3377V19.9967C40 19.8198 39.9298 19.6501 39.8047 19.5251C39.6797 19.4 39.5101 19.3297 39.3333 19.3297ZM21.5467 39.3386L8.74667 35.6036L9.12 34.323L21.92 38.058L21.5467 39.3386ZM12.82 34.0162L13.0267 33.596C13.7779 33.7646 14.5396 33.8827 15.3067 33.9495C15.4667 33.9629 18.2067 34.243 21.7733 34.6098L20.86 36.3573L12.82 34.0162ZM32 34.323C26.3667 33.7428 15.7333 32.6423 15.4133 32.6156C12.4549 32.3725 9.63049 31.2756 7.28305 29.4579C4.93561 27.6402 3.16603 25.1798 2.18908 22.3755C1.21214 19.5712 1.06983 16.5435 1.77945 13.6598C2.48906 10.7762 4.02007 8.1606 6.18667 6.13053C9.01616 3.45913 12.7628 1.97651 16.6533 1.9887C17 1.9887 17.3467 2.00204 17.6933 2.02205C20.1969 2.18916 22.6212 2.96857 24.7534 4.29187C26.8856 5.61517 28.6606 7.44188 29.9224 9.61166C31.1841 11.7814 31.8942 14.2279 31.9903 16.7363C32.0864 19.2448 31.5655 21.7384 30.4733 23.9984H29.3333V25.3324H32V34.323ZM34.6667 34.5965C34.32 34.5631 33.8667 34.5164 33.3333 34.4564V25.3324H34.6667V34.5965ZM38.6667 36.6707H36V20.6636H38.6667V36.6707Z" fill="#6D3DF8"/>
<path d="M16.6667 6.14819C14.557 6.14819 12.4947 6.77406 10.7406 7.94665C8.98646 9.11923 7.61929 10.7859 6.81196 12.7358C6.00462 14.6858 5.79339 16.8314 6.20496 18.9015C6.61654 20.9715 7.63244 22.873 9.1242 24.3654C10.616 25.8578 12.5166 26.8742 14.5857 27.2859C16.6548 27.6977 18.7996 27.4863 20.7486 26.6786C22.6977 25.871 24.3636 24.5032 25.5357 22.7483C26.7078 20.9934 27.3333 18.9302 27.3333 16.8196C27.3296 13.9905 26.2046 11.2783 24.2051 9.27786C22.2055 7.27739 19.4945 6.1519 16.6667 6.14819ZM25.3667 13.4648C25.7351 14.4199 25.9424 15.4296 25.98 16.4527C25.188 17.0178 24.2662 17.3734 23.3 17.4865C22.1507 17.5398 21.0083 17.2818 19.9933 16.7395C19.987 16.6232 19.9736 16.5074 19.9533 16.3927C21.0087 16.3044 22.0343 15.9987 22.9659 15.4948C23.8975 14.9909 24.7148 14.2998 25.3667 13.4648ZM22.52 9.55637C23.3951 10.2656 24.1357 11.1263 24.7067 12.0975C24.2033 12.8911 23.5348 13.5667 22.7467 14.0784C21.7745 14.6997 20.653 15.0475 19.5 15.0855C19.44 14.9921 19.3733 14.8921 19.3067 14.8054C20.3302 14.0836 21.1667 13.1278 21.7467 12.0175C22.1424 11.247 22.4039 10.4147 22.52 9.55637ZM21.2667 8.70266C21.229 9.75044 20.9344 10.7729 20.409 11.68C19.8835 12.5872 19.1433 13.3512 18.2533 13.905C18.1547 13.845 18.0522 13.7916 17.9467 13.7449C18.4743 12.6108 18.7213 11.3663 18.6667 10.1166C18.5999 9.21887 18.3309 8.34787 17.88 7.56882C19.0713 7.72516 20.2213 8.11015 21.2667 8.70266ZM18.6667 16.8196C18.6667 17.2153 18.5494 17.6022 18.3296 17.9312C18.1099 18.2603 17.7975 18.5167 17.432 18.6682C17.0666 18.8196 16.6645 18.8592 16.2765 18.782C15.8885 18.7048 15.5322 18.5142 15.2525 18.2344C14.9728 17.9546 14.7823 17.5981 14.7051 17.2099C14.6279 16.8218 14.6675 16.4195 14.8189 16.0539C14.9703 15.6883 15.2266 15.3758 15.5555 15.1559C15.8844 14.936 16.2711 14.8187 16.6667 14.8187C17.1966 14.8203 17.7044 15.0316 18.0791 15.4065C18.4539 15.7814 18.6651 16.2894 18.6667 16.8196ZM16.3 7.50213C16.8648 8.29444 17.2203 9.21674 17.3333 10.1833C17.3825 11.3328 17.1248 12.4746 16.5867 13.4914C16.4667 13.4981 16.3533 13.5114 16.24 13.5248C16.1506 12.4702 15.8445 11.4454 15.3409 10.5147C14.8373 9.58394 14.147 8.76724 13.3133 8.11573C14.2683 7.74781 15.2774 7.54047 16.3 7.50213ZM11.9467 8.77602C12.7399 9.27962 13.4153 9.94845 13.9267 10.7369C14.546 11.7103 14.8936 12.8318 14.9333 13.985C14.8364 14.044 14.7429 14.1086 14.6533 14.1784C13.9319 13.1544 12.9765 12.3175 11.8667 11.7373C11.0959 11.3445 10.2641 11.0851 9.40667 10.9703C10.112 10.0895 10.9729 9.34578 11.9467 8.77602ZM8.55334 12.2175C9.60066 12.2553 10.6227 12.5499 11.5294 13.0756C12.4362 13.6013 13.1999 14.3419 13.7533 15.2322C13.6935 15.3309 13.64 15.4334 13.5933 15.539C12.4598 15.0112 11.2158 14.7641 9.96667 14.8187C9.06932 14.8855 8.19871 15.1546 7.42 15.6057C7.57627 14.4139 7.96109 13.2634 8.55334 12.2175ZM7.96667 20.1744C7.59891 19.2191 7.39167 18.2094 7.35334 17.1864C8.1453 16.6213 9.06719 16.2657 10.0333 16.1526C11.1824 16.1026 12.3239 16.3605 13.34 16.8996C13.3467 17.0181 13.3601 17.1361 13.38 17.2531C12.3247 17.3387 11.2987 17.6425 10.3669 18.1453C9.43504 18.6482 8.61773 19.3391 7.96667 20.1744ZM10.8133 24.0828C9.93825 23.3736 9.1976 22.5129 8.62667 21.5417C9.13005 20.7481 9.79858 20.0724 10.5867 19.5608C11.5592 18.9403 12.6805 18.5925 13.8333 18.5537C13.8933 18.6471 13.96 18.7404 14.0267 18.8338C13.0015 19.5538 12.1647 20.51 11.5867 21.6217C11.191 22.3921 10.9294 23.2244 10.8133 24.0828ZM12.0667 24.9365C12.1044 23.8887 12.3989 22.8663 12.9244 21.9591C13.4498 21.052 14.1901 20.2879 15.08 19.7342C15.1787 19.7941 15.2811 19.8476 15.3867 19.8943C14.859 21.0283 14.6121 22.2728 14.6667 23.5225C14.7335 24.4203 15.0024 25.2913 15.4533 26.0703C14.262 25.914 13.1121 25.529 12.0667 24.9365ZM17.0333 26.137C16.4685 25.3447 16.1131 24.4224 16 23.4558C15.9508 22.3064 16.2085 21.1645 16.7467 20.1477C16.8629 20.1413 16.9787 20.128 17.0933 20.1077C17.1817 21.1635 17.4872 22.1896 17.9909 23.1216C18.4945 24.0536 19.1854 24.8713 20.02 25.5234C19.0651 25.8913 18.0559 26.0987 17.0333 26.137ZM21.3867 24.8631C20.5934 24.3595 19.9181 23.6907 19.4067 22.9023C18.7873 21.9289 18.4397 20.8074 18.4 19.6542C18.4986 19.5951 18.5922 19.5282 18.68 19.4541C19.2834 20.3249 20.0605 21.0612 20.9623 21.6168C21.8641 22.1724 22.8712 22.5351 23.92 22.6822C23.2131 23.5552 22.355 24.2939 21.3867 24.8631ZM24.78 21.4216C23.7327 21.3839 22.7107 21.0892 21.8039 20.5635C20.8972 20.0378 20.1335 19.2973 19.58 18.4069C19.6399 18.3082 19.6933 18.2058 19.74 18.1001C20.763 18.5774 21.8779 18.8255 23.0067 18.8271C23.1267 18.8271 23.2467 18.8271 23.3667 18.8205C24.264 18.7536 25.1346 18.4846 25.9133 18.0334C25.7571 19.2253 25.3723 20.3757 24.78 21.4216Z" fill="#6D3DF8"/>
</svg>
