<svg width="38" height="39" viewBox="0 0 38 39" fill="none" xmlns="http://www.w3.org/2000/svg">
<path d="M29.375 25.1092H27.725C26.7688 24.3276 22.0562 20.7322 16.25 20.7322C10.4438 20.7322 5.7375 24.3276 4.775 25.1092H1.875C1.37818 25.1107 0.902125 25.3088 0.550816 25.6603C0.199506 26.0117 0.00148564 26.488 1.83565e-06 26.9851V30.7368C-0.000300534 30.8595 0.0367588 30.9795 0.106252 31.0807L2.60625 34.8324C2.66287 34.9184 2.73985 34.9891 2.83034 35.0382C2.92084 35.0873 3.02206 35.1133 3.125 35.1138H5.68125C5.82815 35.9876 6.2798 36.7811 6.95603 37.3534C7.63226 37.9256 8.4893 38.2396 9.375 38.2396C10.2607 38.2396 11.1177 37.9256 11.794 37.3534C12.4702 36.7811 12.9219 35.9876 13.0688 35.1138H25.0562C25.2031 35.9876 25.6548 36.7811 26.331 37.3534C27.0073 37.9256 27.8643 38.2396 28.75 38.2396C29.6357 38.2396 30.4927 37.9256 31.169 37.3534C31.8452 36.7811 32.2969 35.9876 32.4437 35.1138H36.875C37.0408 35.1138 37.1997 35.0479 37.3169 34.9306C37.4342 34.8134 37.5 34.6543 37.5 34.4885V33.2379C37.498 31.0827 36.6413 29.0162 35.118 27.4922C33.5947 25.9682 31.5293 25.1112 29.375 25.1092ZM1.25 28.2356H3.20625L2.7875 28.8609H1.25V28.2356ZM9.375 36.9896C8.88055 36.9896 8.3972 36.843 7.98608 36.5681C7.57495 36.2933 7.25452 35.9027 7.0653 35.4456C6.87608 34.9886 6.82657 34.4857 6.92304 34.0005C7.0195 33.5154 7.2576 33.0697 7.60723 32.7199C7.95687 32.3701 8.40232 32.1319 8.88727 32.0354C9.37223 31.9389 9.87489 31.9884 10.3317 32.1777C10.7885 32.367 11.179 32.6876 11.4537 33.0989C11.7284 33.5102 11.875 33.9938 11.875 34.4885C11.875 35.1518 11.6116 35.788 11.1428 36.2571C10.6739 36.7261 10.038 36.9896 9.375 36.9896ZM15.625 33.8632H13.0688C12.9219 32.9894 12.4702 32.1959 11.794 31.6236C11.1177 31.0514 10.2607 30.7374 9.375 30.7374C8.4893 30.7374 7.63226 31.0514 6.95603 31.6236C6.2798 32.1959 5.82815 32.9894 5.68125 33.8632H3.4625L1.25 30.5492V30.1115H3.125C3.22794 30.111 3.32916 30.085 3.41966 30.0359C3.51016 29.9868 3.58713 29.9161 3.64375 29.8301L4.89375 27.9542C4.95821 27.8616 4.99531 27.7526 5.00084 27.6398C5.00637 27.5271 4.98009 27.415 4.925 27.3165C4.87273 27.2159 4.79371 27.1317 4.69666 27.0732C4.59961 27.0148 4.48829 26.9842 4.375 26.9851H1.25C1.25 26.8192 1.31585 26.6602 1.43306 26.5429C1.55027 26.4256 1.70924 26.3598 1.875 26.3598H15.625V33.8632ZM15.625 25.1092H6.9125C9.49937 23.3383 12.5015 22.2696 15.625 22.0078V25.1092ZM34.675 28.8609H32.2125L31.7937 28.2356H34.0812C34.2902 28.4333 34.4884 28.642 34.675 28.8609ZM16.875 22.0078C20.5688 22.1954 23.7937 23.9274 25.5875 25.1092H16.875V22.0078ZM16.875 28.2356H17.8125C17.8954 28.2356 17.9749 28.2686 18.0335 28.3272C18.0921 28.3858 18.125 28.4654 18.125 28.5483C18.125 28.6312 18.0921 28.7107 18.0335 28.7693C17.9749 28.828 17.8954 28.8609 17.8125 28.8609H16.875V28.2356ZM28.75 36.9896C28.2555 36.9896 27.7722 36.843 27.3611 36.5681C26.95 36.2933 26.6295 35.9027 26.4403 35.4456C26.2511 34.9886 26.2016 34.4857 26.298 34.0005C26.3945 33.5154 26.6326 33.0697 26.9822 32.7199C27.3319 32.3701 27.7773 32.1319 28.2623 32.0354C28.7472 31.9389 29.2499 31.9884 29.7067 32.1777C30.1635 32.367 30.554 32.6876 30.8287 33.0989C31.1034 33.5102 31.25 33.9938 31.25 34.4885C31.25 35.1518 30.9866 35.788 30.5178 36.2571C30.0489 36.7261 29.413 36.9896 28.75 36.9896ZM36.25 33.8632H32.4437C32.2969 32.9894 31.8452 32.1959 31.169 31.6236C30.4927 31.0514 29.6357 30.7374 28.75 30.7374C27.8643 30.7374 27.0073 31.0514 26.331 31.6236C25.6548 32.1959 25.2031 32.9894 25.0562 33.8632H16.875V30.1115H17.8125C18.2269 30.1115 18.6243 29.9468 18.9174 29.6536C19.2104 29.3605 19.375 28.9629 19.375 28.5483C19.375 28.1337 19.2104 27.7361 18.9174 27.4429C18.6243 27.1497 18.2269 26.9851 17.8125 26.9851H16.875V26.3598H29.375C30.3571 26.3591 31.3275 26.5724 32.2188 26.9851H30.625C30.5117 26.9842 30.4004 27.0148 30.3033 27.0732C30.2063 27.1317 30.1273 27.2159 30.075 27.3165C30.0199 27.415 29.9936 27.5271 29.9992 27.6398C30.0047 27.7526 30.0418 27.8616 30.1062 27.9542L31.3562 29.8301C31.4129 29.9161 31.4898 29.9868 31.5803 30.0359C31.6708 30.085 31.7721 30.111 31.875 30.1115H35.4937C35.9911 31.0785 36.2503 32.1504 36.25 33.2379V33.8632Z" fill="#6D3DF8"/>
<path d="M28.75 32.6125C28.3792 32.6125 28.0167 32.7225 27.7083 32.9285C27.4 33.1346 27.1596 33.4274 27.0177 33.77C26.8758 34.1126 26.8387 34.4896 26.911 34.8533C26.9834 35.2171 27.162 35.5512 27.4242 35.8134C27.6864 36.0756 28.0205 36.2542 28.3842 36.3265C28.7479 36.3989 29.1249 36.3617 29.4675 36.2198C29.8101 36.0779 30.103 35.8376 30.309 35.5292C30.515 35.2209 30.625 34.8584 30.625 34.4876C30.625 33.9903 30.4275 33.5134 30.0758 33.1617C29.7242 32.8101 29.2473 32.6125 28.75 32.6125ZM28.75 35.1126C28.6264 35.1126 28.5056 35.0759 28.4028 35.0072C28.3 34.9385 28.2199 34.8409 28.1726 34.7267C28.1253 34.6125 28.1129 34.4869 28.137 34.3656C28.1611 34.2444 28.2207 34.133 28.3081 34.0456C28.3955 33.9582 28.5068 33.8987 28.6281 33.8746C28.7493 33.8504 28.875 33.8628 28.9892 33.9101C29.1034 33.9574 29.201 34.0375 29.2697 34.1403C29.3384 34.2431 29.375 34.3639 29.375 34.4876C29.375 34.6533 29.3092 34.8123 29.1919 34.9295C29.0747 35.0467 28.9158 35.1126 28.75 35.1126Z" fill="#6D3DF8"/>
<path d="M9.375 32.6125C9.00416 32.6125 8.64165 32.7225 8.33331 32.9285C8.02496 33.1346 7.78464 33.4274 7.64273 33.77C7.50081 34.1126 7.46368 34.4896 7.53603 34.8533C7.60838 35.2171 7.78695 35.5512 8.04918 35.8134C8.3114 36.0756 8.64549 36.2542 9.0092 36.3265C9.37292 36.3989 9.74992 36.3617 10.0925 36.2198C10.4351 36.0779 10.728 35.8376 10.934 35.5292C11.14 35.2209 11.25 34.8584 11.25 34.4876C11.25 33.9903 11.0525 33.5134 10.7008 33.1617C10.3492 32.8101 9.87228 32.6125 9.375 32.6125ZM9.375 35.1126C9.25139 35.1126 9.13055 35.0759 9.02777 35.0072C8.92499 34.9385 8.84488 34.8409 8.79757 34.7267C8.75027 34.6125 8.73789 34.4869 8.76201 34.3656C8.78612 34.2444 8.84565 34.133 8.93306 34.0456C9.02047 33.9582 9.13183 33.8987 9.25307 33.8746C9.37431 33.8504 9.49997 33.8628 9.61418 33.9101C9.72838 33.9574 9.82599 34.0375 9.89467 34.1403C9.96334 34.2431 10 34.3639 10 34.4876C10 34.6533 9.93415 34.8123 9.81694 34.9295C9.69973 35.0467 9.54076 35.1126 9.375 35.1126Z" fill="#6D3DF8"/>
<path d="M11.875 8.84863C12.3695 8.84863 12.8528 8.70201 13.2639 8.42731C13.675 8.1526 13.9955 7.76216 14.1847 7.30534C14.3739 6.84853 14.4234 6.34586 14.327 5.86091C14.2305 5.37596 13.9924 4.9305 13.6428 4.58087C13.2931 4.23124 12.8477 3.99313 12.3627 3.89667C11.8778 3.80021 11.3751 3.84972 10.9183 4.03894C10.4615 4.22815 10.071 4.54859 9.79633 4.95971C9.52162 5.37083 9.375 5.85418 9.375 6.34863C9.375 7.01168 9.63839 7.64756 10.1072 8.1164C10.5761 8.58524 11.212 8.84863 11.875 8.84863ZM11.875 5.09863C12.1222 5.09863 12.3639 5.17195 12.5695 5.3093C12.775 5.44665 12.9352 5.64187 13.0298 5.87028C13.1245 6.09869 13.1492 6.35002 13.101 6.5925C13.0528 6.83497 12.9337 7.0577 12.7589 7.23252C12.5841 7.40733 12.3613 7.52638 12.1189 7.57462C11.8764 7.62285 11.6251 7.59809 11.3966 7.50348C11.1682 7.40887 10.973 7.24866 10.8357 7.0431C10.6983 6.83754 10.625 6.59586 10.625 6.34863C10.625 6.01711 10.7567 5.69917 10.9911 5.46475C11.2255 5.23033 11.5435 5.09863 11.875 5.09863Z" fill="#6D3DF8"/>
<path d="M17.025 4.49402L16.6062 4.38772L16.8313 4.01881C16.9027 3.89937 16.9323 3.75947 16.9154 3.62128C16.8984 3.4831 16.8358 3.35454 16.7375 3.25598L14.9688 1.48646C14.8695 1.38946 14.7411 1.32775 14.6033 1.31081C14.4656 1.29386 14.3261 1.32262 14.2062 1.39267L13.8375 1.61777L13.7312 1.19884C13.6978 1.06328 13.6199 0.942837 13.51 0.856714C13.4001 0.77059 13.2646 0.723741 13.125 0.723633H10.625C10.4854 0.723741 10.3499 0.77059 10.24 0.856714C10.1301 0.942837 10.0522 1.06328 10.0188 1.19884L9.9125 1.61777L9.54375 1.39267C9.42392 1.32262 9.28442 1.29386 9.14667 1.31081C9.00893 1.32775 8.88055 1.38946 8.78125 1.48646L7.0125 3.25598C6.91422 3.35454 6.85162 3.4831 6.83464 3.62128C6.81766 3.75947 6.84726 3.89937 6.91875 4.01881L7.14375 4.38772L6.725 4.49402C6.5895 4.52753 6.46911 4.60546 6.38302 4.71538C6.29694 4.8253 6.25011 4.96089 6.25 5.10053V7.60162C6.25011 7.74126 6.29694 7.87685 6.38302 7.98677C6.46911 8.09669 6.5895 8.17462 6.725 8.20813L7.14375 8.31443L6.91875 8.68334C6.84726 8.80278 6.81766 8.94268 6.83464 9.08086C6.85162 9.21904 6.91422 9.3476 7.0125 9.44617L8.78125 11.2157C8.88044 11.3129 9.00884 11.3747 9.14664 11.3917C9.28444 11.4086 9.42398 11.3797 9.54375 11.3095L9.9125 11.0844L10.0188 11.5033C10.0522 11.6389 10.1301 11.7593 10.24 11.8454C10.3499 11.9316 10.4854 11.9784 10.625 11.9785H13.125C13.2646 11.9784 13.4001 11.9316 13.51 11.8454C13.6199 11.7593 13.6978 11.6389 13.7312 11.5033L13.8375 11.0844L14.2062 11.3095C14.3261 11.3795 14.4656 11.4083 14.6033 11.3913C14.7411 11.3744 14.8695 11.3127 14.9688 11.2157L16.7375 9.44617C16.8358 9.3476 16.8984 9.21904 16.9154 9.08086C16.9323 8.94268 16.9027 8.80278 16.8313 8.68334L16.6062 8.31443L17.025 8.20813C17.1605 8.17462 17.2809 8.09669 17.367 7.98677C17.4531 7.87685 17.4999 7.74126 17.5 7.60162V5.10053C17.4999 4.96089 17.4531 4.8253 17.367 4.71538C17.2809 4.60546 17.1605 4.52753 17.025 4.49402ZM16.25 7.11391L15.4875 7.30149C15.3929 7.32578 15.3053 7.37175 15.2315 7.43578C15.1577 7.49981 15.0999 7.58013 15.0625 7.6704C15.0246 7.76094 15.0088 7.8592 15.0165 7.95705C15.0241 8.05491 15.0548 8.14955 15.1062 8.23314L15.5062 8.90843L14.4312 9.9839L13.7563 9.57747C13.6717 9.52845 13.5769 9.49957 13.4794 9.49306C13.3818 9.48655 13.2841 9.5026 13.1938 9.53996C13.1035 9.57735 13.0232 9.63523 12.9592 9.70903C12.8952 9.78282 12.8493 9.87051 12.825 9.96514L12.6375 10.728H11.1125L10.925 9.96514C10.9007 9.87051 10.8548 9.78282 10.7908 9.70903C10.7268 9.63523 10.6465 9.57735 10.5562 9.53996C10.4659 9.5026 10.3682 9.48655 10.2706 9.49306C10.1731 9.49957 10.0783 9.52845 9.99375 9.57747L9.31875 9.9839L8.24375 8.90843L8.64375 8.23314C8.69516 8.14955 8.72594 8.05491 8.73355 7.95705C8.74115 7.8592 8.72537 7.76094 8.6875 7.6704C8.65012 7.58013 8.59227 7.49981 8.5185 7.43578C8.44474 7.37175 8.35709 7.32578 8.2625 7.30149L7.5 7.11391V5.58824L8.2625 5.40066C8.35709 5.37637 8.44474 5.3304 8.5185 5.26637C8.59227 5.20234 8.65012 5.12202 8.6875 5.03175C8.72537 4.94121 8.74115 4.84295 8.73355 4.74509C8.72594 4.64724 8.69516 4.5526 8.64375 4.46901L8.24375 3.79371L9.31875 2.71825L9.99375 3.11842C10.0773 3.16985 10.1719 3.20065 10.2697 3.20826C10.3675 3.21587 10.4657 3.20008 10.5562 3.16219C10.6465 3.1248 10.7268 3.06692 10.7908 2.99312C10.8548 2.91932 10.9007 2.83164 10.925 2.73701L11.1125 1.97418H12.6375L12.825 2.73701C12.8493 2.83164 12.8952 2.91932 12.9592 2.99312C13.0232 3.06692 13.1035 3.1248 13.1938 3.16219C13.2843 3.20008 13.3825 3.21587 13.4803 3.20826C13.5781 3.20065 13.6727 3.16985 13.7563 3.11842L14.4312 2.71825L15.5062 3.79371L15.1062 4.46901C15.0548 4.5526 15.0241 4.64724 15.0165 4.74509C15.0088 4.84295 15.0246 4.94121 15.0625 5.03175C15.0999 5.12202 15.1577 5.20234 15.2315 5.26637C15.3053 5.3304 15.3929 5.37637 15.4875 5.40066L16.25 5.58824V7.11391Z" fill="#6D3DF8"/>
<path d="M23.125 11.9775C23.125 12.472 23.2716 12.9553 23.5463 13.3665C23.821 13.7776 24.2115 14.098 24.6683 14.2872C25.1251 14.4765 25.6278 14.526 26.1127 14.4295C26.5977 14.333 27.0431 14.0949 27.3928 13.7453C27.7424 13.3957 27.9805 12.9502 28.077 12.4653C28.1734 11.9803 28.1239 11.4776 27.9347 11.0208C27.7455 10.564 27.4251 10.1736 27.0139 9.89887C26.6028 9.62416 26.1195 9.47754 25.625 9.47754C24.962 9.47754 24.3261 9.74093 23.8572 10.2098C23.3884 10.6786 23.125 11.3145 23.125 11.9775ZM25.625 10.7275C25.8722 10.7275 26.1139 10.8009 26.3195 10.9382C26.525 11.0756 26.6852 11.2708 26.7799 11.4992C26.8745 11.7276 26.8992 11.9789 26.851 12.2214C26.8028 12.4639 26.6837 12.6866 26.5089 12.8614C26.3341 13.0362 26.1113 13.1553 25.8689 13.2035C25.6264 13.2518 25.3751 13.227 25.1467 13.1324C24.9182 13.0378 24.723 12.8776 24.5857 12.672C24.4483 12.4664 24.375 12.2248 24.375 11.9775C24.375 11.646 24.5067 11.3281 24.7411 11.0937C24.9755 10.8592 25.2935 10.7275 25.625 10.7275Z" fill="#6D3DF8"/>
<path d="M30.775 10.119L30.3562 10.0127L30.5813 9.64381C30.6527 9.52437 30.6823 9.38447 30.6654 9.24629C30.6484 9.1081 30.5858 8.97954 30.4875 8.88098L28.7188 7.11146C28.6195 7.01446 28.4911 6.95275 28.3533 6.93581C28.2156 6.91886 28.0761 6.94762 27.9562 7.01767L27.5875 7.24277L27.4813 6.82384C27.4478 6.68828 27.3699 6.56784 27.26 6.48171C27.1501 6.39559 27.0146 6.34874 26.875 6.34863H24.375C24.2354 6.34874 24.0999 6.39559 23.99 6.48171C23.8801 6.56784 23.8022 6.68828 23.7687 6.82384L23.6625 7.24277L23.2938 7.01767C23.1739 6.94762 23.0344 6.91886 22.8967 6.93581C22.7589 6.95275 22.6305 7.01446 22.5312 7.11146L20.7625 8.88098C20.6642 8.97954 20.6016 9.1081 20.5846 9.24629C20.5677 9.38447 20.5973 9.52437 20.6687 9.64381L20.8938 10.0127L20.475 10.119C20.3395 10.1525 20.2191 10.2305 20.133 10.3404C20.0469 10.4503 20.0001 10.5859 20 10.7255V13.2266C20.0001 13.3663 20.0469 13.5018 20.133 13.6118C20.2191 13.7217 20.3395 13.7996 20.475 13.8331L20.8938 13.9394L20.6687 14.3083C20.5973 14.4278 20.5677 14.5677 20.5846 14.7059C20.6016 14.844 20.6642 14.9726 20.7625 15.0712L22.5312 16.8407C22.6304 16.9379 22.7588 16.9997 22.8966 17.0167C23.0344 17.0336 23.174 17.0047 23.2938 16.9345L23.6625 16.7094L23.7687 17.1283C23.8022 17.2639 23.8801 17.3843 23.99 17.4704C24.0999 17.5566 24.2354 17.6034 24.375 17.6035H26.875C27.0146 17.6034 27.1501 17.5566 27.26 17.4704C27.3699 17.3843 27.4478 17.2639 27.4813 17.1283L27.5875 16.7094L27.9562 16.9345C28.076 17.0047 28.2156 17.0336 28.3534 17.0167C28.4912 16.9997 28.6196 16.9379 28.7188 16.8407L30.4875 15.0712C30.5858 14.9726 30.6484 14.844 30.6654 14.7059C30.6823 14.5677 30.6527 14.4278 30.5813 14.3083L30.3562 13.9394L30.775 13.8331C30.9105 13.7996 31.0309 13.7217 31.117 13.6118C31.2031 13.5018 31.2499 13.3663 31.25 13.2266V10.7255C31.2499 10.5859 31.2031 10.4503 31.117 10.3404C31.0309 10.2305 30.9105 10.1525 30.775 10.119ZM30 12.7389L29.2375 12.9265C29.1429 12.9508 29.0553 12.9968 28.9815 13.0608C28.9077 13.1248 28.8499 13.2051 28.8125 13.2954C28.7746 13.3859 28.7588 13.4842 28.7665 13.5821C28.7741 13.6799 28.8048 13.7745 28.8562 13.8581L29.2563 14.5334L28.1812 15.6089L27.5062 15.2025C27.4217 15.1534 27.3269 15.1246 27.2294 15.1181C27.1318 15.1116 27.0341 15.1276 26.9438 15.165C26.8535 15.2023 26.7732 15.2602 26.7092 15.334C26.6452 15.4078 26.5993 15.4955 26.575 15.5901L26.3875 16.353H24.8625L24.675 15.5901C24.6507 15.4955 24.6048 15.4078 24.5408 15.334C24.4768 15.2602 24.3965 15.2023 24.3062 15.165C24.2159 15.1276 24.1182 15.1116 24.0206 15.1181C23.9231 15.1246 23.8283 15.1534 23.7438 15.2025L23.0687 15.6089L21.9937 14.5334L22.3938 13.8581C22.4452 13.7745 22.4759 13.6799 22.4835 13.5821C22.4912 13.4842 22.4754 13.3859 22.4375 13.2954C22.4001 13.2051 22.3423 13.1248 22.2685 13.0608C22.1947 12.9968 22.1071 12.9508 22.0125 12.9265L21.25 12.7389V11.2132L22.0125 11.0257C22.1071 11.0014 22.1947 10.9554 22.2685 10.8914C22.3423 10.8273 22.4001 10.747 22.4375 10.6568C22.4754 10.5662 22.4912 10.4679 22.4835 10.3701C22.4759 10.2722 22.4452 10.1776 22.3938 10.094L21.9937 9.41871L23.0687 8.34325L23.7438 8.74342C23.8273 8.79485 23.9219 8.82565 24.0197 8.83326C24.1175 8.84087 24.2157 8.82508 24.3062 8.78719C24.3965 8.7498 24.4768 8.69192 24.5408 8.61812C24.6048 8.54432 24.6507 8.45664 24.675 8.36201L24.8625 7.59918H26.3875L26.575 8.36201C26.5993 8.45664 26.6452 8.54432 26.7092 8.61812C26.7732 8.69192 26.8535 8.7498 26.9438 8.78719C27.0343 8.82508 27.1325 8.84087 27.2303 8.83326C27.3281 8.82565 27.4227 8.79485 27.5062 8.74342L28.1812 8.34325L29.2563 9.41871L28.8562 10.094C28.8048 10.1776 28.7741 10.2722 28.7665 10.3701C28.7588 10.4679 28.7746 10.5662 28.8125 10.6568C28.8499 10.747 28.9077 10.8273 28.9815 10.8914C29.0553 10.9554 29.1429 11.0014 29.2375 11.0257L30 11.2132V12.7389Z" fill="#6D3DF8"/>
<path d="M36.875 11.353H32.5V12.6036H36.25V25.1093H37.5V11.9783C37.5 11.8125 37.4342 11.6534 37.3169 11.5362C37.1997 11.4189 37.0408 11.353 36.875 11.353Z" fill="#6D3DF8"/>
<path d="M1.25 6.9742H5V5.72363H0.625C0.45924 5.72363 0.300268 5.78951 0.183058 5.90677C0.065848 6.02404 0 6.18308 0 6.34891V23.8568H1.25V6.9742Z" fill="#6D3DF8"/>
<path d="M25 5.09863H26.25V1.34863C26.25 1.18287 26.1842 1.0239 26.0669 0.906691C25.9497 0.789481 25.7908 0.723633 25.625 0.723633H16.875V1.97363H25V5.09863Z" fill="#6D3DF8"/>
<path d="M11.25 13.229V16.979C11.25 17.1448 11.3158 17.3037 11.4331 17.4209C11.5503 17.5382 11.7092 17.604 11.875 17.604H20.625V16.354H12.5V13.229H11.25Z" fill="#6D3DF8"/>
</svg>
