<svg width="40" height="41" viewBox="0 0 40 41" fill="none" xmlns="http://www.w3.org/2000/svg">
<path d="M20 0.696777C16.0444 0.696777 12.1776 1.87028 8.8886 4.06888C5.59962 6.26748 3.03617 9.39243 1.52242 13.0486C0.00866588 16.7047 -0.387401 20.7278 0.384303 24.6092C1.15601 28.4905 3.06082 32.0557 5.85787 34.854C8.65492 37.6523 12.2186 39.558 16.0982 40.33C19.9778 41.1021 23.9992 40.7058 27.6537 39.1914C31.3082 37.677 34.4318 35.1124 36.6294 31.8219C38.827 28.5315 40 24.663 40 20.7056C39.9935 15.401 37.8842 10.3154 34.1349 6.56445C30.3856 2.81347 25.3023 0.703308 20 0.696777ZM20 39.3805C16.3081 39.3805 12.6991 38.2853 9.62936 36.2333C6.55965 34.1812 4.16709 31.2646 2.75426 27.8522C1.34142 24.4398 0.971759 20.6849 1.69202 17.0623C2.41227 13.4397 4.1901 10.1122 6.80068 7.50046C9.41126 4.88872 12.7373 3.11011 16.3583 2.38953C19.9793 1.66896 23.7325 2.03878 27.1434 3.45224C30.5543 4.86571 33.4697 7.25932 35.5208 10.3304C37.5719 13.4015 38.6667 17.0121 38.6667 20.7056C38.6612 25.6568 36.6928 30.4037 33.1933 33.9047C29.6938 37.4058 24.949 39.3751 20 39.3805Z" fill="#6D3DF8"/>
<path d="M24.6668 30.71H15.3334C15.1566 30.71 14.987 30.7802 14.862 30.9052C14.737 31.0302 14.6667 31.1997 14.6667 31.3765V36.7089C14.6667 36.8857 14.737 37.0553 14.862 37.1803C14.987 37.3053 15.1566 37.3755 15.3334 37.3755H24.6668C24.8436 37.3755 25.0131 37.3053 25.1382 37.1803C25.2632 37.0553 25.3334 36.8857 25.3334 36.7089V31.3765C25.3334 31.1997 25.2632 31.0302 25.1382 30.9052C25.0131 30.7802 24.8436 30.71 24.6668 30.71ZM24.0001 36.0424H16.0001V32.0431H24.0001V36.0424Z" fill="#6D3DF8"/>
<path d="M19.9999 4.03003C15.5808 4.03391 11.3439 5.79189 8.21909 8.91805C5.09433 12.0442 3.33714 16.2831 3.33325 20.7041C3.33325 20.881 3.40349 21.0507 3.52851 21.1757C3.65354 21.3008 3.82311 21.3711 3.99992 21.3711H9.33325C9.51006 21.3711 9.67963 21.3008 9.80466 21.1757C9.92968 21.0507 9.99992 20.881 9.99992 20.7041C9.99912 18.8106 10.5357 16.9557 11.5472 15.3553C12.5588 13.7549 14.0037 12.4746 15.7139 11.6635C17.4242 10.8524 19.3294 10.5436 21.2082 10.7733C23.0869 11.0029 24.8618 11.7615 26.3266 12.9607L21.9999 16.4956C21.001 16.0171 19.8651 15.9075 18.7932 16.1862C17.7213 16.4648 16.7823 17.1137 16.1425 18.018C15.5027 18.9224 15.2031 20.024 15.2968 21.1281C15.3906 22.2321 15.8715 23.2674 16.6547 24.0509C17.4378 24.8344 18.4726 25.3155 19.5762 25.4093C20.6797 25.5031 21.7808 25.2034 22.6848 24.5633C23.5888 23.9231 24.2374 22.9838 24.5159 21.9114C24.7944 20.839 24.6848 19.7026 24.2066 18.7032L27.7399 14.3746C29.2041 16.1585 30.003 18.396 29.9999 20.7041C29.9999 20.881 30.0702 21.0507 30.1952 21.1757C30.3202 21.3008 30.4898 21.3711 30.6666 21.3711H35.9999C36.1767 21.3711 36.3463 21.3008 36.4713 21.1757C36.5963 21.0507 36.6666 20.881 36.6666 20.7041C36.6627 16.2831 34.9055 12.0442 31.7807 8.91805C28.656 5.79189 24.419 4.03391 19.9999 4.03003ZM8.68658 20.0372H4.67992C4.77663 17.7982 5.3638 15.6079 6.39992 13.621L9.87992 15.6285C9.18277 17.0001 8.77649 18.5011 8.68658 20.0372ZM10.5466 14.4747L7.07325 12.4671C8.27738 10.5788 9.87913 8.97636 11.7666 7.7717L13.7666 11.2399C12.487 12.0909 11.3919 13.1911 10.5466 14.4747ZM19.3333 9.39909C17.7997 9.48546 16.3 9.88494 14.9266 10.5729L12.9199 7.09806C14.9059 6.06148 17.0953 5.47405 19.3333 5.3773V9.39909ZM19.9999 24.0389C19.1159 24.0389 18.268 23.6876 17.6429 23.0622C17.0178 22.4368 16.6666 21.5886 16.6666 20.7041C16.6666 19.8197 17.0178 18.9715 17.6429 18.3461C18.268 17.7207 19.1159 17.3693 19.9999 17.3693C20.2717 17.3722 20.5423 17.4057 20.8066 17.4694L18.6333 19.2435C18.6161 19.2573 18.6004 19.273 18.5866 19.2902C18.3901 19.4733 18.2325 19.6942 18.1232 19.9397C18.0139 20.1851 17.9551 20.4501 17.9503 20.7187C17.9456 20.9874 17.995 21.2543 18.0956 21.5034C18.1962 21.7526 18.3459 21.9789 18.5358 22.1689C18.7257 22.3589 18.952 22.5087 19.201 22.6093C19.45 22.7099 19.7168 22.7594 19.9853 22.7546C20.2539 22.7499 20.5187 22.6911 20.764 22.5817C21.0093 22.4724 21.2302 22.3147 21.4132 22.1181C21.4304 22.1042 21.4461 22.0886 21.4599 22.0714L23.2332 19.8971C23.2968 20.1615 23.3304 20.4322 23.3332 20.7041C23.3332 21.5886 22.9821 22.4368 22.3569 23.0622C21.7318 23.6876 20.884 24.0389 19.9999 24.0389ZM20.4532 21.1977C20.3235 21.3092 20.1571 21.3688 19.9861 21.3651C19.8151 21.3614 19.6514 21.2947 19.5266 21.1777C19.4645 21.1156 19.4154 21.0417 19.3822 20.9604C19.349 20.8791 19.3324 20.792 19.3333 20.7041C19.3329 20.5367 19.3947 20.3751 19.5066 20.2506L24.6399 16.0621L20.4532 21.1977ZM20.6666 9.39909V5.3773C22.9045 5.47405 25.0939 6.06148 27.0799 7.09806L25.0732 10.5729C23.6998 9.88494 22.2001 9.48546 20.6666 9.39909ZM29.4532 14.4747C29.1914 14.0743 28.9042 13.6911 28.5932 13.3275L29.8466 11.7868C29.9525 11.6597 30.0071 11.4976 29.9996 11.3323C29.9922 11.167 29.9232 11.0104 29.8062 10.8934C29.6893 10.7764 29.5328 10.7074 29.3676 10.6999C29.2023 10.6925 29.0403 10.7471 28.9132 10.8531L27.3666 12.1136C27.0066 11.7999 26.6282 11.5082 26.2332 11.2399L28.2332 7.7717C30.1207 8.97636 31.7224 10.5788 32.9266 12.4671L29.4532 14.4747ZM31.3132 20.0372C31.2233 18.5011 30.8171 17.0001 30.1199 15.6285L33.5999 13.621C34.636 15.6079 35.2232 17.7982 35.3199 20.0372H31.3132Z" fill="#6D3DF8"/>
<path d="M28 25.3743C27.6044 25.3743 27.2178 25.4916 26.8889 25.7113C26.56 25.9311 26.3036 26.2434 26.1522 26.6089C26.0009 26.9744 25.9613 27.3765 26.0384 27.7644C26.1156 28.1524 26.3061 28.5088 26.5858 28.7885C26.8655 29.0682 27.2219 29.2587 27.6098 29.3358C27.9978 29.413 28.3999 29.3734 28.7654 29.222C29.1308 29.0706 29.4432 28.8143 29.6629 28.4854C29.8827 28.1565 30 27.7698 30 27.3743C30 26.8438 29.7893 26.3351 29.4142 25.9601C29.0391 25.585 28.5304 25.3743 28 25.3743ZM28 28.0409C27.8681 28.0409 27.7393 28.0018 27.6296 27.9286C27.52 27.8553 27.4345 27.7512 27.3841 27.6294C27.3336 27.5076 27.3204 27.3735 27.3461 27.2442C27.3719 27.1149 27.4354 26.9961 27.5286 26.9029C27.6218 26.8096 27.7406 26.7461 27.8699 26.7204C27.9993 26.6947 28.1333 26.7079 28.2551 26.7583C28.3769 26.8088 28.4811 26.8943 28.5543 27.0039C28.6276 27.1135 28.6667 27.2424 28.6667 27.3743C28.6667 27.5511 28.5964 27.7206 28.4714 27.8457C28.3464 27.9707 28.1768 28.0409 28 28.0409Z" fill="#6D3DF8"/>
<path d="M33.3333 25.3743C32.9377 25.3743 32.551 25.4916 32.2221 25.7113C31.8932 25.9311 31.6369 26.2434 31.4855 26.6089C31.3341 26.9744 31.2945 27.3765 31.3717 27.7644C31.4489 28.1524 31.6393 28.5088 31.919 28.7885C32.1987 29.0682 32.5551 29.2587 32.9431 29.3358C33.331 29.413 33.7332 29.3734 34.0986 29.222C34.4641 29.0706 34.7764 28.8143 34.9962 28.4854C35.216 28.1565 35.3333 27.7698 35.3333 27.3743C35.3333 26.8438 35.1225 26.3351 34.7475 25.9601C34.3724 25.585 33.8637 25.3743 33.3333 25.3743ZM33.3333 28.0409C33.2014 28.0409 33.0725 28.0018 32.9629 27.9286C32.8532 27.8553 32.7678 27.7512 32.7173 27.6294C32.6669 27.5076 32.6537 27.3735 32.6794 27.2442C32.7051 27.1149 32.7686 26.9961 32.8618 26.9029C32.9551 26.8096 33.0739 26.7461 33.2032 26.7204C33.3325 26.6947 33.4666 26.7079 33.5884 26.7583C33.7102 26.8088 33.8143 26.8943 33.8876 27.0039C33.9608 27.1135 33.9999 27.2424 33.9999 27.3743C33.9999 27.5511 33.9297 27.7206 33.8047 27.8457C33.6796 27.9707 33.5101 28.0409 33.3333 28.0409Z" fill="#6D3DF8"/>
<path d="M12 25.3743C11.6044 25.3743 11.2178 25.4916 10.8889 25.7113C10.56 25.9311 10.3036 26.2434 10.1522 26.6089C10.0009 26.9744 9.96126 27.3765 10.0384 27.7644C10.1156 28.1524 10.3061 28.5088 10.5858 28.7885C10.8655 29.0682 11.2219 29.2587 11.6098 29.3358C11.9978 29.413 12.3999 29.3734 12.7654 29.222C13.1308 29.0706 13.4432 28.8143 13.6629 28.4854C13.8827 28.1565 14 27.7698 14 27.3743C14 26.8438 13.7893 26.3351 13.4142 25.9601C13.0391 25.585 12.5304 25.3743 12 25.3743ZM12 28.0409C11.8681 28.0409 11.7393 28.0018 11.6296 27.9286C11.52 27.8553 11.4345 27.7512 11.3841 27.6294C11.3336 27.5076 11.3204 27.3735 11.3461 27.2442C11.3719 27.1149 11.4354 26.9961 11.5286 26.9029C11.6218 26.8096 11.7406 26.7461 11.8699 26.7204C11.9993 26.6947 12.1333 26.7079 12.2551 26.7583C12.3769 26.8088 12.4811 26.8943 12.5543 27.0039C12.6276 27.1135 12.6667 27.2424 12.6667 27.3743C12.6667 27.5511 12.5964 27.7206 12.4714 27.8457C12.3464 27.9707 12.1768 28.0409 12 28.0409Z" fill="#6D3DF8"/>
<path d="M6.66675 25.3743C6.27119 25.3743 5.88451 25.4916 5.55561 25.7113C5.22671 25.9311 4.97037 26.2434 4.81899 26.6089C4.66761 26.9744 4.62801 27.3765 4.70518 27.7644C4.78235 28.1524 4.97283 28.5088 5.25254 28.7885C5.53224 29.0682 5.88861 29.2587 6.27657 29.3358C6.66453 29.413 7.06666 29.3734 7.43212 29.222C7.79757 29.0706 8.10992 28.8143 8.32969 28.4854C8.54945 28.1565 8.66675 27.7698 8.66675 27.3743C8.66675 26.8438 8.45603 26.3351 8.08096 25.9601C7.70589 25.585 7.19718 25.3743 6.66675 25.3743ZM6.66675 28.0409C6.53489 28.0409 6.406 28.0018 6.29637 27.9286C6.18674 27.8553 6.10129 27.7512 6.05083 27.6294C6.00037 27.5076 5.98717 27.3735 6.01289 27.2442C6.03862 27.1149 6.10211 26.9961 6.19534 26.9029C6.28858 26.8096 6.40737 26.7461 6.53669 26.7204C6.66601 26.6947 6.80005 26.7079 6.92187 26.7583C7.04369 26.8088 7.14781 26.8943 7.22106 27.0039C7.29432 27.1135 7.33342 27.2424 7.33342 27.3743C7.33342 27.5511 7.26318 27.7206 7.13815 27.8457C7.01313 27.9707 6.84356 28.0409 6.66675 28.0409Z" fill="#6D3DF8"/>
<path d="M15.3333 26.708H16.6666V28.0413H15.3333V26.708Z" fill="#6D3DF8"/>
<path d="M18 26.708H21.3333V28.0413H18V26.708Z" fill="#6D3DF8"/>
<path d="M22.6667 26.708H24.0001V28.0413H22.6667V26.708Z" fill="#6D3DF8"/>
</svg>
