<svg width="12" height="14" viewBox="0 0 12 14" fill="none" xmlns="http://www.w3.org/2000/svg">
<path d="M11 3.49451H9.619C9.94215 3.01345 10.0666 2.42601 9.96631 1.85524C9.86602 1.28447 9.54875 0.774646 9.08097 0.432566C8.61319 0.0904862 8.03118 -0.0573123 7.45686 0.0201297C6.88254 0.0975716 6.36047 0.394246 6 0.848008C5.63953 0.394246 5.11746 0.0975716 4.54314 0.0201297C3.96882 -0.0573123 3.38681 0.0904862 2.91903 0.432566C2.45125 0.774646 2.13398 1.28447 2.03369 1.85524C1.93339 2.42601 2.05786 3.01345 2.381 3.49451H1C0.734865 3.49477 0.480665 3.60022 0.293186 3.78769C0.105707 3.97517 0.000264738 4.22937 0 4.49451V6.49451C0.000264738 6.75964 0.105707 7.01384 0.293186 7.20132C0.480665 7.3888 0.734865 7.49424 1 7.49451V12.4945C1.00026 12.7596 1.10571 13.0138 1.29319 13.2013C1.48066 13.3888 1.73486 13.4942 2 13.4945H10C10.2651 13.4942 10.5193 13.3888 10.7068 13.2013C10.8943 13.0138 10.9997 12.7596 11 12.4945V7.49451C11.2651 7.49424 11.5193 7.3888 11.7068 7.20132C11.8943 7.01384 11.9997 6.75964 12 6.49451V4.49451C11.9997 4.22937 11.8943 3.97517 11.7068 3.78769C11.5193 3.60022 11.2651 3.49477 11 3.49451ZM6.5 2.24451C6.5 1.99728 6.57331 1.75561 6.71066 1.55005C6.84801 1.34448 7.04324 1.18427 7.27165 1.08966C7.50005 0.995049 7.75139 0.970295 7.99386 1.01853C8.23634 1.06676 8.45907 1.18581 8.63388 1.36063C8.8087 1.53544 8.92775 1.75817 8.97598 2.00065C9.02421 2.24312 8.99946 2.49446 8.90485 2.72286C8.81024 2.95127 8.65002 3.14649 8.44446 3.28385C8.2389 3.4212 7.99723 3.49451 7.75 3.49451H6.5V2.24451ZM4.25 0.994509C4.5814 0.994905 4.89911 1.12673 5.13345 1.36106C5.36778 1.5954 5.4996 1.91311 5.5 2.24451V3.49451H4.25C3.91848 3.49451 3.60054 3.36281 3.36612 3.12839C3.1317 2.89397 3 2.57603 3 2.24451C3 1.91299 3.1317 1.59505 3.36612 1.36063C3.60054 1.1262 3.91848 0.994509 4.25 0.994509ZM1 4.49451H5.5V6.49451H1V4.49451ZM2 7.49451H5.5V12.4945H2V7.49451ZM10.0005 12.4945H6.5V7.49451H10L10.0005 12.4945ZM6.5 6.49451V4.49451H11L11.0005 6.49451H6.5Z" fill="#636363"/>
</svg>
