<svg width="20" height="20" fill="none" xmlns="http://www.w3.org/2000/svg"><path d="M19.655 16.552H.345A.345.345 0 010 16.207V3.793c0-.19.154-.345.345-.345h19.31c.19 0 .345.155.345.345v12.414c0 .19-.154.345-.345.345z" fill="#41479B"/><path d="M20 3.793a.345.345 0 00-.345-.345h-1.543l-6.388 4.186V3.448H8.276v4.186L1.888 3.448H.345A.345.345 0 000 3.793v.892l5.48 3.59H0v3.45h5.48L0 15.314v.892c0 .19.154.345.345.345h1.543l6.388-4.186v4.186h3.448v-4.186l6.388 4.186h1.543c.19 0 .345-.155.345-.345v-.892l-5.48-3.59H20v-3.45h-5.48L20 4.686v-.892z" fill="#F5F5F5"/><path d="M20 8.965h-8.966V3.448H8.965v5.517H0v2.07h8.965v5.517h2.07v-5.518H20V8.965z" fill="#FF4B55"/><path d="M6.99 11.724L.01 16.255a.34.34 0 00.335.297H.82l7.437-4.828H6.99zM13.53 11.724h-1.266l7.426 4.82a.341.341 0 00.31-.337v-.284l-6.47-4.199zM0 4.174l6.32 4.102h1.266L.201 3.482A.343.343 0 000 3.793v.38zM12.99 8.276l6.998-4.542a.34.34 0 00-.333-.286h-.494l-7.437 4.828h1.267z" fill="#FF4B55"/></svg>