<svg width="20" height="20" fill="none" xmlns="http://www.w3.org/2000/svg"><path d="M.345 16.552h19.31c.19 0 .345-.155.345-.345V3.793a.345.345 0 00-.345-.345H.345A.345.345 0 000 3.793v12.414c0 .19.154.345.345.345z" fill="#C8414B"/><path d="M20 6.207H0v7.586h20V6.207z" fill="#FFD250"/><path d="M8.448 10l.293-1.316a.194.194 0 00-.19-.236h-.206a.194.194 0 00-.189.236L8.448 10z" fill="#C8414B"/><path d="M8.793 9.31h-.69v2.931h.69v-2.93z" fill="#F5F5F5"/><path d="M8.966 8.966H7.93v.344h1.035v-.344z" fill="#FAB446"/><path d="M8.965 10H7.241v.345h1.724V10zM8.965 11.38l-1.034-.346v-.344l1.034.345v.344zM3.276 10l.292-1.316a.194.194 0 00-.19-.236h-.205a.194.194 0 00-.19.236L3.276 10z" fill="#C8414B"/><path d="M4.483 8.966a.345.345 0 00-.345.344v2.242c0 .419.39 1.207 1.724 1.207 1.333 0 1.724-.788 1.724-1.207V9.31a.345.345 0 00-.345-.344H4.483z" fill="#F5F5F5"/><path d="M5.862 10.69H4.138V9.31c0-.19.154-.344.345-.344h1.379v1.724z" fill="#C8414B"/><path d="M5.862 10.69h1.724v.862a.862.862 0 11-1.724 0v-.862z" fill="#C8414B"/><path d="M4.138 10.69h1.724v.862a.862.862 0 11-1.724 0v-.862z" fill="#FAB446"/><path d="M5.518 12.238V10.69h-.345v1.706a.853.853 0 00.345-.159zM4.828 12.396V10.69h-.345v1.548c.1.076.217.132.345.158z" fill="#C8414B"/><path d="M5.518 10H4.483v.345h1.035V10z" fill="#FFB441"/><path d="M5.518 9.31H4.483v.345h1.035V9.31z" fill="#FAB446"/><path d="M5.345 9.515h-.69v.625h.69v-.625z" fill="#FAB446"/><path d="M3.62 9.31h-.689v2.931h.69v-2.93z" fill="#F5F5F5"/><path d="M3.793 12.07H2.758v.344h1.035v-.345zM3.793 8.966H2.758v.344h1.035v-.344z" fill="#FAB446"/><path d="M3.966 12.414h-1.38v.345h1.38v-.345z" fill="#5064AA"/><path d="M9.138 12.07H8.103v.344h1.035v-.345z" fill="#FAB446"/><path d="M9.138 12.414h-1.38v.345h1.38v-.345z" fill="#5064AA"/><path d="M6.897 8.62h-2.07v.346h2.07V8.62z" fill="#FAB446"/><path d="M6.035 7.586H5.69v1.035h.345V7.586z" fill="#FFB441"/><path d="M5.517 8.103a.518.518 0 11.001-1.035.518.518 0 010 1.035zm0-.69a.173.173 0 100 .346.173.173 0 000-.345z" fill="#F5F5F5"/><path d="M6.207 8.103a.518.518 0 110-1.035.518.518 0 010 1.035zm0-.69a.173.173 0 100 .346.173.173 0 000-.345z" fill="#F5F5F5"/><path d="M6.896 8.448a.518.518 0 11.002-1.035.518.518 0 01-.002 1.035zm0-.69a.173.173 0 100 .346.173.173 0 000-.345zM4.827 8.448a.518.518 0 11.001-1.035.518.518 0 010 1.035zm0-.69a.173.173 0 100 .346.173.173 0 000-.345z" fill="#F5F5F5"/><path d="M6.897 11.38v.172a.173.173 0 01-.345 0v-.173h.345zm.344-.346H6.207v.518a.518.518 0 001.034 0v-.518z" fill="#FAB446"/><path d="M6.724 10.345A.345.345 0 016.38 10v-.345a.345.345 0 01.69 0V10c0 .19-.155.345-.345.345z" fill="#FFA0D2"/><path d="M5.862 11.207a.517.517 0 100-1.035.517.517 0 000 1.035z" fill="#5064AA"/><path d="M6.035 6.897H5.69V7.93h.345V6.897z" fill="#FAB446"/><path d="M4.828 8.62l-.345-.344.202-.202a1.665 1.665 0 012.355 0l.202.202-.345.345h-2.07z" fill="#C8414B"/><path d="M5.862 8.448a.172.172 0 100-.345.172.172 0 000 .345zM5.172 8.448a.172.172 0 100-.345.172.172 0 000 .345zM6.551 8.448a.172.172 0 100-.345.172.172 0 000 .345z" fill="#FFD250"/><path d="M4.483 10H2.758v.345h1.725V10zM2.759 11.38l1.034-.346v-.344l-1.034.345v.344z" fill="#C8414B"/></svg>