<svg width="352" height="75" fill="none" xmlns="http://www.w3.org/2000/svg"><g clip-path="url(#clip0)" fill="#32A573"><path d="M53.6.7c-5.3 0-10.3 2.1-14.1 5.8l-7.4 7.4c-3.5-2.7-7.7-4.1-12.2-4.1-5.3 0-10.3 2.1-14.1 5.8C-2 23.4-2 36 5.8 43.8l17.4 17.4 9 9 9-9 26.5-26.5c3.8-3.8 5.8-8.8 5.8-14.1 0-5.3-2.1-10.3-5.8-14.1C63.9 2.8 58.9.7 53.6.7zm5.1 25.1L32.2 52.2 14.8 34.8c-2.8-2.8-2.8-7.4 0-10.2 2.8-2.8 7.4-2.8 10.2 0l7.2 7.2 16.2-16.2c2.8-2.8 7.4-2.8 10.2 0 2.9 2.8 2.9 7.4.1 10.2zM211.8 32.8c-4 0-7.2 3.2-7.2 7.2s3.2 7.2 7.2 7.2S219 44 219 40c0-3.9-3.2-7.2-7.2-7.2zM161.9 32.8c-4 0-7.2 3.2-7.2 7.2s3.2 7.2 7.2 7.2 7.2-3.2 7.2-7.2c0-3.9-3.2-7.2-7.2-7.2zM261.7 32.8c-4 0-7.2 3.2-7.2 7.2s3.2 7.2 7.2 7.2 7.2-3.2 7.2-7.2c0-3.9-3.2-7.2-7.2-7.2z"/><path d="M346 40.6v-.5c0-19-15.4-34.4-34.4-34.4-9.8 0-18.7 4.1-24.9 10.7-6.3-6.6-15.1-10.7-24.9-10.7h-.5c-3.6-3.5-8.5-5.7-13.9-5.7-7.6 0-14.3 4.3-17.6 10.6-5.2-3.2-11.3-5-17.8-5-9.8 0-18.7 4.1-24.9 10.7-6.3-6.6-15.1-10.7-24.9-10.7-4.6 0-9 .9-13.1 2.6-3.6-5-9.5-8.2-16.1-8.2h-28.9c-11 0-20 9-20 20 0 9.1 6.1 16.8 14.4 19.2v15.4c0 11 9 20 20 20 8 0 14.9-4.7 18.1-11.5 6.3 7 15.4 11.4 25.6 11.4 9.8 0 18.7-4.1 24.9-10.7 6.3 6.6 15.1 10.7 24.9 10.7 9.8 0 18.7-4.1 24.9-10.7 6.3 6.6 15.1 10.7 24.9 10.7 9.8 0 18.7-4.1 24.9-10.7 6.3 6.6 15.1 10.7 24.9 10.7h20.2c11 0 20-9 20-20-.2-5.4-2.3-10.3-5.8-13.9zM132.7 27.2h-7.3V54.6c0 4-3.2 7.2-7.2 7.2s-7.2-3.2-7.2-7.2V27.9v-.8h-7.3c-4 0-7.2-3.2-7.2-7.2s3.2-7.2 7.2-7.2h28.9c4 0 7.2 3.2 7.2 7.2s-3.1 7.3-7.1 7.3zm29.2 34.5c-12 0-21.7-9.7-21.7-21.7s9.7-21.7 21.7-21.7S183.6 28 183.6 40s-9.7 21.7-21.7 21.7zm49.9 0c-12 0-21.7-9.7-21.7-21.7s9.7-21.7 21.7-21.7S233.5 28 233.5 40s-9.7 21.7-21.7 21.7zm49.9 0c-12 0-21.7-9.7-21.7-21.7V20c0-4 3.2-7.2 7.2-7.2 3.9 0 7 3.1 7.2 6.9 2.3-.8 4.7-1.2 7.2-1.2 12 0 21.7 9.7 21.7 21.7 0 11.8-9.7 21.5-21.6 21.5zm70 0h-20.1c-12 0-21.7-9.7-21.7-21.7s9.7-21.7 21.7-21.7S333.3 28 333.3 40c0 2.5-.4 5-1.2 7.2 3.8.2 6.9 3.3 6.9 7.2-.1 4.1-3.3 7.3-7.3 7.3z"/><path d="M311.6 32.8c-4 0-7.2 3.2-7.2 7.2s3.2 7.2 7.2 7.2 7.2-3.2 7.2-7.2c0-3.9-3.2-7.2-7.2-7.2z"/></g><defs><clipPath id="clip0"><path fill="#fff" d="M0 0h351.6v74.5H0z"/></clipPath></defs></svg>