<svg width="693" height="502" viewBox="0 0 693 502" fill="none" xmlns="http://www.w3.org/2000/svg">
<path d="M255.546 84.7723V108.693H60.3354V84.7723H49.5796V389.216H60.3354V373.859H255.546V389.216H266.3V84.7723H255.546ZM255.546 366.549H60.3354V309.394H255.546V366.549ZM255.546 302.085H60.3354V244.93H255.546V302.085ZM255.546 237.621H60.3354V180.462H255.546V237.621ZM255.546 173.157H60.3354V116.004H255.546V173.157Z" fill="#E0FAF6"/>
<path d="M119.031 210.333H77.5448C76.9489 210.333 76.4658 210.816 76.4658 211.412V222.963C76.4658 223.559 76.9489 224.042 77.5448 224.042H119.031C119.627 224.042 120.11 223.559 120.11 222.963V211.412C120.11 210.816 119.627 210.333 119.031 210.333Z" fill="#E0FAF6"/>
<path d="M247.941 79.7206C247.897 79.5449 247.827 79.3767 247.734 79.2215C247.644 79.0682 247.533 78.9287 247.404 78.8072H247.392C247.263 78.6895 247.118 78.5905 246.961 78.5131H246.951C246.787 78.4352 246.614 78.3815 246.435 78.3537V68.4512C246.435 68.1933 246.385 67.9378 246.286 67.6995C246.188 67.4612 246.043 67.2446 245.86 67.0622C245.678 66.8798 245.462 66.7352 245.223 66.6366C244.985 66.5381 244.729 66.4875 244.471 66.4877H241.195C240.937 66.4875 240.681 66.5381 240.443 66.6366C240.205 66.7352 239.988 66.8798 239.806 67.0622C239.623 67.2446 239.479 67.4612 239.38 67.6995C239.282 67.9378 239.231 68.1933 239.231 68.4512V79.731H237.717V65.7048C237.717 65.4062 237.658 65.1105 237.544 64.8348C237.429 64.5591 237.261 64.3087 237.049 64.0982C236.837 63.8876 236.586 63.7209 236.31 63.6078C236.034 63.4947 235.738 63.4373 235.439 63.4389H231.657C231.056 63.4389 230.48 63.6776 230.055 64.1026C229.63 64.5275 229.391 65.1038 229.391 65.7048V79.731H227.869V62.4447C227.869 62.101 227.801 61.7607 227.669 61.4432C227.538 61.1257 227.345 60.8372 227.102 60.5943C226.859 60.3513 226.57 60.1587 226.252 60.0273C225.935 59.896 225.594 59.8285 225.251 59.8288H221.065C220.372 59.8304 219.708 60.1068 219.219 60.5972C218.73 61.0876 218.455 61.752 218.455 62.4447V77.3325C218.315 77.3442 218.176 77.3692 218.041 77.4071C217.979 77.4257 217.917 77.4465 217.857 77.4693H217.842L217.676 77.5417L217.654 77.5542C217.602 77.5789 217.551 77.6066 217.502 77.637L217.471 77.6557C217.426 77.6847 217.382 77.7136 217.339 77.7468L217.301 77.7737C217.262 77.8048 217.223 77.8359 217.183 77.8711L217.144 77.9063C217.109 77.9394 217.074 77.9725 217.04 78.0078L216.997 78.0554C216.968 78.0885 216.937 78.1237 216.91 78.159L216.864 78.219C216.84 78.2522 216.815 78.2874 216.792 78.3226L216.748 78.393C216.728 78.4282 216.707 78.4634 216.69 78.4986L216.649 78.5815C216.632 78.615 216.617 78.6496 216.603 78.685C216.589 78.7161 216.579 78.7492 216.566 78.7803L216.533 78.8798C216.533 78.917 216.512 78.9543 216.504 78.9916C216.496 79.0289 216.487 79.0537 216.481 79.0848C216.475 79.1159 216.467 79.1738 216.461 79.2194C216.454 79.265 216.461 79.2691 216.461 79.2961C216.452 79.369 216.448 79.4422 216.448 79.5156V79.7227H100.556V79.6875C100.556 79.6129 100.556 79.5405 100.556 79.468C100.556 79.4431 100.556 79.4183 100.546 79.3934C100.535 79.3686 100.533 79.3023 100.523 79.2567C100.512 79.2111 100.508 79.1966 100.502 79.1656C100.496 79.1345 100.483 79.0889 100.473 79.0517C100.463 79.0144 100.45 78.9875 100.438 78.9543C100.425 78.9212 100.415 78.888 100.403 78.8569C100.39 78.8259 100.372 78.7886 100.355 78.7534C100.338 78.7182 100.33 78.6975 100.316 78.6706C100.301 78.6436 100.276 78.6001 100.256 78.5649L100.214 78.4966C100.189 78.4593 100.165 78.4241 100.138 78.3889L100.096 78.333C100.067 78.2957 100.036 78.2605 100.005 78.2252L99.9677 78.1818C99.9325 78.1445 99.8953 78.1093 99.858 78.0761L99.8248 78.0451C99.7834 78.0098 99.742 77.9746 99.6985 77.9415L99.6716 77.9229C99.626 77.8876 99.5763 77.8545 99.5266 77.8234H99.51C99.4561 77.7903 99.4023 77.7613 99.3464 77.7323C99.1 77.6107 98.8331 77.5363 98.5593 77.5127V62.6104C98.5593 62.2665 98.4915 61.9258 98.3598 61.6081C98.2281 61.2903 98.0351 61.0016 97.7918 60.7585C97.5485 60.5154 97.2596 60.3226 96.9417 60.1911C96.6239 60.0597 96.2832 59.9922 95.9392 59.9924H91.7554C91.4103 59.9902 91.0682 60.0564 90.7488 60.187C90.4293 60.3176 90.1389 60.5101 89.8942 60.7535C89.6495 60.9968 89.4554 61.2862 89.323 61.6049C89.1906 61.9236 89.1226 62.2653 89.1229 62.6104V79.7186H87.5985V65.8581C87.5985 65.2577 87.36 64.6819 86.9354 64.2573C86.5109 63.8328 85.9351 63.5943 85.3347 63.5943H81.5485C81.2511 63.594 80.9565 63.6523 80.6816 63.766C80.4067 63.8796 80.1568 64.0463 79.9464 64.2566C79.736 64.4668 79.569 64.7165 79.4551 64.9913C79.3412 65.2661 79.2826 65.5606 79.2826 65.8581V79.7186H77.7603V68.6169C77.7603 68.3591 77.7095 68.1038 77.6108 67.8655C77.5122 67.6273 77.3675 67.4109 77.1852 67.2285C77.0029 67.0462 76.7864 66.9016 76.5482 66.8029C76.31 66.7042 76.0546 66.6534 75.7968 66.6534H72.5222C72.0034 66.6562 71.5069 66.8643 71.1412 67.2323C70.7756 67.6003 70.5706 68.0982 70.5711 68.6169V78.5194H70.5566C70.1474 78.5854 69.7723 78.7876 69.492 79.0931C69.3247 79.2769 69.1958 79.4924 69.113 79.7269H64.6061V87.5208H69.0799C69.1815 87.8516 69.3744 88.1469 69.6364 88.373C69.8983 88.599 70.2187 88.7466 70.5608 88.7987V98.6991C70.5602 98.957 70.6106 99.2125 70.7089 99.451C70.8072 99.6894 70.9516 99.9061 71.1338 100.089C71.316 100.271 71.5324 100.416 71.7707 100.515C72.0089 100.614 72.2643 100.665 72.5222 100.665H75.8009C76.3219 100.664 76.8213 100.457 77.1895 100.088C77.5576 99.7197 77.7644 99.22 77.7644 98.6991V87.5146H79.2868V101.439C79.2868 102.04 79.5249 102.615 79.949 103.04C80.373 103.465 80.9483 103.704 81.5485 103.705H85.3305C85.628 103.705 85.9226 103.647 86.1974 103.533C86.4721 103.419 86.7218 103.252 86.932 103.041C87.1423 102.831 87.309 102.581 87.4226 102.306C87.5363 102.031 87.5946 101.737 87.5944 101.439V87.5146H89.1188V104.689C89.1188 105.383 89.3946 106.049 89.8856 106.54C90.3765 107.031 91.0424 107.307 91.7368 107.307H95.9206C96.2646 107.307 96.6052 107.24 96.9231 107.108C97.241 106.977 97.5298 106.784 97.7732 106.541C98.0165 106.298 98.2095 106.009 98.3412 105.691C98.4729 105.374 98.5407 105.033 98.5407 104.689V89.8012C99.0886 89.755 99.5993 89.5049 99.9718 89.1003C100.344 88.6957 100.551 88.166 100.552 87.6161V87.5146H216.436C216.452 88.0532 216.665 88.567 217.036 88.9582C217.406 89.3494 217.908 89.5905 218.445 89.6355V104.523C218.445 105.218 218.721 105.884 219.212 106.375C219.703 106.866 220.368 107.141 221.063 107.141H225.249C225.943 107.141 226.609 106.866 227.1 106.375C227.591 105.884 227.867 105.218 227.867 104.523V87.5146H229.389V101.274C229.389 101.571 229.448 101.866 229.561 102.141C229.675 102.416 229.842 102.665 230.053 102.876C230.263 103.086 230.513 103.253 230.788 103.367C231.063 103.481 231.357 103.54 231.655 103.54H235.439C236.04 103.54 236.616 103.301 237.041 102.876C237.466 102.451 237.705 101.875 237.705 101.274V87.5146H239.229V98.5293C239.229 98.787 239.28 99.0422 239.379 99.2803C239.477 99.5184 239.622 99.7348 239.804 99.9169C239.987 100.099 240.203 100.244 240.442 100.342C240.68 100.44 240.935 100.491 241.193 100.491H244.469C244.727 100.491 244.982 100.44 245.221 100.342C245.459 100.244 245.675 100.099 245.858 99.9169C246.04 99.7348 246.185 99.5184 246.283 99.2803C246.382 99.0422 246.433 98.787 246.433 98.5293V88.6268C246.745 88.5784 247.039 88.4507 247.288 88.256C247.536 88.0612 247.73 87.8059 247.852 87.5146H252.386V79.7206H247.941Z" fill="#E0FAF6"/>
<path d="M247.941 144.924C247.897 144.748 247.827 144.579 247.734 144.423C247.644 144.27 247.533 144.131 247.404 144.009L247.392 143.998C247.263 143.881 247.118 143.783 246.961 143.706H246.951C246.788 143.627 246.614 143.573 246.435 143.547V133.653C246.435 133.395 246.385 133.139 246.286 132.901C246.188 132.662 246.043 132.446 245.861 132.263C245.678 132.08 245.462 131.936 245.223 131.837C244.985 131.738 244.73 131.687 244.471 131.687H241.195C240.937 131.687 240.681 131.738 240.443 131.837C240.205 131.936 239.988 132.08 239.806 132.263C239.623 132.446 239.479 132.662 239.38 132.901C239.282 133.139 239.231 133.395 239.231 133.653V144.933H237.717V130.904C237.717 130.304 237.478 129.728 237.053 129.303C236.628 128.879 236.052 128.64 235.451 128.64H231.669C231.069 128.64 230.493 128.879 230.068 129.303C229.643 129.728 229.404 130.304 229.403 130.904V144.933H227.881V127.646C227.881 126.952 227.605 126.286 227.114 125.795C226.623 125.304 225.957 125.028 225.263 125.028H221.077C220.733 125.028 220.392 125.095 220.074 125.226C219.756 125.358 219.467 125.55 219.223 125.794C218.98 126.037 218.787 126.326 218.655 126.643C218.523 126.961 218.455 127.302 218.455 127.646V142.534C218.315 142.546 218.176 142.571 218.041 142.609C217.978 142.626 217.917 142.646 217.857 142.669H217.842C217.786 142.69 217.73 142.714 217.676 142.741H217.654L217.502 142.824L217.471 142.843C217.426 142.872 217.382 142.903 217.339 142.934L217.301 142.961L217.183 143.058L217.144 143.095C217.109 143.129 217.074 143.162 217.04 143.197L216.997 143.245C216.968 143.278 216.937 143.313 216.91 143.348C216.883 143.383 216.881 143.387 216.864 143.406L216.792 143.512L216.748 143.582C216.728 143.617 216.707 143.65 216.69 143.686L216.649 143.771C216.632 143.803 216.617 143.837 216.603 143.872C216.589 143.903 216.579 143.936 216.566 143.969C216.554 144.003 216.543 144.034 216.533 144.067C216.523 144.1 216.512 144.143 216.504 144.181C216.496 144.218 216.487 144.241 216.481 144.272C216.475 144.303 216.467 144.363 216.461 144.406C216.454 144.45 216.461 144.458 216.461 144.485C216.452 144.557 216.448 144.63 216.448 144.703V144.91H100.556V144.875C100.556 144.8 100.556 144.728 100.556 144.655C100.556 144.63 100.556 144.605 100.546 144.58C100.54 144.535 100.533 144.489 100.523 144.444C100.523 144.413 100.508 144.382 100.502 144.351C100.496 144.319 100.483 144.276 100.473 144.239C100.463 144.201 100.45 144.172 100.438 144.139C100.425 144.106 100.415 144.075 100.403 144.042C100.39 144.009 100.372 143.974 100.355 143.94C100.338 143.907 100.33 143.885 100.316 143.858C100.301 143.831 100.276 143.785 100.256 143.75L100.214 143.682C100.189 143.644 100.165 143.609 100.138 143.574C100.125 143.555 100.111 143.537 100.096 143.52C100.067 143.483 100.036 143.445 100.005 143.41L99.9677 143.369C99.9325 143.331 99.8953 143.296 99.858 143.261C99.8479 143.25 99.8368 143.241 99.8248 143.232C99.7847 143.195 99.7425 143.161 99.6985 143.129L99.6716 143.108C99.626 143.073 99.5763 143.039 99.5266 143.008H99.51C99.4561 142.977 99.4023 142.946 99.3464 142.919C99.1003 142.797 98.8332 142.722 98.5593 142.7V127.812C98.5593 127.468 98.4915 127.127 98.3598 126.81C98.2281 126.492 98.0351 126.203 97.7918 125.96C97.5485 125.717 97.2596 125.524 96.9417 125.393C96.6239 125.261 96.2832 125.194 95.9392 125.194H91.7554C91.0611 125.194 90.3952 125.47 89.9042 125.961C89.4132 126.452 89.1374 127.118 89.1374 127.812V144.922H87.613V131.064C87.6133 130.766 87.5549 130.472 87.4413 130.197C87.3276 129.922 87.1609 129.672 86.9507 129.462C86.7404 129.251 86.4908 129.084 86.216 128.97C85.9412 128.857 85.6466 128.798 85.3492 128.798H81.5485C80.9476 128.798 80.3712 129.037 79.9463 129.462C79.5214 129.886 79.2826 130.463 79.2826 131.064V144.924H77.7603V133.81C77.7603 133.552 77.7095 133.297 77.6108 133.059C77.5122 132.821 77.3675 132.604 77.1852 132.422C77.0029 132.239 76.7864 132.095 76.5482 131.996C76.31 131.897 76.0546 131.847 75.7968 131.847H72.5222C72.2645 131.847 72.0092 131.897 71.7711 131.996C71.533 132.095 71.3167 132.24 71.1345 132.422C70.9524 132.604 70.8079 132.821 70.7095 133.059C70.611 133.297 70.5605 133.552 70.5608 133.81V143.711H70.5463C70.1367 143.776 69.7613 143.978 69.4817 144.284C69.3134 144.467 69.1844 144.683 69.1027 144.918H64.6061V152.712H69.0799C69.1812 153.043 69.374 153.338 69.6361 153.564C69.8981 153.79 70.2187 153.937 70.5608 153.988V163.892C70.5605 164.15 70.611 164.405 70.7095 164.644C70.8079 164.882 70.9524 165.098 71.1345 165.281C71.3167 165.463 71.533 165.608 71.7711 165.706C72.0092 165.805 72.2645 165.856 72.5222 165.856H75.8009C76.3215 165.855 76.8206 165.648 77.1887 165.28C77.5568 164.912 77.7639 164.413 77.7644 163.892V152.708H79.2868V166.633C79.2854 166.931 79.3429 167.226 79.4559 167.502C79.5689 167.778 79.7352 168.029 79.9453 168.24C80.1554 168.451 80.4052 168.619 80.6803 168.734C80.9554 168.849 81.2504 168.908 81.5485 168.909H85.3305C85.628 168.909 85.9226 168.85 86.1974 168.736C86.4721 168.622 86.7218 168.455 86.932 168.245C87.1423 168.035 87.309 167.785 87.4226 167.51C87.5363 167.235 87.5946 166.94 87.5944 166.643V152.718H89.1188V169.899C89.1188 170.593 89.3946 171.259 89.8856 171.75C90.3765 172.241 91.0424 172.517 91.7368 172.517H95.9206C96.2649 172.518 96.606 172.451 96.9244 172.319C97.2427 172.188 97.5321 171.995 97.7758 171.752C98.0196 171.509 98.213 171.22 98.3449 170.902C98.4769 170.584 98.5448 170.243 98.5448 169.899V155.011C99.0928 154.965 99.6035 154.715 99.9759 154.31C100.348 153.905 100.555 153.376 100.556 152.826V152.724H216.44C216.455 153.263 216.669 153.777 217.04 154.168C217.41 154.559 217.912 154.799 218.449 154.843V169.733C218.449 170.077 218.517 170.417 218.648 170.735C218.78 171.052 218.973 171.341 219.216 171.584C219.459 171.827 219.748 172.019 220.065 172.151C220.383 172.282 220.723 172.349 221.067 172.349H225.253C225.596 172.349 225.937 172.282 226.254 172.151C226.572 172.019 226.861 171.827 227.104 171.584C227.347 171.341 227.54 171.052 227.671 170.735C227.803 170.417 227.871 170.077 227.871 169.733V152.724H229.393V166.483C229.393 167.084 229.632 167.661 230.057 168.086C230.482 168.511 231.058 168.749 231.659 168.749H235.439C236.04 168.749 236.616 168.511 237.041 168.086C237.466 167.661 237.705 167.084 237.705 166.483V152.724H239.229V163.737C239.229 163.995 239.28 164.25 239.378 164.489C239.477 164.727 239.621 164.944 239.804 165.126C239.986 165.308 240.203 165.453 240.441 165.552C240.679 165.65 240.935 165.701 241.193 165.7H244.469C244.727 165.701 244.983 165.65 245.221 165.552C245.459 165.453 245.676 165.308 245.858 165.126C246.041 164.944 246.185 164.727 246.284 164.489C246.383 164.25 246.433 163.995 246.433 163.737V153.835C246.745 153.787 247.039 153.659 247.288 153.465C247.536 153.271 247.73 153.016 247.852 152.724H252.386V144.93L247.941 144.924Z" fill="#E0FAF6"/>
<path d="M124.456 224.042H72.1183C71.4503 224.042 70.9088 224.584 70.9088 225.252V236.542C70.9088 237.21 71.4503 237.751 72.1183 237.751H124.456C125.124 237.751 125.665 237.21 125.665 236.542V225.252C125.665 224.584 125.124 224.042 124.456 224.042Z" fill="#E0FAF6"/>
<path d="M115.363 196.623H81.2109C80.6687 196.623 80.2292 197.063 80.2292 197.605V209.351C80.2292 209.893 80.6687 210.333 81.2109 210.333H115.363C115.905 210.333 116.345 209.893 116.345 209.351V197.605C116.345 197.063 115.905 196.623 115.363 196.623Z" fill="#E0FAF6"/>
<path d="M178.696 224.042H126.359C125.691 224.042 125.149 224.584 125.149 225.252V236.542C125.149 237.21 125.691 237.751 126.359 237.751H178.696C179.364 237.751 179.906 237.21 179.906 236.542V225.252C179.906 224.584 179.364 224.042 178.696 224.042Z" fill="#E0FAF6"/>
<path d="M173.272 210.333H131.786C131.19 210.333 130.706 210.816 130.706 211.412V222.963C130.706 223.559 131.19 224.042 131.786 224.042H173.272C173.868 224.042 174.351 223.559 174.351 222.963V211.412C174.351 210.816 173.868 210.333 173.272 210.333Z" fill="#E0FAF6"/>
<path d="M180.671 194.493L170.667 200.269C170.151 200.567 169.974 201.227 170.272 201.743L191.015 237.671C191.313 238.187 191.973 238.364 192.489 238.066L202.493 232.29C203.009 231.992 203.186 231.332 202.888 230.816L182.145 194.888C181.847 194.372 181.187 194.195 180.671 194.493Z" fill="#E0FAF6"/>
<path d="M197.749 198.924L189.581 207.092C189.16 207.513 189.159 208.196 189.581 208.618L218.916 237.953C219.337 238.374 220.021 238.374 220.442 237.953L228.61 229.785C229.031 229.364 229.031 228.68 228.61 228.259L199.275 198.924C198.853 198.502 198.17 198.502 197.749 198.924Z" fill="#E0FAF6"/>
<path d="M169.604 196.623H135.452C134.909 196.623 134.47 197.063 134.47 197.605V209.351C134.47 209.893 134.909 210.333 135.452 210.333H169.604C170.146 210.333 170.585 209.893 170.585 209.351V197.605C170.585 197.063 170.146 196.623 169.604 196.623Z" fill="#E0FAF6"/>
<path d="M99.9056 283.107C99.7986 283.008 99.7138 282.888 99.657 282.754C99.6002 282.62 99.5727 282.475 99.5763 282.33C99.5908 280.605 99.5991 278.879 99.5763 277.152C99.5494 274.689 97.8448 272.657 95.407 272.328C94.3299 272.183 93.2156 272.303 92.12 272.303V272.251C91.3184 272.251 90.5189 272.251 89.7194 272.251C86.7659 272.268 84.6553 274.391 84.6533 277.34C84.6533 279.018 84.6636 280.698 84.6408 282.375C84.6283 282.628 84.5279 282.868 84.3571 283.055C82.4536 284.977 81.3228 287.27 81.0825 289.96C80.4612 296.977 86.2957 302.802 93.2695 302.006C97.8261 301.486 101.055 298.978 102.561 294.629C104.06 290.312 103.07 286.418 99.9056 283.107ZM97.0329 280.828C93.6899 279.463 90.405 279.443 87.0476 280.828C87.0476 279.432 86.9958 278.136 87.0621 276.833C87.1023 276.198 87.3844 275.603 87.8502 275.17C88.316 274.737 88.9302 274.499 89.5662 274.505C91.2231 274.486 92.8863 274.486 94.5557 274.505C95.1496 274.52 95.7191 274.744 96.1642 275.138C96.6093 275.531 96.9014 276.069 96.9894 276.657C97.0218 276.905 97.0357 277.156 97.0308 277.407C97.0349 278.521 97.0329 279.631 97.0329 280.826V280.828Z" fill="#E0FAF6"/>
<path d="M142.079 279.989C141.955 279.875 141.856 279.735 141.789 279.58C141.723 279.424 141.692 279.256 141.696 279.086C141.713 277.075 141.723 275.066 141.696 273.057C141.665 270.191 139.681 267.825 136.841 267.442C135.599 267.272 134.292 267.413 133.014 267.413V267.351C132.082 267.351 131.15 267.351 130.22 267.351C126.782 267.372 124.323 269.836 124.321 273.275C124.321 275.23 124.333 277.183 124.306 279.138C124.293 279.432 124.176 279.712 123.977 279.929C121.761 282.166 120.444 284.836 120.164 287.968C119.439 296.139 126.235 302.916 134.354 301.994C139.671 301.391 143.418 298.473 145.172 293.405C146.918 288.372 145.756 283.846 142.079 279.989ZM138.734 277.332C134.841 275.743 131.005 275.721 127.109 277.332C127.109 275.708 127.049 274.19 127.125 272.68C127.174 271.941 127.502 271.249 128.045 270.745C128.587 270.241 129.301 269.963 130.042 269.969C131.978 269.948 133.915 269.952 135.841 269.969C136.533 269.986 137.196 270.246 137.714 270.704C138.233 271.162 138.573 271.789 138.674 272.473C138.713 272.763 138.729 273.055 138.724 273.347C138.739 274.648 138.734 275.944 138.734 277.332Z" fill="#E0FAF6"/>
<path d="M183.76 277.367C183.62 277.239 183.51 277.083 183.436 276.909C183.362 276.734 183.326 276.546 183.332 276.357C183.35 274.109 183.361 271.86 183.332 269.613C183.298 266.404 181.078 263.759 177.901 263.331C176.499 263.14 175.049 263.298 173.62 263.298V263.229C172.584 263.229 171.534 263.229 170.492 263.229C166.648 263.25 163.897 266.015 163.895 269.857C163.895 272.044 163.91 274.231 163.879 276.417C163.863 276.746 163.733 277.06 163.51 277.303C161.025 279.805 159.556 282.792 159.246 286.296C158.432 295.436 166.035 303.017 175.119 301.986C181.066 301.31 185.268 298.05 187.219 292.377C189.172 286.754 187.882 281.682 183.76 277.367ZM180.018 274.395C175.668 272.618 171.37 272.591 167.013 274.405C167.013 272.587 166.946 270.884 167.031 269.198C167.116 267.512 168.558 266.187 170.293 266.168C172.46 266.143 174.626 266.148 176.791 266.168C177.564 266.187 178.306 266.479 178.886 266.991C179.466 267.503 179.847 268.203 179.962 268.969C180.003 269.293 180.021 269.619 180.016 269.946C180.022 271.388 180.018 272.838 180.018 274.395Z" fill="#E0FAF6"/>
<path d="M226.947 273.223C226.784 273.073 226.655 272.89 226.569 272.687C226.482 272.483 226.44 272.263 226.446 272.042C226.469 269.416 226.481 266.792 226.446 264.172C226.407 260.427 223.815 257.337 220.106 256.835C218.468 256.614 216.775 256.798 215.106 256.798V256.717C213.888 256.717 212.672 256.717 211.454 256.717C206.966 256.742 203.754 259.971 203.752 264.455C203.752 267.009 203.768 269.563 203.731 272.119C203.713 272.504 203.561 272.87 203.3 273.154C200.4 276.075 198.683 279.563 198.329 283.653C197.381 294.328 206.258 303.181 216.864 301.977C223.809 301.188 228.706 297.371 230.994 290.758C233.275 284.182 231.769 278.26 226.947 273.223ZM222.577 269.751C217.49 267.68 212.48 267.647 207.389 269.764C207.389 267.639 207.312 265.657 207.412 263.685C207.513 261.674 209.195 260.164 211.22 260.145C213.749 260.116 216.28 260.12 218.809 260.145C219.712 260.168 220.579 260.508 221.256 261.106C221.932 261.705 222.377 262.522 222.511 263.416C222.559 263.794 222.58 264.175 222.575 264.557C222.598 266.245 222.585 267.935 222.585 269.751H222.577Z" fill="#E0FAF6"/>
<path d="M99.9056 347.434C99.7985 347.336 99.7137 347.216 99.6569 347.082C99.6001 346.949 99.5726 346.804 99.5763 346.659C99.5908 344.932 99.5991 343.207 99.5763 341.481C99.5494 339.019 97.8448 336.987 95.407 336.657C94.3299 336.512 93.2156 336.633 92.12 336.633V336.581C91.3184 336.581 90.5189 336.581 89.7194 336.581C86.7659 336.6 84.6553 338.72 84.6533 341.67C84.6533 343.348 84.6636 345.027 84.6408 346.705C84.6283 346.958 84.5279 347.199 84.3571 347.386C82.4536 349.306 81.3228 351.599 81.0825 354.29C80.4612 361.307 86.2957 367.131 93.2695 366.336C97.8261 365.818 101.055 363.308 102.561 358.958C104.067 354.609 103.07 350.748 99.9056 347.434ZM97.0329 345.156C93.6899 343.791 90.405 343.77 87.0476 345.156C87.0476 343.76 86.9958 342.463 87.0621 341.16C87.1023 340.526 87.3844 339.93 87.8502 339.497C88.316 339.064 88.9302 338.826 89.5662 338.832C91.2231 338.814 92.8925 338.818 94.5557 338.832C95.149 338.847 95.718 339.071 96.163 339.464C96.608 339.856 96.9005 340.393 96.9894 340.98C97.0218 341.229 97.0357 341.479 97.0308 341.73C97.0349 342.844 97.0329 343.958 97.0329 345.154V345.156Z" fill="#E0FAF6"/>
<path d="M142.079 344.317C141.955 344.202 141.856 344.063 141.789 343.907C141.723 343.751 141.692 343.583 141.696 343.414C141.713 341.405 141.723 339.393 141.696 337.384C141.665 334.518 139.681 332.152 136.841 331.769C135.599 331.599 134.292 331.74 133.014 331.74V331.68C132.082 331.68 131.15 331.68 130.22 331.68C126.782 331.701 124.323 334.166 124.321 337.604C124.321 339.559 124.333 341.512 124.306 343.467C124.293 343.762 124.176 344.042 123.977 344.259C121.761 346.496 120.444 349.165 120.164 352.297C119.439 360.468 126.235 367.245 134.354 366.323C139.671 365.72 143.418 362.802 145.172 357.734C146.918 352.707 145.756 348.173 142.079 344.317ZM138.734 341.659C134.841 340.071 131.005 340.048 127.109 341.659C127.109 340.035 127.049 338.517 127.125 337.007C127.174 336.269 127.503 335.577 128.045 335.073C128.587 334.57 129.302 334.292 130.042 334.298C131.978 334.275 133.915 334.28 135.841 334.298C136.533 334.315 137.196 334.576 137.714 335.034C138.233 335.492 138.573 336.118 138.674 336.802C138.713 337.092 138.729 337.384 138.724 337.676C138.739 338.975 138.734 340.27 138.734 341.659Z" fill="#E0FAF6"/>
<path d="M183.76 341.695C183.62 341.567 183.51 341.41 183.436 341.236C183.362 341.062 183.326 340.873 183.332 340.684C183.35 338.437 183.361 336.187 183.332 333.94C183.298 330.734 181.078 328.087 177.901 327.658C176.499 327.468 175.049 327.625 173.62 327.625V327.557C172.584 327.557 171.534 327.557 170.492 327.557C166.648 327.579 163.897 330.342 163.895 334.184C163.895 336.372 163.91 338.559 163.879 340.744C163.864 341.074 163.733 341.387 163.51 341.63C161.025 344.132 159.556 347.119 159.246 350.624C158.432 359.764 166.035 367.344 175.119 366.313C181.066 365.638 185.268 362.378 187.219 356.705C189.172 351.081 187.882 346.009 183.76 341.695ZM180.018 338.723C175.668 336.945 171.37 336.921 167.013 338.733C167.013 336.914 166.946 335.212 167.031 333.526C167.118 331.805 168.558 330.514 170.293 330.496C172.46 330.471 174.626 330.475 176.791 330.496C177.564 330.515 178.306 330.806 178.886 331.318C179.466 331.831 179.847 332.531 179.962 333.296C180.003 333.621 180.021 333.948 180.016 334.276C180.022 335.719 180.018 337.167 180.018 338.723Z" fill="#E0FAF6"/>
<path d="M226.947 337.55C226.784 337.401 226.655 337.218 226.569 337.014C226.482 336.811 226.44 336.591 226.446 336.37C226.469 333.745 226.481 331.119 226.446 328.499C226.407 324.754 223.815 321.664 220.106 321.163C218.468 320.941 216.775 321.125 215.106 321.125V321.045C213.888 321.045 212.672 321.045 211.454 321.045C206.966 321.072 203.754 324.299 203.752 328.783C203.752 331.337 203.768 333.89 203.731 336.446C203.714 336.831 203.561 337.198 203.3 337.482C200.4 340.402 198.683 343.89 198.329 347.983C197.381 358.656 206.258 367.508 216.864 366.305C223.809 365.516 228.706 361.698 230.994 355.085C233.275 348.511 231.769 342.587 226.947 337.55ZM222.577 334.079C217.49 332.008 212.48 331.974 207.389 334.091C207.389 331.966 207.312 329.984 207.412 328.012C207.513 326.001 209.195 324.491 211.22 324.473C213.749 324.444 216.28 324.448 218.809 324.473C219.712 324.496 220.578 324.836 221.255 325.434C221.932 326.032 222.376 326.85 222.511 327.743C222.559 328.121 222.58 328.503 222.575 328.884C222.598 330.572 222.585 332.262 222.585 334.079H222.577Z" fill="#E0FAF6"/>
<path opacity="0.12" d="M147.803 488.518C182.092 488.518 209.888 478.275 209.888 465.64C209.888 453.004 182.092 442.761 147.803 442.761C113.515 442.761 85.7185 453.004 85.7185 465.64C85.7185 478.275 113.515 488.518 147.803 488.518Z" fill="#00D9B6"/>
<path opacity="0.12" d="M345.57 474.852C414.748 474.852 470.828 465.994 470.828 455.066C470.828 444.139 414.748 435.28 345.57 435.28C276.392 435.28 220.312 444.139 220.312 455.066C220.312 465.994 276.392 474.852 345.57 474.852Z" fill="#00D9B6"/>
<path opacity="0.12" d="M495.434 501.513C528.175 501.513 554.717 492.654 554.717 481.727C554.717 470.799 528.175 461.941 495.434 461.941C462.692 461.941 436.15 470.799 436.15 481.727C436.15 492.654 462.692 501.513 495.434 501.513Z" fill="#00D9B6"/>
<path opacity="0.12" d="M551.31 448.119C584.052 448.119 610.594 441.354 610.594 433.008C610.594 424.662 584.052 417.896 551.31 417.896C518.569 417.896 492.027 424.662 492.027 433.008C492.027 441.354 518.569 448.119 551.31 448.119Z" fill="#00D9B6"/>
<path opacity="0.12" d="M653.045 389.204H0V397.033H653.045V389.204Z" fill="#00D9B6"/>
<path d="M192.028 454.782C190.051 449.462 192.694 439.17 192.694 439.17L177.472 433.008C176.223 441.231 174.375 447.612 173.102 448.71C178.385 453.092 185.167 455.269 192.028 454.782Z" fill="#FFACA6"/>
<path d="M204.895 467.388C203.855 465.731 196.627 460.837 192.987 456.51C192.571 455.992 192.246 455.408 192.028 454.782C185.163 455.272 178.375 453.095 173.089 448.71C173.037 448.756 172.98 448.796 172.919 448.83C169.714 450.435 162.18 463.094 168.871 465.377C175.562 467.659 180.981 472.727 185.788 475.318C190.596 477.909 200.773 477.412 202.737 476.965C204.702 476.518 205.936 469.051 204.895 467.388Z" fill="#0E1856"/>
<path d="M204.895 467.388C203.855 465.731 196.627 460.837 192.987 456.51C192.571 455.992 192.246 455.408 192.028 454.782C185.163 455.272 178.375 453.095 173.089 448.71C173.037 448.756 172.98 448.796 172.919 448.83C169.714 450.435 162.18 463.094 168.871 465.377C175.562 467.659 180.981 472.727 185.788 475.318C190.596 477.909 200.773 477.412 202.737 476.965C204.702 476.518 205.936 469.051 204.895 467.388Z" fill="black" fill-opacity="0.12"/>
<path d="M113.575 434.574C113.248 428.911 118.8 419.839 118.8 419.839L106.055 409.514C102.451 417.014 98.8006 422.579 97.2543 423.255C101.019 428.986 106.868 433.043 113.575 434.574Z" fill="#FFACA6"/>
<path d="M122.172 450.375C121.658 448.48 116.191 441.703 113.985 436.498C113.735 435.882 113.594 435.229 113.568 434.565C106.862 433.035 101.013 428.978 97.2481 423.246C97.1817 423.277 97.1118 423.299 97.04 423.313C93.502 423.913 82.576 433.826 88.2992 437.956C94.0223 442.086 97.7184 448.519 101.552 452.392C105.385 456.265 115.26 458.757 117.275 458.902C119.289 459.047 122.69 452.27 122.172 450.375Z" fill="#0E1856"/>
<path d="M206.893 270.63L209.434 273.125C209.434 273.125 217.343 321.14 212.879 364.358C208.415 407.576 199.12 441.724 199.12 441.724C199.12 441.724 183.214 446.527 171.955 434.609C171.955 434.609 181.784 404.908 182.153 382.678C182.521 360.447 177.328 326.041 177.328 326.041L177.863 275.077L206.893 270.63Z" fill="#192169"/>
<mask id="mask0" mask-type="alpha" maskUnits="userSpaceOnUse" x="171" y="270" width="44" height="173">
<path d="M206.893 270.63L209.434 273.125C209.434 273.125 217.343 321.14 212.879 364.358C208.415 407.576 199.12 441.724 199.12 441.724C199.12 441.724 183.214 446.527 171.955 434.609C171.955 434.609 181.784 404.908 182.153 382.678C182.521 360.447 177.328 326.041 177.328 326.041L177.863 275.077L206.893 270.63Z" fill="#003DA8"/>
</mask>
<g mask="url(#mask0)">
<path d="M193.101 264.346C193.101 264.346 202.063 333.963 198.042 355.379C194.021 376.796 166.201 428.014 166.201 428.014V302.433L170.307 272.222L193.101 264.346Z" fill="#0E1856"/>
</g>
<path d="M187.772 278.187V280.17C187.772 280.17 184.327 317.037 178.25 341.044C172.173 365.052 145.508 398.678 124.956 424.116C124.956 424.116 105.835 423.584 99.0441 407.754C99.0441 407.754 134.113 355.783 139.616 329.765C148.215 289.111 149.206 278.262 152.727 272.222L173.93 275.52L187.772 278.187Z" fill="#0E1856"/>
<path d="M187.772 278.187V280.17C187.772 280.17 184.327 317.037 178.25 341.044C172.173 365.052 145.508 398.678 124.956 424.116C124.956 424.116 105.835 423.584 99.0441 407.754C99.0441 407.754 134.113 355.783 139.616 329.765C148.215 289.111 149.206 278.262 152.727 272.222L173.93 275.52L187.772 278.187Z" fill="black" fill-opacity="0.12"/>
<mask id="mask1" mask-type="alpha" maskUnits="userSpaceOnUse" x="99" y="272" width="89" height="153">
<path d="M187.772 278.187V280.17C187.772 280.17 184.327 317.037 178.25 341.044C172.173 365.052 145.508 398.678 124.956 424.116C124.956 424.116 105.835 423.584 99.0441 407.754C99.0441 407.754 134.113 355.783 139.616 329.765C148.215 289.111 149.206 278.262 152.727 272.222L173.93 275.52L187.772 278.187Z" fill="#0542BF"/>
</mask>
<g mask="url(#mask1)">
<path d="M168.746 269.547C168.746 269.547 167.618 342.911 150.195 363.188C132.771 383.465 104.457 423.253 104.457 423.253L88.0037 406.403L122.226 346.645L148.215 264.743L162.265 265.011L168.746 269.547Z" fill="#192169"/>
</g>
<path d="M636.49 190.199C636.196 193.55 635.718 196.878 635.26 200.211C634.965 200.351 634.633 200.392 634.313 200.329C632.211 200.103 630.098 199.958 627.992 199.78C624.292 199.467 620.627 198.887 616.941 198.481C616.544 198.445 616.152 198.369 615.77 198.254C615 198.096 614.215 198.046 613.437 197.939C611.851 197.591 610.23 197.433 608.638 197.11C608.255 197.036 607.855 196.996 607.535 196.735C607.92 193.593 608.278 190.447 608.7 187.309C608.854 186.154 609.936 185.445 611.183 185.59C613.972 185.924 616.76 186.282 619.547 186.626C624.334 187.226 629.12 187.827 633.907 188.428C634.373 188.488 634.833 188.581 635.297 188.658L636.49 190.199Z" fill="#0953C9"/>
<path d="M581.695 407.439C581.233 406.403 581.164 405.357 581.304 404.243C585.275 372.84 601.308 245.759 605.27 214.355C605.297 214.136 605.349 213.918 605.391 213.699C605.67 213.512 605.976 213.597 606.259 213.657C607.986 214.015 609.728 214.278 611.474 214.539C612.186 214.784 612.931 214.78 613.672 214.892C614.003 214.974 614.396 214.892 614.633 215.233C614.729 216.379 614.538 217.512 614.371 218.63C614.074 220.612 613.907 222.611 613.614 224.595C613.212 227.315 612.91 230.047 612.573 232.772C612.101 236.556 611.666 240.347 611.158 244.127C610.617 248.149 610.171 252.182 609.607 256.2C609.36 257.962 609.191 259.739 608.968 261.506C608.519 265.015 596.049 364.209 595.556 367.711C595.123 370.775 594.763 373.848 594.38 376.916C593.678 382.545 592.96 388.171 592.276 393.802C591.799 397.721 591.287 401.635 590.773 405.548C590.728 405.968 590.705 406.391 590.704 406.813C590.705 407.024 590.631 407.228 590.496 407.389C589.531 409.272 588.016 410.37 585.866 410.179C584.041 410.02 582.484 409.241 581.695 407.439Z" fill="#FFC36C"/>
<path d="M581.695 407.439C582.84 409.019 584.303 410.057 586.344 409.993C588.097 409.939 589.368 409.088 590.153 407.526C590.228 407.375 590.224 407.17 590.482 407.24C590.921 407.948 591.094 408.775 591.635 409.456C593.641 411.989 597.364 411.608 599.044 408.835C599.21 408.557 599.212 408.064 599.751 408.156C600.043 409.011 600.23 409.902 600.877 410.608C601.724 411.534 602.75 412.058 603.999 412.027C605.179 411.987 606.305 411.735 607.258 410.97C607.447 410.819 607.643 410.649 607.924 410.722C606.251 413.522 604.578 416.322 602.906 419.121C600.603 422.956 598.295 426.79 595.982 430.62C595.447 430.597 595.104 430.183 594.663 429.967C593.832 429.538 592.925 429.276 591.992 429.196C591.06 429.116 590.121 429.22 589.229 429.501C589.021 429.568 588.813 429.667 588.578 429.582C586.532 423.074 584.488 416.567 582.444 410.061C582.182 409.195 581.947 408.315 581.695 407.439Z" fill="#FFD6A1"/>
<path d="M611.435 214.682C609.401 214.475 607.404 214.044 605.399 213.698C605.927 209.418 606.455 205.137 606.983 200.857C607.156 199.482 607.356 198.111 607.543 196.737L613.543 197.773C613.751 198.046 613.645 198.347 613.61 198.635C612.97 203.726 612.328 208.816 611.682 213.906C611.641 214.185 611.657 214.473 611.435 214.682Z" fill="#48A0FF"/>
<path d="M588.586 429.584C591.26 428.474 593.722 428.861 595.99 430.62C594.631 432.886 593.274 435.152 591.92 437.418C591.826 437.577 591.639 437.708 591.697 437.933L591.266 438.095C590.373 435.259 589.479 432.422 588.586 429.584Z" fill="#192169"/>
<path d="M607.932 410.724C606.878 411.686 605.502 412.226 604.072 412.24C602.954 412.274 601.869 411.867 601.05 411.109C600.232 410.351 599.747 409.302 599.701 408.191C599.571 407.978 599.52 407.727 599.558 407.48C599.589 407.234 599.616 406.987 599.647 406.743C603.574 375.621 619.578 248.824 623.512 217.702C623.566 217.267 623.53 216.803 623.818 216.42C624.09 216.169 624.419 216.238 624.735 216.277C627.339 216.602 629.955 216.78 632.571 216.961C632.67 216.955 632.77 216.971 632.863 217.006C632.956 217.042 633.04 217.097 633.11 217.168C632.706 220.482 632.313 223.81 631.894 227.128C629.199 248.53 614.423 365.607 611.724 387.008C610.85 393.944 609.978 400.881 609.108 407.82C609.014 408.882 608.604 409.893 607.932 410.724Z" fill="#FDAB01"/>
<path d="M633.12 217.162C630.323 217.008 627.532 216.768 624.746 216.484C624.477 216.455 624.205 216.464 623.936 216.453C623.739 216.562 623.51 216.598 623.289 216.555C620.494 216.163 617.67 215.96 614.904 215.395C614.78 215.379 614.664 215.33 614.567 215.252L613.645 215.045C613.376 214.838 613.48 214.546 613.514 214.287C614.158 209.134 614.807 203.982 615.464 198.831C615.497 198.575 615.464 198.27 615.776 198.129C622.244 199.078 628.739 199.773 635.26 200.215C634.991 202.452 634.735 204.691 634.45 206.926C634.028 210.335 633.564 213.748 633.12 217.162Z" fill="#48A0FF"/>
<path d="M615.776 198.125C615.064 203.763 614.354 209.402 613.645 215.041C612.902 214.956 612.153 214.921 611.435 214.682C612.101 209.372 612.766 204.06 613.431 198.747C613.47 198.428 613.501 198.109 613.535 197.788C614.289 197.842 615.039 197.955 615.776 198.125Z" fill="#DDDDDD"/>
<path d="M614.567 215.252L623.932 216.453C623.772 216.693 623.784 216.975 623.751 217.242C619.782 248.681 603.738 375.795 599.772 407.232C599.732 407.549 599.728 407.872 599.707 408.191C599.435 408.209 599.453 408.46 599.374 408.622C598.937 409.562 598.202 410.333 597.281 410.816C596.361 411.299 595.306 411.468 594.28 411.296C592.348 410.989 590.771 409.305 590.477 407.24C590.446 405.44 590.798 403.671 591.025 401.903C591.258 400.063 591.508 398.222 591.757 396.383C592.132 393.614 592.463 390.84 592.812 388.067C593.229 384.736 593.678 381.406 594.061 378.071C594.367 375.451 594.729 372.842 594.998 370.217C595.308 367.185 595.845 364.178 596.188 361.148C596.475 358.602 608.918 260.392 609.193 257.844C609.401 255.966 609.688 254.089 609.942 252.215C610.213 250.22 610.4 248.217 610.635 246.221C610.685 245.806 610.81 245.392 610.862 244.978C611.262 241.859 611.656 238.739 612.046 235.62C612.411 232.737 612.802 229.856 613.131 226.969C613.416 224.45 613.755 221.938 614.046 219.419C614.213 218.038 614.35 216.638 614.567 215.252Z" fill="#FFB743"/>
<path d="M525.796 468.063C526.48 468.614 526.478 477.545 529.379 481.543C532.28 485.54 530.849 489.483 523.927 491.134C517.005 492.785 493.351 497.153 488.214 494.587C483.078 492.021 484.387 486.476 487.894 485.474C491.4 484.471 505.365 478.997 507.04 474.473C508.716 469.95 507.203 468.716 507.203 468.716L525.796 468.063Z" fill="#006D53"/>
<path d="M339.664 322.88L533.918 429.646C535.384 430.451 537.229 429.922 538.038 428.463L690.729 153.299C691.538 151.84 691.006 150.004 689.54 149.199L495.286 42.4329C493.82 41.6271 491.975 42.1566 491.166 43.6156L338.475 318.779C337.666 320.238 338.198 322.074 339.664 322.88Z" fill="#576078"/>
<path d="M358.868 313.348L531.799 408.393C533.103 409.111 534.746 408.639 535.466 407.34L671.395 162.383C672.116 161.084 671.642 159.45 670.337 158.732L497.407 63.6868C496.102 62.9695 494.46 63.4409 493.739 64.7396L357.81 309.697C357.09 310.996 357.563 312.63 358.868 313.348Z" fill="white"/>
<path d="M575.152 81.6262L581.26 70.6177C581.89 69.4826 582.948 68.6431 584.2 68.2838C585.452 67.9246 586.796 68.0749 587.936 68.7019L617.805 85.1182C618.946 85.7453 619.789 86.7976 620.15 88.0437C620.511 89.2897 620.36 90.6275 619.73 91.7626L613.632 102.769C613.002 103.904 612.851 105.242 613.212 106.488C613.573 107.734 614.417 108.786 615.557 109.413L624.481 114.318C625.622 114.945 626.465 115.997 626.826 117.244C627.187 118.49 627.036 119.827 626.406 120.962L617.37 137.248C617.062 137.801 616.547 138.21 615.937 138.385C615.326 138.561 614.671 138.488 614.115 138.182L544.682 100.021C544.126 99.7144 543.715 99.2014 543.539 98.5941C543.363 97.9867 543.437 97.3347 543.743 96.7811L552.78 80.4953C553.41 79.3602 554.467 78.5207 555.719 78.1614C556.971 77.8021 558.315 77.9525 559.456 78.5794L568.486 83.5503C569.627 84.1733 570.969 84.3206 572.219 83.9599C573.468 83.5992 574.523 82.7599 575.152 81.6262Z" fill="#181941"/>
<path opacity="0.36" d="M488.17 101.245L486.413 104.416C486.027 105.113 486.281 105.99 486.982 106.374L639.364 190.023C640.065 190.407 640.946 190.154 641.332 189.457L643.089 186.287C643.476 185.589 643.221 184.713 642.521 184.328L490.138 100.679C489.438 100.295 488.557 100.548 488.17 101.245Z" fill="#00D9B6"/>
<path opacity="0.36" d="M481.466 113.345L479.709 116.516C479.323 117.213 479.578 118.09 480.278 118.474L632.661 202.123C633.361 202.507 634.242 202.254 634.628 201.557L636.385 198.387C636.772 197.689 636.517 196.813 635.817 196.428L483.434 112.779C482.734 112.395 481.853 112.648 481.466 113.345Z" fill="#00D9B6"/>
<path opacity="0.36" d="M474.759 125.445L473.002 128.615C472.616 129.312 472.871 130.189 473.571 130.574L625.954 214.222C626.654 214.607 627.535 214.353 627.922 213.656L629.679 210.486C630.065 209.789 629.81 208.912 629.11 208.528L476.727 124.879C476.027 124.494 475.146 124.748 474.759 125.445Z" fill="#00D9B6"/>
<path opacity="0.36" d="M468.055 137.547L466.298 140.717C465.911 141.414 466.166 142.291 466.866 142.675L619.249 226.324C619.949 226.709 620.83 226.455 621.217 225.758L622.974 222.588C623.36 221.891 623.105 221.014 622.405 220.629L470.023 136.981C469.322 136.596 468.441 136.85 468.055 137.547Z" fill="#00D9B6"/>
<path opacity="0.36" d="M461.348 149.649L459.591 152.819C459.204 153.516 459.459 154.393 460.159 154.777L612.542 238.426C613.242 238.81 614.123 238.557 614.51 237.86L616.267 234.69C616.653 233.993 616.399 233.116 615.698 232.731L463.316 149.082C462.615 148.698 461.734 148.951 461.348 149.649Z" fill="#00D9B6"/>
<path opacity="0.36" d="M455.035 161.392L453.278 164.562C452.892 165.259 453.147 166.136 453.847 166.52L606.23 250.169C606.93 250.554 607.811 250.3 608.197 249.603L609.954 246.433C610.341 245.736 610.086 244.859 609.386 244.474L457.003 160.826C456.303 160.441 455.422 160.695 455.035 161.392Z" fill="#00D9B6"/>
<path opacity="0.36" d="M448.097 173.438L446.34 176.608C445.954 177.305 446.208 178.182 446.909 178.567L599.291 262.215C599.992 262.6 600.873 262.346 601.259 261.649L603.016 258.479C603.402 257.782 603.148 256.905 602.447 256.521L450.065 172.872C449.364 172.487 448.483 172.741 448.097 173.438Z" fill="#00D9B6"/>
<path opacity="0.36" d="M441.392 185.539L439.635 188.71C439.249 189.407 439.503 190.284 440.204 190.668L592.586 274.317C593.287 274.701 594.168 274.448 594.554 273.751L596.311 270.581C596.697 269.884 596.443 269.007 595.742 268.622L443.36 184.973C442.659 184.589 441.778 184.842 441.392 185.539Z" fill="#00D9B6"/>
<path opacity="0.36" d="M434.345 198.24L432.588 201.41C432.202 202.107 432.456 202.984 433.157 203.369L585.539 287.017C586.24 287.402 587.121 287.148 587.507 286.451L589.264 283.281C589.651 282.584 589.396 281.707 588.695 281.323L436.313 197.674C435.612 197.289 434.731 197.543 434.345 198.24Z" fill="#00D9B6"/>
<path opacity="0.36" d="M427.638 210.342L425.881 213.512C425.495 214.209 425.749 215.086 426.45 215.47L578.832 299.119C579.533 299.504 580.414 299.25 580.8 298.553L582.557 295.383C582.944 294.686 582.689 293.809 581.989 293.424L429.606 209.776C428.906 209.391 428.024 209.645 427.638 210.342Z" fill="#00D9B6"/>
<path opacity="0.36" d="M420.933 222.443L419.176 225.614C418.79 226.311 419.045 227.188 419.745 227.572L572.128 311.221C572.828 311.605 573.709 311.352 574.096 310.655L575.853 307.485C576.239 306.787 575.984 305.911 575.284 305.526L422.901 221.877C422.201 221.493 421.32 221.746 420.933 222.443Z" fill="#00D9B6"/>
<path opacity="0.36" d="M414.226 234.543L412.469 237.713C412.083 238.411 412.338 239.287 413.038 239.672L565.421 323.321C566.121 323.705 567.002 323.452 567.389 322.755L569.146 319.584C569.532 318.887 569.277 318.01 568.577 317.626L416.194 233.977C415.494 233.593 414.613 233.846 414.226 234.543Z" fill="#00D9B6"/>
<path opacity="0.36" d="M407.523 246.643L405.766 249.813C405.379 250.51 405.634 251.387 406.334 251.772L558.717 335.421C559.417 335.805 560.298 335.552 560.685 334.854L562.442 331.684C562.828 330.987 562.573 330.11 561.873 329.726L409.491 246.077C408.79 245.693 407.909 245.946 407.523 246.643Z" fill="#00D9B6"/>
<path opacity="0.36" d="M401.205 258.387L399.448 261.557C399.062 262.254 399.317 263.131 400.017 263.516L552.399 347.165C553.1 347.549 553.981 347.296 554.367 346.599L556.124 343.428C556.511 342.731 556.256 341.854 555.556 341.47L403.173 257.821C402.473 257.436 401.592 257.69 401.205 258.387Z" fill="#00D9B6"/>
<path opacity="0.36" d="M394.269 270.434L392.512 273.604C392.125 274.302 392.38 275.178 393.08 275.563L545.463 359.212C546.163 359.596 547.044 359.343 547.431 358.646L549.188 355.476C549.574 354.778 549.32 353.902 548.619 353.517L396.237 269.868C395.536 269.484 394.655 269.737 394.269 270.434Z" fill="#00D9B6"/>
<path opacity="0.36" d="M387.564 282.536L385.807 285.706C385.42 286.403 385.675 287.28 386.376 287.665L538.758 371.313C539.458 371.698 540.339 371.444 540.726 370.747L542.483 367.577C542.869 366.88 542.615 366.003 541.914 365.619L389.532 281.97C388.831 281.585 387.95 281.839 387.564 282.536Z" fill="#00D9B6"/>
<path d="M235.615 46.9355C235.615 41.5504 238.056 36.8053 241.755 34.0527C243.897 32.4196 246.519 31.5299 249.217 31.5196H445.309C452.82 31.5196 458.914 38.4229 458.914 46.9355V54.1433H235.607L235.615 46.9355Z" fill="white"/>
<path d="M459.003 30.0034H235.696V443.001H459.003V30.0034Z" fill="white"/>
<path d="M235.615 418.924V431.065C235.615 436.473 238.067 441.224 241.782 443.971C243.919 445.592 246.53 446.474 249.217 446.483H445.309C452.82 446.483 458.914 439.584 458.914 431.065V418.924H235.615Z" fill="white"/>
<path opacity="0.24" d="M442.906 67.5253H250.76C248.681 67.5253 246.997 69.2018 246.997 71.27V182.641C246.997 184.709 248.681 186.385 250.76 186.385H442.906C444.984 186.385 446.668 184.709 446.668 182.641V71.27C446.668 69.2018 444.984 67.5253 442.906 67.5253Z" fill="#00D9B6"/>
<path opacity="0.24" d="M333.473 207.058H249.157C247.964 207.058 246.997 208.021 246.997 209.208V293.121C246.997 294.308 247.964 295.271 249.157 295.271H333.473C334.666 295.271 335.633 294.308 335.633 293.121V209.208C335.633 208.021 334.666 207.058 333.473 207.058Z" fill="#00D9B6"/>
<path opacity="0.24" d="M444.508 207.058H360.192C358.999 207.058 358.032 208.021 358.032 209.208V293.121C358.032 294.308 358.999 295.271 360.192 295.271H444.508C445.701 295.271 446.668 294.308 446.668 293.121V209.208C446.668 208.021 445.701 207.058 444.508 207.058Z" fill="#00D9B6"/>
<path opacity="0.64" d="M333.473 315.948H249.157C247.964 315.948 246.997 316.91 246.997 318.097V402.01C246.997 403.198 247.964 404.16 249.157 404.16H333.473C334.666 404.16 335.633 403.198 335.633 402.01V318.097C335.633 316.91 334.666 315.948 333.473 315.948Z" fill="#00D9B6"/>
<path opacity="0.24" d="M444.508 315.948H360.192C358.999 315.948 358.032 316.91 358.032 318.097V402.01C358.032 403.198 358.999 404.16 360.192 404.16H444.508C445.701 404.16 446.668 403.198 446.668 402.01V318.097C446.668 316.91 445.701 315.948 444.508 315.948Z" fill="#00D9B6"/>
<path d="M303.623 226.314H304.52C304.657 226.333 304.792 226.356 304.936 226.372C305.627 226.455 306.326 226.501 307.017 226.627C310.06 227.208 312.844 228.72 314.982 230.951C317.121 233.182 318.506 236.021 318.946 239.073C319.013 239.541 319.067 240.011 319.127 240.481V242.445C319.109 242.581 319.082 242.716 319.069 242.859C318.977 243.874 318.934 244.899 318.79 245.908C318.374 248.677 317.513 251.362 316.239 253.859C316.203 253.958 316.134 254.043 316.044 254.098C315.953 254.153 315.847 254.176 315.741 254.164C311.635 254.164 307.529 254.164 303.423 254.164C303.203 254.148 302.984 254.202 302.797 254.318C302.61 254.434 302.465 254.606 302.382 254.81C302.141 255.321 301.891 255.829 301.644 256.336C301.589 256.444 301.533 256.543 301.458 256.695C301.413 256.583 301.39 256.527 301.369 256.471C301.038 255.58 300.699 254.69 300.376 253.795C300.228 253.381 299.985 253.101 299.544 253.049C299.103 252.998 298.805 253.223 298.582 253.577C298.418 253.836 298.245 254.093 298.074 254.348C298.024 254.422 297.968 254.493 297.893 254.594C297.866 254.51 297.858 254.48 297.85 254.454C297.433 252.821 297.014 251.19 296.591 249.559C296.459 249.052 296.106 248.756 295.648 248.758C295.19 248.76 294.842 249.054 294.713 249.561C294.093 252.022 293.472 254.483 292.851 256.943C292.676 257.637 292.497 258.329 292.32 259.014C292.275 258.881 292.248 258.741 292.241 258.6C292.073 256.504 291.905 254.409 291.737 252.314C291.467 249 291.195 245.68 290.922 242.354C290.876 241.801 290.505 241.415 290.01 241.395C289.774 241.39 289.545 241.472 289.365 241.625C289.186 241.777 289.07 241.99 289.038 242.223C288.458 245.25 287.878 248.277 287.298 251.303C287.121 252.233 286.942 253.167 286.749 254.166C286.709 254.014 286.688 253.94 286.67 253.863C286.209 251.893 285.75 249.924 285.292 247.956C285.167 247.42 284.834 247.128 284.345 247.128C283.856 247.128 283.513 247.428 283.411 247.956C283.069 249.594 282.729 251.234 282.391 252.875C282.266 253.482 282.137 254.087 281.991 254.779C281.943 254.621 281.916 254.551 281.898 254.478C281.633 253.339 281.369 252.2 281.107 251.061C280.845 249.922 280.58 248.783 280.314 247.643C280.181 247.08 279.787 246.769 279.273 246.815C279.069 246.835 278.877 246.921 278.727 247.059C278.576 247.198 278.476 247.382 278.441 247.583C278.062 249.083 277.687 250.583 277.315 252.084L276.84 253.969C276.584 253.018 276.374 252.072 276.156 251.125C276.043 250.636 275.762 250.359 275.336 250.297C274.909 250.235 274.57 250.456 274.333 250.895C273.8 251.881 273.261 252.865 272.741 253.857C272.704 253.951 272.638 254.031 272.552 254.084C272.466 254.137 272.365 254.161 272.264 254.151C269.034 254.143 265.805 254.143 262.576 254.151C262.494 254.161 262.411 254.143 262.341 254.1C262.27 254.057 262.216 253.992 262.187 253.915C260.613 250.775 259.679 247.355 259.44 243.853C259.409 243.342 259.363 242.83 259.323 242.318V240.533C259.351 240.418 259.371 240.302 259.386 240.185C259.512 237.941 260.175 235.758 261.319 233.82C263.792 229.678 267.428 227.233 272.229 226.486C272.789 226.401 273.355 226.364 273.916 226.306H274.749C274.865 226.325 274.982 226.347 275.099 226.36C276.079 226.467 277.069 226.511 278.035 226.689C281.498 227.333 284.279 229.056 286.231 232.012C287.662 234.174 288.449 236.585 288.969 239.098C289.048 239.479 289.117 239.862 289.19 240.245C289.254 240.193 289.299 240.119 289.315 240.038C289.767 238.046 290.398 236.099 291.2 234.22C292.068 232.279 293.171 230.502 294.82 229.108C296.865 227.381 299.302 226.681 301.914 226.443C302.472 226.395 303.048 226.354 303.623 226.314Z" fill="#00D9B6"/>
<path d="M279.317 251.786C279.631 253.138 279.927 254.402 280.222 255.665C280.5 256.88 280.782 258.097 281.069 259.315C281.196 259.855 281.552 260.166 282.035 260.158C282.518 260.149 282.845 259.847 282.957 259.306C283.412 257.134 283.864 254.961 284.314 252.786C284.331 252.699 284.353 252.614 284.391 252.463C284.663 253.635 284.924 254.741 285.182 255.847C285.408 256.824 285.634 257.799 285.86 258.774C285.991 259.344 286.343 259.66 286.828 259.654C287.313 259.648 287.66 259.308 287.779 258.72C288.355 255.692 288.933 252.665 289.515 249.638C289.518 249.612 289.526 249.587 289.54 249.565C289.553 249.542 289.571 249.523 289.592 249.507C289.635 250.023 289.683 250.543 289.727 251.055L290.439 259.83C290.574 261.502 290.699 263.173 290.844 264.843C290.897 265.464 291.244 265.808 291.758 265.833C292.228 265.855 292.591 265.528 292.743 264.967L294.603 257.587C294.921 256.317 295.24 255.048 295.56 253.78C295.581 253.704 295.604 253.629 295.639 253.501C295.933 254.636 296.214 255.719 296.493 256.802L296.505 256.86C296.599 257.326 296.799 257.716 297.317 257.811C297.835 257.906 298.172 257.604 298.428 257.19C298.653 256.817 298.907 256.461 299.179 256.048C299.229 256.168 299.267 256.255 299.298 256.334C299.66 257.312 300.027 258.285 300.382 259.263C300.536 259.692 300.799 259.994 301.271 260.025C301.743 260.056 302.054 259.768 302.253 259.346C302.745 258.31 303.25 257.295 303.746 256.266C303.816 256.123 303.881 256.03 304.07 256.03C307.678 256.03 311.276 256.03 314.867 256.03C314.917 256.034 314.966 256.041 315.015 256.05C314.944 256.173 314.89 256.274 314.832 256.373C312.819 259.671 310.368 262.629 307.698 265.41C303.548 269.733 298.969 273.571 294.201 277.189C292.632 278.38 291.03 279.527 289.448 280.7C289.387 280.763 289.304 280.799 289.217 280.802C289.129 280.805 289.044 280.773 288.98 280.714C284.206 277.359 279.567 273.834 275.23 269.927C271.527 266.591 268.068 263.028 265.186 258.95C264.574 258.082 264.023 257.173 263.444 256.282C263.403 256.218 263.373 256.146 263.313 256.03H263.663C266.751 256.03 269.842 256.03 272.932 256.03C273.166 256.049 273.401 255.994 273.602 255.873C273.804 255.753 273.962 255.572 274.054 255.357C274.281 254.895 274.539 254.449 274.824 253.921C274.915 254.311 274.994 254.627 275.065 254.944C275.311 256.049 275.556 257.154 275.8 258.258C275.916 258.784 276.262 259.101 276.726 259.116C277.19 259.13 277.558 258.822 277.683 258.3L279.238 252.067C279.255 251.997 279.275 251.931 279.317 251.786Z" fill="#00D9B6"/>
<path d="M380.96 277.773C375.826 273.124 374.788 265.586 378.592 259.849C381.256 255.829 385.083 253.687 389.934 253.509C394.677 253.333 399.422 253.242 404.167 253.112C408.864 252.985 413.561 252.849 418.259 252.735C422.304 252.635 425.782 254.019 428.648 256.85C433.495 261.635 434.092 269.37 430.034 274.816C427.293 278.492 423.595 280.433 419.004 280.567C409.586 280.845 400.169 281.085 390.752 281.338C387.148 281.45 383.64 280.173 380.96 277.773ZM381.882 276.558C383.041 277.64 384.402 278.484 385.889 279.043C387.375 279.601 388.958 279.862 390.546 279.811C400.086 279.573 409.626 279.335 419.164 279.029C423.347 278.894 426.708 277.044 429.022 273.577C431.753 269.489 432.009 265.118 429.674 260.802C427.31 256.436 423.466 254.174 418.471 254.276C408.918 254.45 399.368 254.737 389.818 255.044C385.863 255.17 382.659 256.898 380.307 260.058C376.536 265.127 377.168 272.088 381.884 276.558H381.882Z" fill="#00D9B6"/>
<path d="M381.884 276.557C377.168 272.088 376.536 265.127 380.309 260.058C382.661 256.898 385.868 255.17 389.82 255.044C399.37 254.737 408.921 254.449 418.473 254.276C423.468 254.184 427.312 256.436 429.676 260.802C432.011 265.118 431.757 269.488 429.024 273.577C426.71 277.044 423.349 278.894 419.166 279.028C409.628 279.335 400.088 279.573 390.548 279.811C388.96 279.862 387.377 279.601 385.891 279.043C384.404 278.484 383.043 277.64 381.884 276.557ZM404.176 256.218C404.361 262.881 404.544 269.488 404.727 276.102C404.66 276.102 404.59 276.114 404.519 276.116C400.063 276.239 395.609 276.384 391.154 276.475C384.269 276.616 378.977 270.323 380.286 263.592C380.307 263.484 380.323 263.385 380.342 263.269C380.241 263.421 380.161 263.586 380.105 263.76C379.507 265.425 379.328 267.212 379.585 268.962C379.842 270.712 380.525 272.374 381.576 273.8C382.627 275.226 384.014 276.375 385.614 277.144C387.215 277.914 388.98 278.281 390.756 278.214C394.812 278.1 398.867 277.989 402.921 277.883C408.296 277.738 413.67 277.608 419.045 277.442C421.469 277.372 423.799 276.496 425.664 274.953C427.529 273.411 428.821 271.292 429.334 268.933C430.825 262.072 425.476 255.678 418.379 255.843C415.258 255.918 412.136 256.011 409.014 256.094C407.439 256.142 405.865 256.179 404.176 256.218Z" fill="white"/>
<path d="M404.175 256.218C405.865 256.177 407.439 256.142 409.012 256.1C412.134 256.017 415.255 255.924 418.377 255.85C425.474 255.682 430.822 262.078 429.332 268.94C428.819 271.298 427.527 273.417 425.662 274.96C423.797 276.502 421.467 277.378 419.043 277.448C413.668 277.614 408.294 277.744 402.918 277.889C398.864 277.998 394.81 278.109 390.754 278.221C388.978 278.288 387.212 277.92 385.612 277.151C384.012 276.381 382.625 275.233 381.574 273.806C380.523 272.38 379.839 270.719 379.583 268.968C379.326 267.218 379.505 265.432 380.103 263.766C380.159 263.592 380.239 263.427 380.34 263.275C380.321 263.383 380.305 263.482 380.284 263.598C378.975 270.329 384.267 276.622 391.152 276.481C395.607 276.39 400.061 276.245 404.517 276.123C404.587 276.123 404.658 276.123 404.725 276.108C404.544 269.489 404.361 262.881 404.175 256.218Z" fill="#00D9B6"/>
<path d="M389.087 282.056C380.305 282.233 372.758 276.205 371.237 267.639C370.169 261.632 371.814 256.355 376.115 251.989C380.319 247.72 384.6 243.524 388.848 239.296C393.054 235.113 397.26 230.929 401.464 226.747C405.097 223.149 409.501 221.412 414.612 221.53C423.247 221.737 430.564 228.319 431.594 236.838C432.292 242.59 430.587 247.577 426.479 251.684C418.067 260.095 409.638 268.487 401.193 276.862C397.981 280.081 393.644 281.942 389.087 282.056ZM388.879 280.143C392.9 280.074 396.642 278.645 399.686 275.627C408.244 267.148 416.781 258.647 425.297 250.125C429.024 246.378 430.5 241.765 429.59 236.575C428.525 230.452 424.937 226.219 419.016 224.274C413.029 222.308 407.526 223.568 403.016 227.977C394.392 236.411 385.839 244.918 377.358 253.499C373.839 257.038 372.403 261.402 373.004 266.34C373.959 274.269 380.629 280.118 388.869 280.143H388.879Z" fill="#00D9B6"/>
<path d="M388.869 280.143C380.627 280.118 373.957 274.269 372.994 266.346C372.392 261.402 373.826 257.038 377.347 253.505C385.855 244.954 394.408 236.447 403.006 227.984C407.516 223.574 413.018 222.315 419.006 224.28C424.927 226.223 428.515 230.459 429.58 236.581C430.485 241.772 429.014 246.384 425.287 250.131C416.791 258.673 408.255 267.173 399.676 275.634C396.633 278.645 392.892 280.074 388.869 280.143ZM391.574 242.146L409.472 259.944C409.414 260.008 409.355 260.077 409.291 260.139C405.303 264.11 401.339 268.101 397.324 272.042C391.123 278.136 380.754 276.939 376.072 269.617C375.999 269.501 375.918 269.389 375.841 269.273C375.881 269.5 375.951 269.721 376.049 269.93C376.956 271.979 378.353 273.775 380.12 275.162C381.886 276.549 383.967 277.483 386.18 277.884C388.393 278.285 390.672 278.14 392.816 277.461C394.959 276.782 396.903 275.591 398.477 273.991C402.104 270.375 405.734 266.762 409.366 263.153C414.178 258.364 418.988 253.574 423.797 248.783C425.962 246.619 427.336 243.796 427.701 240.764C428.067 237.732 427.401 234.665 425.811 232.053C421.181 224.456 410.673 223.209 404.3 229.512C401.495 232.283 398.708 235.075 395.911 237.857C394.502 239.251 393.087 240.645 391.574 242.146Z" fill="white"/>
<path d="M391.574 242.146C393.093 240.645 394.508 239.247 395.917 237.851C398.714 235.069 401.501 232.277 404.306 229.506C410.679 223.203 421.187 224.45 425.817 232.047C427.407 234.659 428.073 237.725 427.708 240.757C427.342 243.789 425.968 246.613 423.803 248.776C419.01 253.583 414.2 258.373 409.372 263.146C405.742 266.759 402.113 270.371 398.483 273.985C396.91 275.585 394.966 276.777 392.823 277.456C390.679 278.135 388.401 278.281 386.188 277.88C383.975 277.48 381.894 276.546 380.127 275.16C378.361 273.774 376.962 271.978 376.055 269.93C375.957 269.721 375.887 269.5 375.847 269.273C375.924 269.389 376.005 269.501 376.078 269.617C380.76 276.939 391.129 278.136 397.33 272.042C401.345 268.107 405.31 264.11 409.297 260.139C409.362 260.077 409.42 260.008 409.478 259.944L391.574 242.146Z" fill="#00D9B6"/>
<path d="M299.744 335.866H257.852C256.874 335.866 256.081 336.656 256.081 337.629V342.053C256.081 343.027 256.874 343.816 257.852 343.816H299.744C300.722 343.816 301.515 343.027 301.515 342.053V337.629C301.515 336.656 300.722 335.866 299.744 335.866Z" fill="white"/>
<path d="M295.275 379.362H257.788C256.845 379.362 256.081 380.122 256.081 381.06V385.613C256.081 386.551 256.845 387.311 257.788 387.311H295.275C296.218 387.311 296.982 386.551 296.982 385.613V381.06C296.982 380.122 296.218 379.362 295.275 379.362Z" fill="white"/>
<path d="M324.776 335.866H308.543C307.565 335.866 306.772 336.656 306.772 337.629V342.053C306.772 343.027 307.565 343.816 308.543 343.816H324.776C325.754 343.816 326.547 343.027 326.547 342.053V337.629C326.547 336.656 325.754 335.866 324.776 335.866Z" fill="white"/>
<path d="M282.884 371.073H324.775C325.754 371.073 326.547 370.284 326.547 369.31V364.886C326.547 363.913 325.754 363.123 324.775 363.123H282.884C281.906 363.123 281.113 363.913 281.113 364.886V369.31C281.113 370.284 281.906 371.073 282.884 371.073Z" fill="white"/>
<path d="M257.852 371.073H274.085C275.063 371.073 275.856 370.284 275.856 369.31V364.886C275.856 363.913 275.063 363.123 274.085 363.123H257.852C256.874 363.123 256.081 363.913 256.081 364.886V369.31C256.081 370.284 256.874 371.073 257.852 371.073Z" fill="white"/>
<path d="M324.778 349.497H257.852C256.874 349.497 256.081 350.286 256.081 351.26V355.684C256.081 356.657 256.874 357.446 257.852 357.446H324.778C325.756 357.446 326.549 356.657 326.549 355.684V351.26C326.549 350.286 325.756 349.497 324.778 349.497Z" fill="white"/>
<path d="M378.394 391.598C383.832 391.598 388.24 387.211 388.24 381.799C388.24 376.388 383.832 372.001 378.394 372.001C372.956 372.001 368.548 376.388 368.548 381.799C368.548 387.211 372.956 391.598 378.394 391.598Z" fill="white"/>
<path d="M388.24 348.105C393.678 348.105 398.086 343.718 398.086 338.306C398.086 332.894 393.678 328.507 388.24 328.507C382.802 328.507 378.394 332.894 378.394 338.306C378.394 343.718 382.802 348.105 388.24 348.105Z" fill="white"/>
<path d="M426.304 378.044C431.742 378.044 436.15 373.657 436.15 368.246C436.15 362.834 431.742 358.447 426.304 358.447C420.866 358.447 416.458 362.834 416.458 368.246C416.458 373.657 420.866 378.044 426.304 378.044Z" fill="white"/>
<path d="M388.781 339.953L385.289 339.198L377.038 376.988L380.53 377.743L388.781 339.953Z" fill="white"/>
<path d="M423.466 367.104L425.727 364.35L395.632 339.887L393.372 342.642L423.466 367.104Z" fill="white"/>
<path d="M224.666 15.418V443.024C224.666 451.543 230.758 458.442 238.275 458.442H456.346C463.863 458.442 469.95 451.543 469.95 443.024V15.418C469.95 6.90538 463.863 0 456.346 0H238.275C230.749 0 224.666 6.90538 224.666 15.418ZM235.669 46.9355C235.669 41.5504 238.11 36.8053 241.809 34.0527C243.951 32.4196 246.573 31.5299 249.272 31.5196H445.357C452.868 31.5196 458.962 38.4229 458.962 46.9355V431.065C458.962 439.584 452.868 446.483 445.357 446.483H249.272C246.584 446.475 243.973 445.592 241.836 443.971C238.121 441.224 235.669 436.473 235.669 431.065V46.9355Z" fill="#576078"/>
<path d="M495.423 461.205C496.106 461.756 496.106 470.687 499.007 474.685C501.908 478.682 500.476 482.626 493.555 484.276C486.633 485.927 462.978 490.295 457.842 487.729C452.706 485.163 454.013 479.618 457.519 478.616C461.026 477.613 475.001 472.139 476.666 467.616C478.331 463.092 476.83 461.858 476.83 461.858L495.423 461.205Z" fill="#006D53"/>
<mask id="mask2" mask-type="alpha" maskUnits="userSpaceOnUse" x="480" y="87" width="111" height="173">
<path d="M482.202 118.665C482.202 118.665 480.023 112.297 480.023 103.158C480.023 94.0202 493.627 84.5507 506.763 89.1529C519.9 93.7551 529.146 102.224 531.827 118.665C534.507 135.107 542.95 152.001 569.758 179.213C596.565 206.424 594.775 231.681 581.552 247.509C568.328 263.337 545.273 264.582 531.157 248.397C517.04 232.213 487.552 174.412 489.517 143.642L482.202 118.665Z" fill="#006DFE"/>
</mask>
<g mask="url(#mask2)">
<path d="M482.202 118.665C482.202 118.665 480.023 112.297 480.023 103.158C480.023 94.0202 493.627 84.5507 506.763 89.1529C519.9 93.7551 529.146 102.224 531.827 118.665C534.507 135.107 542.95 152.001 569.758 179.213C596.565 206.424 594.775 231.681 581.552 247.509C568.328 263.337 545.273 264.582 531.157 248.397C517.04 232.213 487.552 174.412 489.517 143.642L482.202 118.665Z" fill="#433860"/>
<path d="M478.903 116.882C478.903 116.882 481.565 118.027 481.842 117.454C482.118 116.88 482.637 110.826 482.637 110.826C482.637 110.826 482.512 103.842 488.216 103.283C493.921 102.723 501.25 115.279 514.603 117.348C517.906 118.025 519.581 129.218 527.487 155.498C535.394 181.777 554.089 217.309 570.378 232.559C586.667 247.809 592.76 240.332 592.76 240.332L580.161 261.808L540.599 262.301L514.849 245.23L488.764 187.512L482.99 148.683L478.903 116.882Z" fill="#140044"/>
</g>
<path d="M539.252 105.826C538.984 105.826 528.262 87.1666 506.547 82.2765C484.832 77.3863 476.348 82.0983 476.348 82.0983L480.751 99.4302C480.751 99.4302 513.425 94.9025 531.717 118.028L539.252 105.826Z" fill="#B7E8E0"/>
<path d="M464.543 292.906L460.631 297.199C460.631 297.199 458.46 377.075 460.631 393.616C462.801 410.156 468.955 463.778 468.955 463.778C468.955 463.778 481.555 476.317 497.906 463.778L492.277 340.527L486.112 294.639L464.543 292.906Z" fill="#5CE7D0"/>
<mask id="mask3" mask-type="alpha" maskUnits="userSpaceOnUse" x="459" y="292" width="39" height="178">
<path d="M464.543 292.906L460.631 297.199C460.631 297.199 458.46 377.075 460.631 393.616C462.801 410.156 468.955 463.778 468.955 463.778C468.955 463.778 481.555 476.317 497.906 463.778L492.277 340.527L486.112 294.639L464.543 292.906Z" fill="#5CE7D0"/>
</mask>
<g mask="url(#mask3)">
<path d="M475.351 285.288C475.351 286.087 480.731 358.579 489.836 388.226L497.488 400.801L496.031 290.687L475.351 285.288Z" fill="#5CE7D0"/>
<path d="M475.351 285.288C475.351 286.087 480.731 358.579 489.836 388.226L497.488 400.801L496.031 290.687L475.351 285.288Z" fill="black" fill-opacity="0.12"/>
</g>
<path d="M526.867 298.552C526.867 298.552 522.578 359.733 525.259 393.881C527.939 428.029 531.691 465.646 531.691 465.646C531.691 465.646 522.847 479.784 500.329 466.98C500.329 466.98 489.875 396.283 487.998 369.072C486.121 341.86 485.586 298.552 485.586 298.552H526.867Z" fill="#5CE7D0"/>
<path d="M526.867 298.552C526.867 298.552 522.578 359.733 525.259 393.881C527.939 428.029 531.691 465.646 531.691 465.646C531.691 465.646 522.847 479.784 500.329 466.98C500.329 466.98 489.875 396.283 487.998 369.072C486.121 341.86 485.586 298.552 485.586 298.552H526.867Z" fill="black" fill-opacity="0.06"/>
<mask id="mask4" mask-type="alpha" maskUnits="userSpaceOnUse" x="485" y="298" width="47" height="175">
<path d="M526.867 298.552C526.867 298.552 522.578 359.733 525.259 393.881C527.939 428.029 531.691 465.646 531.691 465.646C531.691 465.646 522.847 479.784 500.329 466.98C500.329 466.98 489.875 396.283 487.998 369.072C486.121 341.86 485.586 298.552 485.586 298.552H526.867Z" fill="#3E70DD"/>
</mask>
<g mask="url(#mask4)">
<path d="M513.683 292.905C513.683 292.905 521.646 391.199 530.803 424.545V333.306L529.236 292.905H513.683Z" fill="#5CE7D0"/>
<path d="M513.683 292.905C513.683 292.905 521.646 391.199 530.803 424.545V333.306L529.236 292.905H513.683Z" fill="black" fill-opacity="0.12"/>
</g>
<path d="M513.812 162.287C511.902 162.148 510.649 162.184 510.649 162.184H508.337L495.226 161.784C495.226 161.784 494.266 161.771 492.768 161.784L497.971 184.318L513.812 162.287Z" fill="white"/>
<path d="M531.691 170.52C528.116 164.172 518.753 162.65 513.812 162.287L497.983 184.327L492.78 161.792C488.531 161.848 479.904 162.163 476.206 163.739C471.211 165.874 446.72 216.828 445.646 222.166C444.573 227.503 440.912 243.151 451.455 245.462C461.998 247.774 467.003 230.612 467.003 230.612L459.852 296.774C495.057 316.337 527.225 301.043 527.225 301.043L528.129 253.022C528.129 253.022 531.336 256.224 538.326 254.694C545.317 253.163 547.514 244.352 547.916 228.878C548.318 213.404 536.651 179.325 531.691 170.52Z" fill="#C2F6EE"/>
<path d="M465.981 245.945L465.215 247.138L464.782 251.138L511.463 257.906L505.473 232.561L471.79 236.038L465.981 245.945Z" fill="#C2F6EE"/>
<path d="M465.981 245.945L465.215 247.138L464.782 251.138L511.463 257.906L505.473 232.561L471.79 236.038L465.981 245.945Z" fill="black" fill-opacity="0.06"/>
<path d="M492.422 189.929L507.298 253.557L465.216 247.138L450.471 184.327L492.422 189.929Z" fill="white"/>
<path d="M455.563 209.537C455.563 209.537 458.477 206.47 460.701 210.248C462.926 214.026 463.426 220.919 461.282 222.387C459.138 223.856 454.67 219.808 455.563 209.537Z" fill="#FFACA6"/>
<path d="M214.123 119.31C214.123 119.31 222.385 114.61 221.42 106.922C220.454 99.2335 216.161 95.816 210.581 93.0447C205.001 90.2735 204.679 85.3564 196.202 86.3174C187.726 87.2785 188.048 90.8016 183.004 93.3595C177.959 95.9174 171.63 94.3206 167.339 104.786C163.048 115.252 172.81 120.911 172.918 125.498C173.027 130.086 173.455 135.111 181.824 137.994C190.192 140.877 192.877 143.965 192.877 143.965L204.144 135.43L214.123 119.31Z" fill="#433860"/>
<mask id="mask5" mask-type="alpha" maskUnits="userSpaceOnUse" x="166" y="86" width="56" height="58">
<path d="M214.123 119.31C214.123 119.31 222.385 114.61 221.42 106.922C220.454 99.2335 216.161 95.816 210.581 93.0447C205.001 90.2735 204.679 85.3564 196.202 86.3174C187.726 87.2785 188.048 90.8016 183.004 93.3595C177.959 95.9174 171.63 94.3206 167.339 104.786C163.048 115.252 172.81 120.911 172.918 125.498C173.027 130.086 173.455 135.111 181.824 137.994C190.192 140.877 192.877 143.965 192.877 143.965L204.144 135.43L214.123 119.31Z" fill="#433860"/>
</mask>
<g mask="url(#mask5)">
<path d="M170.165 130.125C170.165 130.125 173.911 133.489 178.34 127.82C182.769 122.151 187.655 109.48 198.646 109.879C209.636 110.279 218.079 109.546 221.497 105.878L222.77 111.081L216.55 122.352L197.183 138.025L184.783 143.054L170.298 131.7L170.165 130.125Z" fill="#140044"/>
</g>
<path d="M201.755 138.752L195.68 134.216L188.552 140.906C188.552 140.906 188.733 142.716 188.552 146.262C188.552 146.418 188.525 146.567 188.508 146.718C190.798 146.782 196.479 147.426 201.081 151.896C200.754 145.405 201.755 138.752 201.755 138.752Z" fill="#EA756C"/>
<path d="M201.089 151.894C196.487 147.426 190.798 146.782 188.517 146.716C188.115 150.699 185.187 153.066 185.187 153.066L185.946 156.846L192.111 161.96C192.111 161.96 202.298 162.138 201.359 154.889C201.226 153.913 201.149 152.905 201.089 151.894Z" fill="#FFACA6"/>
<path d="M278.659 181.268C278.659 181.268 285.234 177.442 287.948 172.268C290.661 167.094 294.876 162.788 298.88 167.428C302.884 172.067 293.981 183.629 288.911 187.33C283.841 191.031 280.276 190.967 280.276 190.967L278.659 181.268Z" fill="#EA756C"/>
<path d="M193.709 157.322C200.063 157.617 201.251 154.009 201.251 154.009C201.251 154.009 211.692 155.351 214.571 160.928C220.791 172.977 212.61 181.433 230.926 193.001C249.243 204.569 270.957 190.066 276.503 180.988C276.503 180.988 282.847 181.032 284.857 189.258C284.857 189.258 269.086 215.49 248.09 214.958C227.093 214.426 213.867 203.664 209.936 199.128C209.936 199.128 207.072 252.248 212.298 278.248C212.298 278.248 201.449 290.163 177.726 287.496C154.003 284.828 148.22 280.277 148.22 280.277C148.22 280.277 151.855 233.4 154.403 226.463C154.403 226.463 147.835 221.66 148.236 212.191C148.638 202.721 152.257 177.776 158.018 165.903C163.778 154.031 172.604 152.277 185.181 153.062C185.181 153.068 187.495 157.033 193.709 157.322Z" fill="#48A0FF"/>
<mask id="mask6" mask-type="alpha" maskUnits="userSpaceOnUse" x="148" y="152" width="137" height="136">
<path d="M193.709 157.322C200.063 157.617 201.251 154.009 201.251 154.009C201.251 154.009 211.692 155.351 214.571 160.928C220.791 172.977 212.61 181.433 230.926 193.001C249.243 204.569 270.957 190.066 276.503 180.988C276.503 180.988 282.847 181.032 284.857 189.258C284.857 189.258 269.086 215.49 248.09 214.958C227.093 214.426 213.867 203.664 209.936 199.128C209.936 199.128 207.072 252.248 212.298 278.248C212.298 278.248 201.449 290.163 177.726 287.496C154.003 284.828 148.22 280.277 148.22 280.277C148.22 280.277 151.855 233.4 154.403 226.463C154.403 226.463 147.835 221.66 148.236 212.191C148.638 202.721 152.257 177.776 158.018 165.903C163.778 154.031 172.604 152.277 185.181 153.062C185.181 153.068 187.495 157.033 193.709 157.322Z" fill="#FDAB01"/>
</mask>
<g mask="url(#mask6)">
<path d="M151.618 227.485L154.392 226.478C154.392 226.478 167.012 235.471 195.056 214.805L209.295 205.965C209.295 205.965 202.458 214.902 195.445 220.548C188.431 226.194 175.743 234.821 162.384 233.443C149.025 232.066 148.4 228.729 148.4 228.729L151.618 227.485Z" fill="#4A86FF"/>
<path d="M170.7 165.104C170.7 165.104 173.516 169.371 171.639 176.442C169.761 183.513 159.984 207.321 163.865 210.055C167.747 212.789 182.294 207.984 182.294 207.984C182.294 207.984 164.871 211.785 165.674 206.516C166.477 201.247 173.181 182.173 173.917 175.771C174.123 173.869 173.945 171.946 173.392 170.114C172.84 168.282 171.924 166.578 170.7 165.104Z" fill="#4A86FF"/>
<path d="M284.395 183.556C284.395 183.556 275.011 194.581 263.038 202.141C251.066 209.701 240.968 206.853 229.709 203.92C229.195 203.786 228.693 203.635 228.196 203.477C215.047 198.092 212.573 178.907 212.587 178.71C212.937 169.327 211.78 164.833 211.78 164.833C212.148 172.886 210.843 189.248 209.99 198.726L209.524 201.959L209.663 202.249C209.455 204.56 209.301 205.961 209.301 205.961C209.301 205.961 209.218 206.924 209.842 202.622L216.535 216.596L242.048 222.145L272.786 212.452L288.245 189.42L284.395 183.556Z" fill="#4A86FF"/>
</g>
<path d="M503.367 140.618C503.367 140.618 506.226 143.021 509.444 144.533C509.444 144.533 508.863 156.581 510.649 162.184C510.649 162.184 503.648 169.698 495.236 161.784C495.236 161.784 496.089 150.27 495.236 145.599L503.367 140.618Z" fill="#EA756C"/>
<path d="M482.637 110.828C482.637 110.828 472.986 153.114 493.896 148.317C500.328 146.716 506.36 140.314 507.567 132.845C507.567 132.845 514.335 131.776 512.928 125.041C511.521 118.305 507.5 121.573 504.811 120.171C502.122 118.769 490.739 112.703 488.258 105.832C488.266 105.826 483.91 110.696 482.637 110.828Z" fill="#FFACA6"/>
<mask id="mask7" mask-type="alpha" maskUnits="userSpaceOnUse" x="480" y="105" width="34" height="44">
<path d="M482.637 110.828C482.637 110.828 472.986 153.114 493.896 148.317C500.328 146.716 506.36 140.314 507.567 132.845C507.567 132.845 514.335 131.776 512.928 125.041C511.521 118.305 507.5 121.573 504.811 120.171C502.122 118.769 490.739 112.703 488.258 105.832C488.266 105.826 483.91 110.696 482.637 110.828Z" fill="#FFACA6"/>
</mask>
<g mask="url(#mask7)">
<path d="M479.74 113.349C479.74 113.349 480.845 116.482 483.486 114.649C486.127 112.816 486.57 111.18 489.786 114.248C493.001 117.315 500.241 123.361 507.267 124.72C514.293 126.078 514.94 124.885 514.94 124.885L509.713 116.116C509.812 116.282 492.558 104.411 492.558 104.411L486.189 103.977L480.023 111.414L479.74 113.349Z" fill="#EA756C"/>
</g>
<path d="M507.298 224.028L504.976 234.881C504.976 234.881 486.212 233.547 483.174 224.744C480.135 215.942 482.549 211.049 489.427 214.071C496.306 217.093 507.298 224.028 507.298 224.028Z" fill="#FFACA6"/>
<path d="M523.837 177.873C523.837 177.873 520.091 185.743 521.548 197.081C521.548 197.081 533.025 219.055 531.577 225.007C530.129 230.96 507.288 224.028 507.288 224.028C507.288 224.028 529.523 229.493 527.177 221.956C524.832 214.419 516.79 198.481 516.79 198.481C516.79 198.481 517.538 185.81 523.837 177.873Z" fill="#C2F6EE"/>
<path d="M523.837 177.873C523.837 177.873 520.091 185.743 521.548 197.081C521.548 197.081 533.025 219.055 531.577 225.007C530.129 230.96 507.288 224.028 507.288 224.028C507.288 224.028 529.523 229.493 527.177 221.956C524.832 214.419 516.79 198.481 516.79 198.481C516.79 198.481 517.538 185.81 523.837 177.873Z" fill="black" fill-opacity="0.06"/>
<path d="M504.976 234.881L528.128 253.022L528.016 259.039L504.976 234.881Z" fill="#C2F6EE"/>
<path d="M504.976 234.881L528.128 253.022L528.016 259.039L504.976 234.881Z" fill="black" fill-opacity="0.06"/>
<path d="M189.522 206.329L195.062 214.805C195.062 214.805 210.656 207.533 213.045 202.17C215.434 196.808 211.665 190.586 201.755 197.344C191.845 204.103 189.522 206.329 189.522 206.329Z" fill="#FFACA6"/>
<path d="M214.186 114.258C214.186 114.258 219.087 152.47 204.271 145.991C189.455 139.512 191.016 131.859 191.016 131.859C191.016 131.859 186.413 132.095 186.5 125.511C186.588 118.926 192.327 123.742 192.327 123.742C194.805 121.552 196.846 118.918 198.344 115.977C198.467 115.737 198.585 115.492 198.702 115.244C201.195 109.904 209.803 119.181 214.186 114.258Z" fill="#FFACA6"/>
<mask id="mask8" mask-type="alpha" maskUnits="userSpaceOnUse" x="186" y="113" width="29" height="34">
<path d="M214.186 114.258C214.186 114.258 219.087 152.47 204.271 145.991C189.455 139.512 191.016 131.859 191.016 131.859C191.016 131.859 186.413 132.095 186.5 125.511C186.588 118.926 192.327 123.742 192.327 123.742C194.805 121.552 196.846 118.918 198.344 115.977C198.467 115.737 198.585 115.492 198.702 115.244C201.195 109.904 209.803 119.181 214.186 114.258Z" fill="#FFACA6"/>
</mask>
<g mask="url(#mask8)">
<path d="M186.202 131.221C186.202 131.221 186.471 127.665 190.939 128.154C195.407 128.642 199.518 118.773 203.359 118.419C207.201 118.065 212.964 119.885 215.69 116.108L214.962 111.126L198.221 112.816L185.399 122.464L186.202 131.221Z" fill="#EA756C"/>
</g>
<path d="M346.13 79.2339C319.327 79.441 297.868 101.044 298.401 127.866C298.926 154.363 320.284 174.714 346.603 174.675C372.958 174.638 394.45 152.878 394.261 126.623C394.071 100.424 372.346 79.0371 346.13 79.2339ZM376.494 118.407V135.508C376.494 135.964 376.312 136.401 375.989 136.723C375.665 137.045 375.226 137.226 374.769 137.226H356.611V144.297C356.611 147.99 356.565 151.683 356.636 155.373C356.636 155.52 356.636 155.651 356.625 155.777C356.625 155.81 356.625 155.841 356.625 155.87C356.615 155.986 356.598 156.101 356.573 156.214C356.574 156.219 356.574 156.224 356.573 156.229C356.551 156.321 356.52 156.411 356.482 156.498L356.451 156.56C356.411 156.64 356.361 156.715 356.303 156.782L356.284 156.798C356.227 156.858 356.163 156.911 356.093 156.954L356.036 156.989C355.95 157.037 355.858 157.076 355.764 157.105H355.724C355.623 157.132 355.52 157.153 355.416 157.165L355.327 157.175C355.198 157.188 355.06 157.194 354.911 157.194H354.896C349.183 157.14 343.468 157.14 337.754 157.194H337.733C337.583 157.194 337.448 157.194 337.317 157.177L337.231 157.167C337.129 157.154 337.029 157.135 336.929 157.109L336.882 157.099C336.787 157.071 336.695 157.033 336.609 156.985L336.553 156.952C336.483 156.909 336.42 156.859 336.363 156.8L336.34 156.782C336.282 156.714 336.231 156.64 336.189 156.56C336.178 156.541 336.168 156.521 336.159 156.5C336.12 156.415 336.088 156.326 336.064 156.235V156.216C336.038 156.103 336.02 155.988 336.01 155.873C336.01 155.844 336.01 155.813 336.01 155.781C336.01 155.655 335.995 155.52 335.997 155.367C336.057 150.189 336.026 145.028 336.028 139.858V137.228H328.488C324.925 137.228 321.362 137.192 317.802 137.246C317.658 137.246 317.527 137.246 317.402 137.246H317.317C317.203 137.237 317.089 137.22 316.977 137.197L316.938 137.184C316.85 137.163 316.765 137.134 316.682 137.099L316.628 137.074C316.548 137.035 316.473 136.987 316.405 136.929L316.368 136.892C316.308 136.836 316.256 136.774 316.212 136.706L316.189 136.673C316.139 136.587 316.1 136.497 316.07 136.403C316.07 136.38 316.056 136.358 316.049 136.333C316.018 136.221 315.996 136.107 315.983 135.991C315.969 135.85 315.962 135.708 315.964 135.566C315.964 135.552 315.964 135.542 315.964 135.529V135.515C316.02 129.829 316.028 124.14 315.954 118.454V118.423C315.954 118.371 315.954 118.32 315.954 118.268V118.195C315.954 118.095 315.962 117.999 315.979 117.909C315.979 117.887 315.979 117.868 315.989 117.845C315.989 117.781 316.012 117.717 316.026 117.659C316.026 117.632 316.041 117.607 316.049 117.582C316.063 117.533 316.08 117.485 316.099 117.437C316.099 117.417 316.116 117.394 316.126 117.373C316.148 117.323 316.175 117.275 316.205 117.23C316.205 117.22 316.218 117.207 316.224 117.199C316.26 117.148 316.3 117.1 316.345 117.056C316.345 117.044 316.37 117.033 316.382 117.021C316.416 116.992 316.45 116.964 316.486 116.938L316.54 116.903C316.578 116.88 316.617 116.859 316.657 116.841L316.713 116.816C316.768 116.793 316.823 116.773 316.88 116.756H316.903C316.971 116.737 317.041 116.722 317.111 116.71L317.179 116.7L317.346 116.679H317.431H317.61H317.691C317.781 116.679 317.872 116.679 317.966 116.679C323.169 116.729 328.357 116.704 333.552 116.706H335.989V111.002C335.989 106.86 336.03 102.73 335.974 98.5955C335.974 98.4484 335.974 98.3159 335.987 98.1813C335.985 98.1544 335.985 98.1274 335.987 98.1005C335.995 97.9868 336.013 97.8739 336.039 97.7629L336.051 97.7152C336.074 97.6281 336.104 97.5429 336.141 97.4605C336.141 97.446 336.153 97.4294 336.161 97.4149C336.202 97.3357 336.252 97.2614 336.309 97.1933L336.349 97.1519C336.411 97.0878 336.48 97.0321 336.557 96.9862C336.643 96.9365 336.736 96.8976 336.832 96.8702L336.898 96.8495C337.009 96.8185 337.121 96.7963 337.235 96.7832H337.296C337.412 96.7832 337.539 96.7667 337.674 96.7667H337.724C343.437 96.8164 349.152 96.8309 354.867 96.7542H355.044C355.11 96.7542 355.177 96.7542 355.239 96.7542L355.345 96.7646C355.406 96.7646 355.464 96.7811 355.52 96.7915L355.604 96.806C355.674 96.821 355.744 96.8404 355.812 96.864H355.832C355.897 96.8884 355.96 96.9175 356.02 96.951L356.07 96.9841C356.107 97.0066 356.142 97.0315 356.176 97.0587L356.226 97.1042C356.254 97.131 356.282 97.1593 356.307 97.1891L356.349 97.2409C356.373 97.2742 356.395 97.3087 356.415 97.3445C356.426 97.361 356.436 97.3783 356.444 97.3963C356.472 97.4473 356.495 97.5007 356.513 97.5557V97.5661C356.534 97.6286 356.551 97.6922 356.565 97.7567C356.565 97.7795 356.565 97.8002 356.578 97.8229C356.59 97.8457 356.596 97.9182 356.602 97.9679C356.609 98.0176 356.602 98.0218 356.602 98.0487C356.602 98.0756 356.613 98.1461 356.617 98.1958V98.2827C356.617 98.3366 356.617 98.3946 356.617 98.4526C356.617 98.4775 356.617 98.5023 356.617 98.5293C356.617 98.6121 356.617 98.697 356.617 98.7861C356.58 103.881 356.617 108.978 356.617 114.074C356.617 114.867 356.617 115.662 356.617 116.708H374.765C375.222 116.708 375.661 116.889 375.985 117.211C376.308 117.533 376.49 117.97 376.49 118.425L376.494 118.407Z" fill="#00D9B6"/>
<path d="M374.769 116.69H356.621C356.621 115.644 356.621 114.848 356.621 114.055C356.621 108.96 356.59 103.863 356.621 98.7675C356.621 98.6784 356.621 98.5935 356.621 98.5106C356.621 98.4837 356.621 98.4588 356.621 98.434C356.621 98.376 356.621 98.318 356.621 98.2642V98.1771C356.621 98.1274 356.621 98.0777 356.607 98.0301C356.592 97.9825 356.607 97.9763 356.607 97.9493C356.607 97.9224 356.592 97.852 356.582 97.8044C356.571 97.7567 356.582 97.7609 356.569 97.7381C356.556 97.6736 356.538 97.61 356.517 97.5475V97.5372C356.499 97.4821 356.476 97.4288 356.448 97.3777C356.44 97.3598 356.43 97.3425 356.419 97.3259C356.399 97.2902 356.377 97.2556 356.353 97.2223L356.311 97.1706C356.286 97.1408 356.259 97.1124 356.23 97.0856L356.18 97.0401C356.146 97.0129 356.111 96.988 356.074 96.9655L356.024 96.9323C355.964 96.8989 355.901 96.8698 355.837 96.8454H355.816C355.748 96.8218 355.678 96.8024 355.608 96.7874L355.524 96.7729C355.468 96.7626 355.41 96.7522 355.35 96.746L355.244 96.7356C355.181 96.7356 355.114 96.7356 355.048 96.7356H354.871C349.156 96.8122 343.441 96.7977 337.729 96.748H337.679C337.543 96.748 337.416 96.7481 337.3 96.7646H337.24C337.126 96.7777 337.013 96.7998 336.902 96.8309L336.836 96.8516C336.74 96.879 336.648 96.9179 336.561 96.9676C336.485 97.0135 336.415 97.0692 336.353 97.1333L336.313 97.1747C336.256 97.2428 336.206 97.3171 336.166 97.3963C336.166 97.4108 336.153 97.4274 336.145 97.4419C336.108 97.5243 336.078 97.6095 336.055 97.6967L336.043 97.7443C336.017 97.8554 336 97.9682 335.991 98.0819C335.989 98.1088 335.989 98.1358 335.991 98.1627C335.98 98.289 335.976 98.4216 335.978 98.5769C336.035 102.719 335.995 106.847 335.993 110.983V116.688H333.556C328.353 116.688 323.165 116.71 317.97 116.661C317.877 116.661 317.785 116.661 317.695 116.661H317.614H317.435H317.35L317.184 116.681L317.115 116.692C317.045 116.703 316.975 116.719 316.907 116.737H316.884C316.827 116.754 316.772 116.774 316.717 116.797L316.661 116.822C316.621 116.841 316.582 116.862 316.545 116.884L316.49 116.919C316.454 116.945 316.42 116.973 316.386 117.002C316.374 117.015 316.359 117.025 316.349 117.038C316.304 117.081 316.264 117.129 316.228 117.18C316.228 117.18 316.216 117.201 316.21 117.212C316.179 117.257 316.153 117.305 316.13 117.354C316.13 117.375 316.112 117.398 316.103 117.419C316.084 117.466 316.068 117.514 316.053 117.564C316.053 117.588 316.037 117.613 316.031 117.64C316.016 117.698 316.004 117.762 315.993 117.827C315.993 117.849 315.993 117.868 315.983 117.891C315.97 117.981 315.962 118.076 315.958 118.177V118.249C315.958 118.301 315.958 118.353 315.958 118.405V118.436C316.033 124.121 316.024 129.811 315.968 135.496V135.511C315.968 135.523 315.968 135.533 315.968 135.548C315.967 135.69 315.973 135.831 315.987 135.972C316 136.088 316.022 136.202 316.053 136.314C316.053 136.339 316.068 136.362 316.074 136.385C316.104 136.479 316.144 136.569 316.193 136.654L316.216 136.687C316.26 136.755 316.313 136.818 316.372 136.873L316.409 136.911C316.477 136.968 316.552 137.017 316.632 137.056L316.686 137.081C316.769 137.116 316.855 137.144 316.942 137.165L316.982 137.178C317.094 137.202 317.207 137.218 317.321 137.228H317.406C317.531 137.228 317.662 137.242 317.806 137.228C321.367 137.174 324.93 137.209 328.492 137.209H336.007V139.839C336.007 145.017 336.037 150.179 335.976 155.349C335.976 155.494 335.976 155.628 335.989 155.763C335.989 155.794 335.989 155.825 335.989 155.854C335.999 155.97 336.017 156.084 336.043 156.198V156.216C336.067 156.307 336.099 156.396 336.139 156.482C336.147 156.502 336.157 156.522 336.168 156.542C336.21 156.621 336.261 156.695 336.32 156.763L336.343 156.782C336.399 156.84 336.463 156.891 336.532 156.933L336.588 156.966C336.675 157.014 336.766 157.052 336.861 157.08L336.909 157.091C337.008 157.116 337.109 157.136 337.21 157.149L337.296 157.159C337.423 157.169 337.558 157.175 337.712 157.175H337.733C343.448 157.122 349.162 157.122 354.875 157.175H354.89C355.042 157.175 355.179 157.175 355.306 157.157L355.395 157.146C355.499 157.134 355.602 157.114 355.703 157.086H355.743C355.838 157.057 355.929 157.018 356.016 156.97L356.072 156.935C356.142 156.892 356.207 156.84 356.263 156.78L356.282 156.763C356.341 156.696 356.39 156.621 356.43 156.542L356.461 156.479C356.499 156.393 356.53 156.302 356.553 156.21C356.553 156.205 356.553 156.201 356.553 156.196C356.577 156.082 356.595 155.968 356.605 155.852C356.605 155.823 356.605 155.792 356.605 155.759C356.605 155.632 356.617 155.502 356.615 155.355C356.544 151.664 356.59 147.971 356.59 144.278V137.207H374.754C375.212 137.207 375.651 137.026 375.974 136.704C376.298 136.382 376.48 135.945 376.48 135.49V118.388C376.475 117.938 376.293 117.509 375.973 117.191C375.653 116.873 375.221 116.693 374.769 116.69Z" fill="white"/>
<rect x="314.155" y="10.327" width="66.1804" height="9.94178" rx="4.97089" fill="white"/>
</svg>
