<svg width="84" height="102" viewBox="0 0 84 102" fill="none" xmlns="http://www.w3.org/2000/svg">
<g clip-path="url(#clip0)">
<rect width="84" height="102" fill="white"/>
<path d="M24.8833 60.3232H20.5099L50.5206 0L11.1598 68.0144H16.2873L0 102.097L24.8833 60.3232Z" fill="#00D9B6"/>
<path d="M23.9785 64.8474L26.5422 60.3231H40.1149C40.1149 60.3231 49.842 61.7558 55.1957 45.9964C60.25 31.1184 50.9731 31.6696 50.9731 31.6696H39.0593L41.0198 27.2962H53.9893C53.9893 27.2962 66.0006 27.6732 59.72 46.0718C52.1796 65.6768 40.1149 64.8474 40.1149 64.8474H23.9785Z" fill="#181941"/>
<path d="M27.8995 57.7596L29.5584 55.1959H40.1149C40.1149 55.1959 45.544 53.9894 48.4848 45.9966C51.6505 36.2695 45.3932 36.7973 45.3932 36.7973H36.6463L37.8528 34.0828H47.0521C47.0521 34.0828 55.799 33.6303 51.4255 45.9966C47.0521 58.3628 38.7577 57.9104 38.7577 57.9104L27.8995 57.7596Z" fill="#181941"/>
<path d="M57.274 63.4155C58.0044 63.4155 58.6077 63.1044 59.0837 62.4823C59.5597 61.8602 59.7976 61.085 59.7976 60.1566C59.7976 59.4921 59.6303 58.9619 59.2957 58.566C58.9658 58.1702 58.5205 57.9722 57.9597 57.9722C57.2292 57.9722 56.626 58.2833 56.15 58.9054C55.674 59.5274 55.436 60.3027 55.436 61.2311C55.436 61.8956 55.6009 62.4258 55.9308 62.8216C56.2654 63.2175 56.7132 63.4155 57.274 63.4155ZM57.9597 56.8907C58.8975 56.8907 59.6445 57.1852 60.2006 57.7743C60.7614 58.3587 61.0418 59.141 61.0418 60.1212C61.0418 60.9271 60.8769 61.6647 60.547 62.3339C60.2218 63.0031 59.7694 63.5309 59.1897 63.9174C58.6147 64.3038 57.9762 64.497 57.274 64.497C56.3361 64.497 55.5868 64.2048 55.026 63.6205C54.4699 63.0314 54.1918 62.2467 54.1918 61.2664C54.1918 60.4606 54.3544 59.723 54.6796 59.0538C55.0095 58.3846 55.4619 57.8568 56.0369 57.4703C56.6165 57.0839 57.2575 56.8907 57.9597 56.8907ZM72.2073 57.0179L68.6304 64.3698H67.3579L66.9267 58.6579H66.8984L64.1203 64.3698H62.8054L62.3106 57.0179H63.4204L63.7527 62.956H63.7739L66.6086 57.0179H67.8245L68.2204 62.956H68.2486L70.9915 57.0179H72.2073ZM73.5397 60.0011H77.4772C77.4819 59.9587 77.4843 59.8927 77.4843 59.8031C77.4843 59.2894 77.3406 58.8559 77.0531 58.5024C76.7656 58.1442 76.332 57.9652 75.7524 57.9652C75.201 57.9652 74.7321 58.1537 74.3456 58.5307C73.9639 58.9077 73.6953 59.3978 73.5397 60.0011ZM75.1515 64.5112C74.1807 64.5112 73.4337 64.2143 72.9106 63.6205C72.3875 63.0219 72.1259 62.2396 72.1259 61.2735C72.1259 60.4723 72.2791 59.7395 72.5854 59.075C72.8917 58.4058 73.3229 57.8756 73.879 57.4845C74.4399 57.0886 75.069 56.8907 75.7665 56.8907C76.6808 56.8907 77.4042 57.1687 77.9367 57.7248C78.4693 58.2809 78.7355 59.0373 78.7355 59.994C78.7355 60.3804 78.7143 60.7103 78.6719 60.9837H73.3842C73.3795 61.0402 73.3771 61.1251 73.3771 61.2382C73.3771 61.9121 73.5374 62.447 73.8578 62.8429C74.183 63.234 74.619 63.4296 75.1656 63.4296C75.6463 63.4296 76.0611 63.3118 76.4098 63.0761C76.7585 62.8405 77.0177 62.5177 77.1874 62.1077H78.3962C78.203 62.8004 77.8071 63.3754 77.2086 63.8325C76.6101 64.285 75.9244 64.5112 75.1515 64.5112ZM79.3398 64.3698L80.9021 57.0179H82.0685L81.8635 57.9934H81.8918C82.3913 57.2724 83.0794 56.9119 83.9559 56.9119C84.2953 56.9119 84.578 56.9661 84.8042 57.0745L84.5427 58.2409C84.2882 58.1419 83.9819 58.0924 83.6237 58.0924C83.0157 58.0924 82.5398 58.2597 82.1957 58.5943C81.8564 58.9289 81.6137 59.4332 81.4676 60.1071L80.5698 64.3698H79.3398Z" fill="#00D9B6"/>
<path d="M62.7031 54.2161C63.4335 54.2161 64.0368 53.9051 64.5128 53.283C64.9887 52.6609 65.2267 51.8857 65.2267 50.9572C65.2267 50.2927 65.0594 49.7626 64.7248 49.3667C64.3949 48.9708 63.9496 48.7729 63.3888 48.7729C62.6583 48.7729 62.0551 49.0839 61.5791 49.706C61.1031 50.3281 60.8651 51.1033 60.8651 52.0318C60.8651 52.6962 61.03 53.2264 61.3599 53.6223C61.6945 54.0182 62.1422 54.2161 62.7031 54.2161ZM63.3888 47.6913C64.3266 47.6913 65.0736 47.9859 65.6297 48.575C66.1905 49.1593 66.4709 49.9416 66.4709 50.9219C66.4709 51.7278 66.306 52.4653 65.9761 53.1345C65.6509 53.8037 65.1985 54.3316 64.6188 54.718C64.0438 55.1045 63.4053 55.2977 62.7031 55.2977C61.7652 55.2977 61.0159 55.0055 60.4551 54.4211C59.899 53.832 59.6209 53.0473 59.6209 52.0671C59.6209 51.2612 59.7835 50.5237 60.1087 49.8545C60.4386 49.1853 60.891 48.6574 61.466 48.271C62.0456 47.8845 62.6866 47.6913 63.3888 47.6913ZM71.2813 47.6913C71.7526 47.6913 72.1767 47.762 72.5537 47.9034C72.9355 48.0448 73.2442 48.238 73.4798 48.4831C73.7154 48.7234 73.8945 48.9944 74.017 49.296C74.1443 49.5976 74.2079 49.9157 74.2079 50.2503V50.2998H73.0132C72.9944 49.8662 72.8294 49.5034 72.5184 49.2112C72.2074 48.919 71.7903 48.7729 71.2672 48.7729C70.5367 48.7729 69.9382 49.0792 69.4716 49.6919C69.005 50.2998 68.7718 51.0821 68.7718 52.0388C68.7718 52.7127 68.932 53.2453 69.2525 53.6364C69.5776 54.0229 70.0112 54.2161 70.5532 54.2161C71.0245 54.2161 71.4321 54.0936 71.7761 53.8485C72.1249 53.5987 72.3794 53.2618 72.5396 52.8376H73.7484C73.5693 53.5445 73.1805 54.1313 72.582 54.5978C71.9835 55.0644 71.3025 55.2977 70.539 55.2977C69.5729 55.2977 68.826 55.0031 68.2981 54.414C67.775 53.825 67.5135 53.0473 67.5135 52.0812C67.5135 51.2659 67.6713 50.5237 67.9871 49.8545C68.3076 49.1853 68.7553 48.6574 69.3302 48.271C69.9099 47.8845 70.5602 47.6913 71.2813 47.6913Z" fill="#181941"/>
</g>
<defs>
<clipPath id="clip0">
<rect width="84" height="102" fill="white"/>
</clipPath>
</defs>
</svg>
